<?xml version="1.0" encoding="utf-8"?>
<!-- Generator: Adobe Illustrator 24.1.0, SVG Export Plug-In . SVG Version: 6.00 Build 0)  -->
<svg version="1.1" id="Layer_1" xmlns="http://www.w3.org/2000/svg" xmlns:xlink="http://www.w3.org/1999/xlink" x="0px" y="0px"
	 viewBox="0 0 600 371" style="enable-background:new 0 0 600 371;" xml:space="preserve">
<style type="text/css">
	.st0{fill:#434343;}
	.st1{fill:none;stroke:#FFFFFF;stroke-miterlimit:10;}
	.st2{clip-path:url(#SVGID_2_);fill:none;stroke:#000000;stroke-width:2;stroke-miterlimit:10;stroke-opacity:0;}
	.st3{clip-path:url(#SVGID_4_);fill:#6D9EEB;}
	.st4{clip-path:url(#SVGID_6_);fill:none;stroke:#000000;stroke-width:2;stroke-miterlimit:10;stroke-opacity:0;}
	.st5{clip-path:url(#SVGID_8_);fill:#6D9EEB;}
	.st6{clip-path:url(#SVGID_10_);fill:none;stroke:#000000;stroke-width:2;stroke-miterlimit:10;stroke-opacity:0;}
	.st7{clip-path:url(#SVGID_12_);fill:#6D9EEB;}
	.st8{clip-path:url(#SVGID_14_);fill:none;stroke:#000000;stroke-width:2;stroke-miterlimit:10;stroke-opacity:0;}
	.st9{clip-path:url(#SVGID_16_);fill:#6D9EEB;}
	.st10{clip-path:url(#SVGID_18_);fill:none;stroke:#000000;stroke-width:2;stroke-miterlimit:10;stroke-opacity:0;}
	.st11{clip-path:url(#SVGID_20_);fill:#FF00FF;}
	.st12{clip-path:url(#SVGID_22_);fill:none;stroke:#000000;stroke-width:2;stroke-miterlimit:10;stroke-opacity:0;}
	.st13{clip-path:url(#SVGID_24_);fill:#6D9EEB;}
	.st14{clip-path:url(#SVGID_26_);fill:none;stroke:#000000;stroke-width:2;stroke-miterlimit:10;stroke-opacity:0;}
	.st15{clip-path:url(#SVGID_28_);fill:#6D9EEB;}
	.st16{clip-path:url(#SVGID_30_);fill:none;stroke:#000000;stroke-width:2;stroke-miterlimit:10;stroke-opacity:0;}
	.st17{clip-path:url(#SVGID_32_);fill:#6D9EEB;}
	.st18{clip-path:url(#SVGID_34_);fill:none;stroke:#000000;stroke-width:2;stroke-miterlimit:10;stroke-opacity:0;}
	.st19{clip-path:url(#SVGID_36_);fill:#6D9EEB;}
	.st20{clip-path:url(#SVGID_38_);fill:none;stroke:#000000;stroke-width:2;stroke-miterlimit:10;stroke-opacity:0;}
	.st21{clip-path:url(#SVGID_40_);fill:#6D9EEB;}
	.st22{clip-path:url(#SVGID_42_);fill:none;stroke:#000000;stroke-width:2;stroke-miterlimit:10;stroke-opacity:0;}
	.st23{clip-path:url(#SVGID_44_);fill:#6D9EEB;}
	.st24{clip-path:url(#SVGID_46_);fill:none;stroke:#000000;stroke-width:2;stroke-miterlimit:10;stroke-opacity:0;}
	.st25{clip-path:url(#SVGID_48_);fill:#6D9EEB;}
	.st26{clip-path:url(#SVGID_50_);fill:none;stroke:#000000;stroke-width:2;stroke-miterlimit:10;stroke-opacity:0;}
	.st27{clip-path:url(#SVGID_52_);fill:#6D9EEB;}
	.st28{clip-path:url(#SVGID_54_);fill:none;stroke:#000000;stroke-width:2;stroke-miterlimit:10;stroke-opacity:0;}
	.st29{clip-path:url(#SVGID_56_);fill:#6D9EEB;}
	.st30{clip-path:url(#SVGID_58_);fill:none;stroke:#000000;stroke-width:2;stroke-miterlimit:10;stroke-opacity:0;}
	.st31{clip-path:url(#SVGID_60_);fill:#6D9EEB;}
	.st32{clip-path:url(#SVGID_62_);fill:none;stroke:#000000;stroke-width:2;stroke-miterlimit:10;stroke-opacity:0;}
	.st33{clip-path:url(#SVGID_64_);fill:#6D9EEB;}
	.st34{clip-path:url(#SVGID_66_);fill:none;stroke:#000000;stroke-width:2;stroke-miterlimit:10;stroke-opacity:0;}
	.st35{clip-path:url(#SVGID_68_);fill:#6D9EEB;}
	.st36{clip-path:url(#SVGID_70_);fill:none;stroke:#000000;stroke-width:2;stroke-miterlimit:10;stroke-opacity:0;}
	.st37{clip-path:url(#SVGID_72_);fill:#FF00FF;}
	.st38{clip-path:url(#SVGID_74_);fill:none;stroke:#000000;stroke-width:2;stroke-miterlimit:10;stroke-opacity:0;}
	.st39{clip-path:url(#SVGID_76_);fill:#6D9EEB;}
	.st40{clip-path:url(#SVGID_78_);fill:none;stroke:#000000;stroke-width:2;stroke-miterlimit:10;stroke-opacity:0;}
	.st41{clip-path:url(#SVGID_80_);fill:#6D9EEB;}
	.st42{clip-path:url(#SVGID_82_);fill:none;stroke:#000000;stroke-width:2;stroke-miterlimit:10;stroke-opacity:0;}
	.st43{clip-path:url(#SVGID_84_);fill:#6D9EEB;}
	.st44{fill:#FFFFFF;}
	.st45{fill:#6D9EEB;}
	.st46{fill:#EFEFEF;}
	.st47{fill:#FF00FF;}
	.st48{fill:none;}
	.st49{font-family:'MyriadPro-Regular';}
	.st50{font-size:12px;}
</style>
<path class="st0" d="M0,0h600v371H0V0z"/>
<path class="st1" d="M77.5,263.5h504"/>
<path class="st1" d="M77.5,212.5h504"/>
<path class="st1" d="M77.5,162.5h504"/>
<path class="st1" d="M77.5,112.5h504"/>
<path class="st1" d="M77.5,61.5h504"/>
<g>
	<defs>
		<rect id="SVGID_1_" x="77.6" y="61.9" width="503.9" height="201.4"/>
	</defs>
	<clipPath id="SVGID_2_">
		<use xlink:href="#SVGID_1_"  style="overflow:visible;"/>
	</clipPath>
	<path class="st2" d="M101,263H86v-8c0-1.1,0.9-2,2-2h11c1.1,0,2,0.9,2,2V263z"/>
</g>
<g>
	<defs>
		<rect id="SVGID_3_" x="77.6" y="61.9" width="503.9" height="201.4"/>
	</defs>
	<clipPath id="SVGID_4_">
		<use xlink:href="#SVGID_3_"  style="overflow:visible;"/>
	</clipPath>
	<path class="st3" d="M101,263H86v-8c0-1.1,0.9-2,2-2h11c1.1,0,2,0.9,2,2V263z"/>
</g>
<g>
	<defs>
		<rect id="SVGID_5_" x="77.6" y="61.9" width="503.9" height="201.4"/>
	</defs>
	<clipPath id="SVGID_6_">
		<use xlink:href="#SVGID_5_"  style="overflow:visible;"/>
	</clipPath>
	<path class="st4" d="M125,263h-15v-14c0-1.1,0.9-2,2-2h11c1.1,0,2,0.9,2,2V263z"/>
</g>
<g>
	<defs>
		<rect id="SVGID_7_" x="77.6" y="61.9" width="503.9" height="201.4"/>
	</defs>
	<clipPath id="SVGID_8_">
		<use xlink:href="#SVGID_7_"  style="overflow:visible;"/>
	</clipPath>
	<path class="st5" d="M125,263h-15v-14c0-1.1,0.9-2,2-2h11c1.1,0,2,0.9,2,2V263z"/>
</g>
<g>
	<defs>
		<rect id="SVGID_9_" x="77.6" y="61.9" width="503.9" height="201.4"/>
	</defs>
	<clipPath id="SVGID_10_">
		<use xlink:href="#SVGID_9_"  style="overflow:visible;"/>
	</clipPath>
	<path class="st6" d="M149,263h-15v-18c0-1.1,0.9-2,2-2h11c1.1,0,2,0.9,2,2V263z"/>
</g>
<g>
	<defs>
		<rect id="SVGID_11_" x="77.6" y="61.9" width="503.9" height="201.4"/>
	</defs>
	<clipPath id="SVGID_12_">
		<use xlink:href="#SVGID_11_"  style="overflow:visible;"/>
	</clipPath>
	<path class="st7" d="M149,263h-15v-18c0-1.1,0.9-2,2-2h11c1.1,0,2,0.9,2,2V263z"/>
</g>
<g>
	<defs>
		<rect id="SVGID_13_" x="77.6" y="61.9" width="503.9" height="201.4"/>
	</defs>
	<clipPath id="SVGID_14_">
		<use xlink:href="#SVGID_13_"  style="overflow:visible;"/>
	</clipPath>
	<path class="st8" d="M172,263h-15v-22c0-1.1,0.9-2,2-2h11c1.1,0,2,0.9,2,2V263z"/>
</g>
<g>
	<defs>
		<rect id="SVGID_15_" x="77.6" y="61.9" width="503.9" height="201.4"/>
	</defs>
	<clipPath id="SVGID_16_">
		<use xlink:href="#SVGID_15_"  style="overflow:visible;"/>
	</clipPath>
	<path class="st9" d="M172,263h-15v-22c0-1.1,0.9-2,2-2h11c1.1,0,2,0.9,2,2V263z"/>
</g>
<g>
	<defs>
		<rect id="SVGID_17_" x="77.6" y="61.9" width="503.9" height="201.4"/>
	</defs>
	<clipPath id="SVGID_18_">
		<use xlink:href="#SVGID_17_"  style="overflow:visible;"/>
	</clipPath>
	<path class="st10" d="M196,263h-15v-56c0-1.1,0.9-2,2-2h11c1.1,0,2,0.9,2,2V263z"/>
</g>
<g>
	<defs>
		<rect id="SVGID_19_" x="77.6" y="61.9" width="503.9" height="201.4"/>
	</defs>
	<clipPath id="SVGID_20_">
		<use xlink:href="#SVGID_19_"  style="overflow:visible;"/>
	</clipPath>
	<path class="st11" d="M196,263h-15v-56c0-1.1,0.9-2,2-2h11c1.1,0,2,0.9,2,2V263z"/>
</g>
<g>
	<defs>
		<rect id="SVGID_21_" x="77.6" y="61.9" width="503.9" height="201.4"/>
	</defs>
	<clipPath id="SVGID_22_">
		<use xlink:href="#SVGID_21_"  style="overflow:visible;"/>
	</clipPath>
	<path class="st12" d="M219,263h-15V142c0-1.1,0.9-2,2-2h11c1.1,0,2,0.9,2,2V263z"/>
</g>
<g>
	<defs>
		<rect id="SVGID_23_" x="77.6" y="61.9" width="503.9" height="201.4"/>
	</defs>
	<clipPath id="SVGID_24_">
		<use xlink:href="#SVGID_23_"  style="overflow:visible;"/>
	</clipPath>
	<path class="st13" d="M219,263h-15V142c0-1.1,0.9-2,2-2h11c1.1,0,2,0.9,2,2V263z"/>
</g>
<g>
	<defs>
		<rect id="SVGID_25_" x="77.6" y="61.9" width="503.9" height="201.4"/>
	</defs>
	<clipPath id="SVGID_26_">
		<use xlink:href="#SVGID_25_"  style="overflow:visible;"/>
	</clipPath>
	<path class="st14" d="M243,263h-15V74c0-1.1,0.9-2,2-2h11c1.1,0,2,0.9,2,2V263z"/>
</g>
<g>
	<defs>
		<rect id="SVGID_27_" x="77.6" y="61.9" width="503.9" height="201.4"/>
	</defs>
	<clipPath id="SVGID_28_">
		<use xlink:href="#SVGID_27_"  style="overflow:visible;"/>
	</clipPath>
	<path class="st15" d="M243,263h-15V74c0-1.1,0.9-2,2-2h11c1.1,0,2,0.9,2,2V263z"/>
</g>
<g>
	<defs>
		<rect id="SVGID_29_" x="77.6" y="61.9" width="503.9" height="201.4"/>
	</defs>
	<clipPath id="SVGID_30_">
		<use xlink:href="#SVGID_29_"  style="overflow:visible;"/>
	</clipPath>
	<path class="st16" d="M267,263h-15V68c0-1.1,0.9-2,2-2h11c1.1,0,2,0.9,2,2V263z"/>
</g>
<g>
	<defs>
		<rect id="SVGID_31_" x="77.6" y="61.9" width="503.9" height="201.4"/>
	</defs>
	<clipPath id="SVGID_32_">
		<use xlink:href="#SVGID_31_"  style="overflow:visible;"/>
	</clipPath>
	<path class="st17" d="M267,263h-15V68c0-1.1,0.9-2,2-2h11c1.1,0,2,0.9,2,2V263z"/>
</g>
<g>
	<defs>
		<rect id="SVGID_33_" x="77.6" y="61.9" width="503.9" height="201.4"/>
	</defs>
	<clipPath id="SVGID_34_">
		<use xlink:href="#SVGID_33_"  style="overflow:visible;"/>
	</clipPath>
	<path class="st18" d="M290,263h-15V86c0-1.1,0.9-2,2-2h11c1.1,0,2,0.9,2,2V263z"/>
</g>
<g>
	<defs>
		<rect id="SVGID_35_" x="77.6" y="61.9" width="503.9" height="201.4"/>
	</defs>
	<clipPath id="SVGID_36_">
		<use xlink:href="#SVGID_35_"  style="overflow:visible;"/>
	</clipPath>
	<path class="st19" d="M290,263h-15V86c0-1.1,0.9-2,2-2h11c1.1,0,2,0.9,2,2V263z"/>
</g>
<g>
	<defs>
		<rect id="SVGID_37_" x="77.6" y="61.9" width="503.9" height="201.4"/>
	</defs>
	<clipPath id="SVGID_38_">
		<use xlink:href="#SVGID_37_"  style="overflow:visible;"/>
	</clipPath>
	<path class="st20" d="M314,263h-15V104c0-1.1,0.9-2,2-2h11c1.1,0,2,0.9,2,2V263z"/>
</g>
<g>
	<defs>
		<rect id="SVGID_39_" x="77.6" y="61.9" width="503.9" height="201.4"/>
	</defs>
	<clipPath id="SVGID_40_">
		<use xlink:href="#SVGID_39_"  style="overflow:visible;"/>
	</clipPath>
	<path class="st21" d="M314,263h-15V104c0-1.1,0.9-2,2-2h11c1.1,0,2,0.9,2,2V263z"/>
</g>
<g>
	<defs>
		<rect id="SVGID_41_" x="77.6" y="61.9" width="503.9" height="201.4"/>
	</defs>
	<clipPath id="SVGID_42_">
		<use xlink:href="#SVGID_41_"  style="overflow:visible;"/>
	</clipPath>
	<path class="st22" d="M338,263h-15V102c0-1.1,0.9-2,2-2h11c1.1,0,2,0.9,2,2V263z"/>
</g>
<g>
	<defs>
		<rect id="SVGID_43_" x="77.6" y="61.9" width="503.9" height="201.4"/>
	</defs>
	<clipPath id="SVGID_44_">
		<use xlink:href="#SVGID_43_"  style="overflow:visible;"/>
	</clipPath>
	<path class="st23" d="M338,263h-15V102c0-1.1,0.9-2,2-2h11c1.1,0,2,0.9,2,2V263z"/>
</g>
<g>
	<defs>
		<rect id="SVGID_45_" x="77.6" y="61.9" width="503.9" height="201.4"/>
	</defs>
	<clipPath id="SVGID_46_">
		<use xlink:href="#SVGID_45_"  style="overflow:visible;"/>
	</clipPath>
	<path class="st24" d="M361,263h-15V118c0-1.1,0.9-2,2-2h11c1.1,0,2,0.9,2,2V263z"/>
</g>
<g>
	<defs>
		<rect id="SVGID_47_" x="77.6" y="61.9" width="503.9" height="201.4"/>
	</defs>
	<clipPath id="SVGID_48_">
		<use xlink:href="#SVGID_47_"  style="overflow:visible;"/>
	</clipPath>
	<path class="st25" d="M361,263h-15V118c0-1.1,0.9-2,2-2h11c1.1,0,2,0.9,2,2V263z"/>
</g>
<g>
	<defs>
		<rect id="SVGID_49_" x="77.6" y="61.9" width="503.9" height="201.4"/>
	</defs>
	<clipPath id="SVGID_50_">
		<use xlink:href="#SVGID_49_"  style="overflow:visible;"/>
	</clipPath>
	<path class="st26" d="M385,263h-15V138c0-1.1,0.9-2,2-2h11c1.1,0,2,0.9,2,2V263z"/>
</g>
<g>
	<defs>
		<rect id="SVGID_51_" x="77.6" y="61.9" width="503.9" height="201.4"/>
	</defs>
	<clipPath id="SVGID_52_">
		<use xlink:href="#SVGID_51_"  style="overflow:visible;"/>
	</clipPath>
	<path class="st27" d="M385,263h-15V138c0-1.1,0.9-2,2-2h11c1.1,0,2,0.9,2,2V263z"/>
</g>
<g>
	<defs>
		<rect id="SVGID_53_" x="77.6" y="61.9" width="503.9" height="201.4"/>
	</defs>
	<clipPath id="SVGID_54_">
		<use xlink:href="#SVGID_53_"  style="overflow:visible;"/>
	</clipPath>
	<path class="st28" d="M408,263h-15v-84c0-1.1,0.9-2,2-2h11c1.1,0,2,0.9,2,2V263z"/>
</g>
<g>
	<defs>
		<rect id="SVGID_55_" x="77.6" y="61.9" width="503.9" height="201.4"/>
	</defs>
	<clipPath id="SVGID_56_">
		<use xlink:href="#SVGID_55_"  style="overflow:visible;"/>
	</clipPath>
	<path class="st29" d="M408,263h-15v-84c0-1.1,0.9-2,2-2h11c1.1,0,2,0.9,2,2V263z"/>
</g>
<g>
	<defs>
		<rect id="SVGID_57_" x="77.6" y="61.9" width="503.9" height="201.4"/>
	</defs>
	<clipPath id="SVGID_58_">
		<use xlink:href="#SVGID_57_"  style="overflow:visible;"/>
	</clipPath>
	<path class="st30" d="M432,263h-15v-90c0-1.1,0.9-2,2-2h11c1.1,0,2,0.9,2,2V263z"/>
</g>
<g>
	<defs>
		<rect id="SVGID_59_" x="77.6" y="61.9" width="503.9" height="201.4"/>
	</defs>
	<clipPath id="SVGID_60_">
		<use xlink:href="#SVGID_59_"  style="overflow:visible;"/>
	</clipPath>
	<path class="st31" d="M432,263h-15v-90c0-1.1,0.9-2,2-2h11c1.1,0,2,0.9,2,2V263z"/>
</g>
<g>
	<defs>
		<rect id="SVGID_61_" x="77.6" y="61.9" width="503.9" height="201.4"/>
	</defs>
	<clipPath id="SVGID_62_">
		<use xlink:href="#SVGID_61_"  style="overflow:visible;"/>
	</clipPath>
	<path class="st32" d="M456,263h-15v-96c0-1.1,0.9-2,2-2h11c1.1,0,2,0.9,2,2V263z"/>
</g>
<g>
	<defs>
		<rect id="SVGID_63_" x="77.6" y="61.9" width="503.9" height="201.4"/>
	</defs>
	<clipPath id="SVGID_64_">
		<use xlink:href="#SVGID_63_"  style="overflow:visible;"/>
	</clipPath>
	<path class="st33" d="M456,263h-15v-96c0-1.1,0.9-2,2-2h11c1.1,0,2,0.9,2,2V263z"/>
</g>
<g>
	<defs>
		<rect id="SVGID_65_" x="77.6" y="61.9" width="503.9" height="201.4"/>
	</defs>
	<clipPath id="SVGID_66_">
		<use xlink:href="#SVGID_65_"  style="overflow:visible;"/>
	</clipPath>
	<path class="st34" d="M479,263h-15v-32c0-1.1,0.9-2,2-2h11c1.1,0,2,0.9,2,2V263z"/>
</g>
<g>
	<defs>
		<rect id="SVGID_67_" x="77.6" y="61.9" width="503.9" height="201.4"/>
	</defs>
	<clipPath id="SVGID_68_">
		<use xlink:href="#SVGID_67_"  style="overflow:visible;"/>
	</clipPath>
	<path class="st35" d="M479,263h-15v-32c0-1.1,0.9-2,2-2h11c1.1,0,2,0.9,2,2V263z"/>
</g>
<g>
	<defs>
		<rect id="SVGID_69_" x="77.6" y="61.9" width="503.9" height="201.4"/>
	</defs>
	<clipPath id="SVGID_70_">
		<use xlink:href="#SVGID_69_"  style="overflow:visible;"/>
	</clipPath>
	<path class="st36" d="M503,263h-15v-32c0-1.1,0.9-2,2-2h11c1.1,0,2,0.9,2,2V263z"/>
</g>
<g>
	<defs>
		<rect id="SVGID_71_" x="77.6" y="61.9" width="503.9" height="201.4"/>
	</defs>
	<clipPath id="SVGID_72_">
		<use xlink:href="#SVGID_71_"  style="overflow:visible;"/>
	</clipPath>
	<path class="st37" d="M503,263h-15v-32c0-1.1,0.9-2,2-2h11c1.1,0,2,0.9,2,2V263z"/>
</g>
<g>
	<defs>
		<rect id="SVGID_73_" x="77.6" y="61.9" width="503.9" height="201.4"/>
	</defs>
	<clipPath id="SVGID_74_">
		<use xlink:href="#SVGID_73_"  style="overflow:visible;"/>
	</clipPath>
	<path class="st38" d="M526,263h-15v-40c0-1.1,0.9-2,2-2h11c1.1,0,2,0.9,2,2V263z"/>
</g>
<g>
	<defs>
		<rect id="SVGID_75_" x="77.6" y="61.9" width="503.9" height="201.4"/>
	</defs>
	<clipPath id="SVGID_76_">
		<use xlink:href="#SVGID_75_"  style="overflow:visible;"/>
	</clipPath>
	<path class="st39" d="M526,263h-15v-40c0-1.1,0.9-2,2-2h11c1.1,0,2,0.9,2,2V263z"/>
</g>
<g>
	<defs>
		<rect id="SVGID_77_" x="77.6" y="61.9" width="503.9" height="201.4"/>
	</defs>
	<clipPath id="SVGID_78_">
		<use xlink:href="#SVGID_77_"  style="overflow:visible;"/>
	</clipPath>
	<path class="st40" d="M550,263h-15v-38c0-1.1,0.9-2,2-2h11c1.1,0,2,0.9,2,2V263z"/>
</g>
<g>
	<defs>
		<rect id="SVGID_79_" x="77.6" y="61.9" width="503.9" height="201.4"/>
	</defs>
	<clipPath id="SVGID_80_">
		<use xlink:href="#SVGID_79_"  style="overflow:visible;"/>
	</clipPath>
	<path class="st41" d="M550,263h-15v-38c0-1.1,0.9-2,2-2h11c1.1,0,2,0.9,2,2V263z"/>
</g>
<g>
	<defs>
		<rect id="SVGID_81_" x="77.6" y="61.9" width="503.9" height="201.4"/>
	</defs>
	<clipPath id="SVGID_82_">
		<use xlink:href="#SVGID_81_"  style="overflow:visible;"/>
	</clipPath>
	<path class="st42" d="M574,263h-15v-40c0-1.1,0.9-2,2-2h11c1.1,0,2,0.9,2,2V263z"/>
</g>
<g>
	<defs>
		<rect id="SVGID_83_" x="77.6" y="61.9" width="503.9" height="201.4"/>
	</defs>
	<clipPath id="SVGID_84_">
		<use xlink:href="#SVGID_83_"  style="overflow:visible;"/>
	</clipPath>
	<path class="st43" d="M574,263h-15v-40c0-1.1,0.9-2,2-2h11c1.1,0,2,0.9,2,2V263z"/>
</g>
<path class="st44" d="M318.8,325.5l-0.1-1c0.2,0.1,0.4,0.1,0.6,0.1c0.2,0,0.4,0,0.5-0.1c0.1-0.1,0.3-0.2,0.4-0.3
	c0.1-0.1,0.2-0.4,0.3-0.8c0-0.1,0-0.1,0.1-0.2l-2.4-6.2h1.1l1.3,3.6c0.2,0.5,0.3,0.9,0.5,1.5c0.1-0.5,0.3-1,0.4-1.4l1.3-3.6h1
	l-2.4,6.3c-0.3,0.7-0.5,1.1-0.6,1.4c-0.2,0.4-0.4,0.6-0.7,0.8c-0.2,0.2-0.5,0.2-0.9,0.2C319.2,325.6,319,325.6,318.8,325.5z
	 M328,321.1l1.1,0.1c-0.2,0.6-0.5,1.1-1,1.5c-0.5,0.4-1.1,0.5-1.8,0.5c-0.9,0-1.6-0.3-2.2-0.8c-0.5-0.6-0.8-1.3-0.8-2.4
	c0-1,0.3-1.8,0.8-2.4c0.5-0.6,1.2-0.9,2.1-0.9c0.8,0,1.5,0.3,2,0.8c0.5,0.6,0.8,1.4,0.8,2.4c0,0.1,0,0.2,0,0.3h-4.6
	c0,0.7,0.2,1.2,0.6,1.6c0.3,0.4,0.8,0.5,1.3,0.5c0.4,0,0.7-0.1,1-0.3C327.7,321.8,327.9,321.5,328,321.1z M324.6,319.4h3.5
	c0-0.5-0.2-0.9-0.4-1.2c-0.3-0.4-0.8-0.6-1.3-0.6c-0.5,0-0.9,0.2-1.2,0.5C324.8,318.4,324.6,318.8,324.6,319.4z M334.9,322.3
	c-0.4,0.3-0.8,0.6-1.1,0.7c-0.4,0.1-0.7,0.2-1.2,0.2c-0.7,0-1.2-0.2-1.6-0.5c-0.4-0.3-0.5-0.8-0.5-1.3c0-0.3,0.1-0.6,0.2-0.8
	c0.1-0.3,0.3-0.5,0.5-0.6c0.2-0.2,0.5-0.3,0.8-0.3c0.2-0.1,0.5-0.1,0.9-0.2c0.8-0.1,1.5-0.2,1.9-0.4c0-0.1,0-0.2,0-0.3
	c0-0.4-0.1-0.7-0.3-0.9c-0.3-0.2-0.7-0.3-1.2-0.3c-0.5,0-0.9,0.1-1.1,0.3c-0.2,0.2-0.4,0.5-0.5,0.9l-1-0.1c0.1-0.4,0.2-0.8,0.5-1.1
	c0.2-0.3,0.5-0.5,0.9-0.6c0.4-0.1,0.9-0.2,1.4-0.2s1,0.1,1.3,0.2s0.6,0.3,0.7,0.5s0.3,0.4,0.3,0.7c0,0.2,0,0.5,0,1v1.4
	c0,1,0,1.6,0.1,1.9c0.1,0.3,0.1,0.5,0.3,0.8h-1.1C335,322.9,334.9,322.6,334.9,322.3z M334.8,320c-0.4,0.2-1,0.3-1.7,0.4
	c-0.4,0.1-0.7,0.1-0.9,0.2c-0.2,0.1-0.3,0.2-0.4,0.3c-0.1,0.1-0.1,0.3-0.1,0.5c0,0.3,0.1,0.5,0.3,0.7c0.2,0.2,0.5,0.3,0.9,0.3
	s0.8-0.1,1.1-0.3c0.3-0.2,0.6-0.4,0.7-0.7c0.1-0.2,0.2-0.6,0.2-1V320z M337.8,323.1v-6.2h1v0.9c0.2-0.4,0.5-0.7,0.7-0.9
	c0.2-0.1,0.4-0.2,0.7-0.2c0.4,0,0.7,0.1,1.1,0.3l-0.4,1c-0.3-0.2-0.5-0.2-0.8-0.2c-0.2,0-0.5,0.1-0.6,0.2c-0.2,0.1-0.3,0.3-0.4,0.6
	c-0.1,0.4-0.2,0.8-0.2,1.2v3.3H337.8z"/>
<path class="st44" d="M27.3,202.5l-0.1-1.1c0.6-0.1,1-0.3,1.3-0.6c0.3-0.3,0.4-0.6,0.4-1.1c0-0.5-0.2-0.9-0.5-1.3S27.5,198,27,198
	c-0.5,0-0.9,0.2-1.2,0.5c-0.3,0.3-0.5,0.7-0.5,1.2c0,0.2,0,0.4,0.1,0.8l-0.9-0.1c0-0.1,0-0.1,0-0.2c0-0.4-0.1-0.8-0.3-1.2
	c-0.2-0.4-0.6-0.5-1.1-0.5c-0.4,0-0.7,0.1-1,0.4c-0.3,0.3-0.4,0.6-0.4,1c0,0.4,0.1,0.8,0.4,1c0.3,0.3,0.6,0.4,1.2,0.5l-0.2,1.1
	c-0.7-0.1-1.2-0.4-1.6-0.9c-0.4-0.5-0.6-1-0.6-1.7c0-0.5,0.1-0.9,0.3-1.3c0.2-0.4,0.5-0.7,0.8-0.9s0.7-0.3,1.1-0.3
	c0.4,0,0.7,0.1,1,0.3c0.3,0.2,0.5,0.5,0.7,0.9c0.1-0.5,0.4-0.9,0.7-1.2c0.4-0.3,0.8-0.4,1.4-0.4c0.8,0,1.4,0.3,1.9,0.8
	c0.5,0.5,0.8,1.2,0.8,2.1c0,0.8-0.2,1.4-0.7,1.9C28.6,202.1,28,202.4,27.3,202.5z M29.6,191.2h-0.8c0.6,0.4,0.9,1,0.9,1.7
	c0,0.5-0.1,1-0.4,1.4c-0.3,0.4-0.7,0.7-1.2,1s-1.1,0.3-1.7,0.3c-0.6,0-1.2-0.1-1.7-0.3s-0.9-0.5-1.2-0.9c-0.3-0.4-0.4-0.9-0.4-1.4
	c0-0.4,0.1-0.7,0.2-1s0.4-0.5,0.6-0.7H21v-1h8.6V191.2z M26.4,194.5c0.8,0,1.4-0.2,1.8-0.5c0.4-0.3,0.6-0.7,0.6-1.2
	s-0.2-0.8-0.6-1.2s-0.9-0.5-1.7-0.5c-0.9,0-1.5,0.2-1.9,0.5c-0.4,0.3-0.6,0.7-0.6,1.2c0,0.5,0.2,0.9,0.6,1.2
	C25,194.3,25.6,194.5,26.4,194.5z M29.6,185.2h-6.2v-0.9h0.9c-0.3-0.2-0.6-0.5-0.7-0.8c-0.2-0.3-0.3-0.7-0.3-1.1
	c0-0.5,0.1-0.8,0.3-1.1c0.2-0.3,0.5-0.5,0.8-0.6c-0.7-0.5-1.1-1.1-1.1-1.9c0-0.6,0.2-1.1,0.5-1.4c0.3-0.3,0.9-0.5,1.6-0.5h4.3v1
	h-3.9c-0.4,0-0.7,0-0.9,0.1c-0.2,0.1-0.3,0.2-0.5,0.4s-0.2,0.4-0.2,0.6c0,0.4,0.1,0.8,0.4,1.1c0.3,0.3,0.8,0.4,1.4,0.4h3.6v1.1h-4
	c-0.5,0-0.8,0.1-1,0.3c-0.2,0.2-0.4,0.4-0.4,0.8c0,0.3,0.1,0.6,0.2,0.8s0.4,0.4,0.7,0.5s0.7,0.2,1.3,0.2h3.2V185.2z M26.4,174.6
	c-1.2,0-2-0.3-2.6-1c-0.5-0.5-0.7-1.2-0.7-2c0-0.9,0.3-1.6,0.8-2.1c0.6-0.6,1.3-0.8,2.3-0.8c0.8,0,1.4,0.1,1.9,0.4s0.8,0.6,1.1,1.1
	c0.2,0.5,0.4,1,0.4,1.5c0,0.9-0.3,1.6-0.8,2.1C28.3,174.3,27.5,174.6,26.4,174.6z M26.4,173.5c0.8,0,1.4-0.2,1.8-0.5
	c0.4-0.4,0.6-0.8,0.6-1.3c0-0.5-0.2-1-0.6-1.3s-1-0.5-1.8-0.5c-0.8,0-1.4,0.2-1.8,0.5c-0.4,0.3-0.6,0.8-0.6,1.3s0.2,1,0.6,1.3
	C25,173.3,25.6,173.5,26.4,173.5z M29.6,165.5l-6.2,2.4v-1.1l3.7-1.3c0.4-0.1,0.8-0.3,1.2-0.4c-0.3-0.1-0.7-0.2-1.2-0.4l-3.8-1.4
	v-1.1l6.2,2.4V165.5z M22.2,162.2H21v-1.1h1.2V162.2z M29.6,162.2h-6.2v-1.1h6.2V162.2z M27.6,155l0.1-1.1c0.6,0.2,1.1,0.5,1.5,1
	s0.5,1.1,0.5,1.8c0,0.9-0.3,1.6-0.8,2.2c-0.6,0.5-1.3,0.8-2.4,0.8c-1,0-1.8-0.3-2.4-0.8c-0.6-0.5-0.9-1.2-0.9-2.1
	c0-0.8,0.3-1.5,0.8-2c0.6-0.5,1.4-0.8,2.4-0.8c0.1,0,0.2,0,0.3,0v4.6c0.7,0,1.2-0.2,1.6-0.6c0.4-0.3,0.5-0.8,0.5-1.3
	c0-0.4-0.1-0.7-0.3-1C28.3,155.3,28,155.1,27.6,155z M25.8,158.4v-3.5c-0.5,0-0.9,0.2-1.2,0.4c-0.4,0.3-0.6,0.8-0.6,1.3
	c0,0.5,0.2,0.9,0.5,1.2C24.9,158.2,25.3,158.4,25.8,158.4z M27.7,152.6l-0.2-1c0.4-0.1,0.7-0.2,1-0.5c0.2-0.3,0.3-0.7,0.3-1.1
	c0-0.5-0.1-0.8-0.3-1.1c-0.2-0.2-0.4-0.4-0.7-0.4c-0.2,0-0.4,0.1-0.6,0.3c-0.1,0.1-0.2,0.5-0.4,1.1c-0.2,0.8-0.4,1.3-0.5,1.6
	c-0.1,0.3-0.3,0.5-0.6,0.7s-0.5,0.2-0.8,0.2c-0.3,0-0.5-0.1-0.8-0.2s-0.4-0.3-0.6-0.5c-0.1-0.2-0.2-0.4-0.3-0.7s-0.1-0.6-0.1-0.9
	c0-0.5,0.1-0.9,0.2-1.3c0.1-0.4,0.3-0.7,0.6-0.8s0.6-0.3,1-0.4l0.1,1c-0.3,0-0.6,0.2-0.7,0.4c-0.2,0.2-0.3,0.5-0.3,1
	c0,0.5,0.1,0.8,0.2,1c0.2,0.2,0.3,0.3,0.6,0.3c0.1,0,0.3,0,0.4-0.1c0.1-0.1,0.2-0.2,0.3-0.4c0-0.1,0.1-0.4,0.3-0.9
	c0.2-0.8,0.4-1.3,0.5-1.6s0.3-0.5,0.5-0.7s0.5-0.2,0.9-0.2c0.4,0,0.7,0.1,1,0.3c0.3,0.2,0.5,0.5,0.7,0.9c0.2,0.4,0.2,0.8,0.2,1.3
	c0,0.8-0.2,1.4-0.5,1.9C28.8,152.2,28.3,152.5,27.7,152.6z"/>
<path class="st44" d="M65.1,263.1c0-1,0.1-1.8,0.3-2.5c0.2-0.6,0.5-1.1,0.9-1.4c0.4-0.3,0.9-0.5,1.6-0.5c0.5,0,0.9,0.1,1.2,0.3
	c0.4,0.2,0.6,0.5,0.9,0.8c0.2,0.3,0.4,0.8,0.5,1.3s0.2,1.2,0.2,2c0,1-0.1,1.8-0.3,2.4c-0.2,0.6-0.5,1.1-0.9,1.4
	c-0.4,0.3-0.9,0.5-1.6,0.5c-0.8,0-1.5-0.3-2-0.9C65.3,265.9,65.1,264.7,65.1,263.1z M66.1,263.1c0,1.4,0.2,2.3,0.5,2.8
	s0.7,0.7,1.2,0.7c0.5,0,0.9-0.2,1.2-0.7c0.3-0.5,0.5-1.4,0.5-2.8c0-1.4-0.2-2.4-0.5-2.8c-0.3-0.5-0.7-0.7-1.2-0.7
	c-0.5,0-0.9,0.2-1.2,0.6C66.3,260.7,66.1,261.7,66.1,263.1z"/>
<path class="st44" d="M63.6,216v1h-5.7c0-0.2,0-0.5,0.1-0.7c0.1-0.4,0.4-0.8,0.7-1.1c0.3-0.4,0.8-0.8,1.4-1.3
	c0.9-0.8,1.6-1.4,1.9-1.8c0.3-0.4,0.5-0.9,0.5-1.3c0-0.4-0.2-0.8-0.5-1c-0.3-0.3-0.7-0.4-1.2-0.4c-0.5,0-0.9,0.2-1.2,0.5
	c-0.3,0.3-0.5,0.7-0.5,1.3l-1.1-0.1c0.1-0.8,0.3-1.4,0.8-1.8c0.5-0.4,1.1-0.6,2-0.6c0.8,0,1.5,0.2,2,0.7c0.5,0.5,0.7,1,0.7,1.7
	c0,0.3-0.1,0.7-0.2,1c-0.1,0.3-0.4,0.7-0.7,1c-0.3,0.4-0.9,0.9-1.6,1.5c-0.6,0.5-1,0.9-1.2,1.1c-0.2,0.2-0.3,0.4-0.4,0.6H63.6z
	 M65.1,214.7l1.1-0.1c0.1,0.5,0.3,0.9,0.6,1.2c0.3,0.3,0.7,0.4,1.1,0.4c0.5,0,0.9-0.2,1.3-0.6c0.4-0.4,0.5-0.9,0.5-1.5
	c0-0.6-0.2-1.1-0.5-1.4c-0.3-0.4-0.8-0.5-1.3-0.5c-0.3,0-0.6,0.1-0.9,0.2c-0.3,0.2-0.5,0.4-0.6,0.6l-1-0.1l0.8-4.4h4.3v1h-3.4
	l-0.5,2.3c0.5-0.4,1-0.5,1.6-0.5c0.8,0,1.4,0.3,1.9,0.8c0.5,0.5,0.8,1.2,0.8,2c0,0.8-0.2,1.4-0.7,2c-0.6,0.7-1.3,1-2.2,1
	c-0.8,0-1.4-0.2-1.9-0.7C65.4,216,65.1,215.4,65.1,214.7z"/>
<path class="st44" d="M58,164.4l1.1-0.1c0.1,0.5,0.3,0.9,0.6,1.2c0.3,0.3,0.7,0.4,1.1,0.4c0.5,0,0.9-0.2,1.3-0.6
	c0.4-0.4,0.5-0.9,0.5-1.5c0-0.6-0.2-1.1-0.5-1.4c-0.3-0.4-0.8-0.5-1.3-0.5c-0.3,0-0.6,0.1-0.9,0.2c-0.3,0.2-0.5,0.4-0.6,0.6l-1-0.1
	l0.8-4.4h4.3v1h-3.4l-0.5,2.3c0.5-0.4,1-0.5,1.6-0.5c0.8,0,1.4,0.3,1.9,0.8c0.5,0.5,0.8,1.2,0.8,2c0,0.8-0.2,1.4-0.7,2
	c-0.6,0.7-1.3,1-2.2,1c-0.8,0-1.4-0.2-1.9-0.7C58.4,165.7,58.1,165.1,58,164.4z M65.1,162.4c0-1,0.1-1.8,0.3-2.5
	c0.2-0.6,0.5-1.1,0.9-1.4c0.4-0.3,0.9-0.5,1.6-0.5c0.5,0,0.9,0.1,1.2,0.3c0.4,0.2,0.6,0.5,0.9,0.8c0.2,0.3,0.4,0.8,0.5,1.3
	s0.2,1.2,0.2,2c0,1-0.1,1.8-0.3,2.4c-0.2,0.6-0.5,1.1-0.9,1.4c-0.4,0.3-0.9,0.5-1.6,0.5c-0.8,0-1.5-0.3-2-0.9
	C65.3,165.2,65.1,164,65.1,162.4z M66.1,162.4c0,1.4,0.2,2.3,0.5,2.8s0.7,0.7,1.2,0.7c0.5,0,0.9-0.2,1.2-0.7
	c0.3-0.5,0.5-1.4,0.5-2.8c0-1.4-0.2-2.4-0.5-2.8c-0.3-0.5-0.7-0.7-1.2-0.7c-0.5,0-0.9,0.2-1.2,0.6C66.3,160,66.1,161,66.1,162.4z"/>
<path class="st44" d="M58.1,108.8v-1h5.6v0.8c-0.5,0.6-1.1,1.4-1.6,2.3c-0.5,1-0.9,1.9-1.2,3c-0.2,0.7-0.4,1.5-0.4,2.4h-1.1
	c0-0.7,0.1-1.5,0.4-2.5c0.3-1,0.6-1.9,1.1-2.8c0.5-0.9,1-1.6,1.5-2.2H58.1z M65.1,114l1.1-0.1c0.1,0.5,0.3,0.9,0.6,1.2
	c0.3,0.3,0.7,0.4,1.1,0.4c0.5,0,0.9-0.2,1.3-0.6s0.5-0.9,0.5-1.5c0-0.6-0.2-1.1-0.5-1.4c-0.3-0.4-0.8-0.5-1.3-0.5
	c-0.3,0-0.6,0.1-0.9,0.2c-0.3,0.2-0.5,0.4-0.6,0.6l-1-0.1l0.8-4.4h4.3v1h-3.4l-0.5,2.3c0.5-0.4,1-0.5,1.6-0.5c0.8,0,1.4,0.3,1.9,0.8
	c0.5,0.5,0.8,1.2,0.8,2c0,0.8-0.2,1.4-0.7,2c-0.6,0.7-1.3,1-2.2,1c-0.8,0-1.4-0.2-1.9-0.7C65.4,115.3,65.1,114.7,65.1,114z"/>
<path class="st44" d="M55,65.9h-1v-6.7c-0.3,0.2-0.6,0.5-1,0.7c-0.4,0.2-0.8,0.4-1.1,0.5v-1c0.6-0.3,1.1-0.6,1.5-1
	c0.4-0.4,0.8-0.8,1-1.2H55V65.9z M58,61.7c0-1,0.1-1.8,0.3-2.5c0.2-0.6,0.5-1.1,0.9-1.4c0.4-0.3,0.9-0.5,1.6-0.5
	c0.5,0,0.9,0.1,1.2,0.3c0.4,0.2,0.6,0.5,0.9,0.8c0.2,0.3,0.4,0.8,0.5,1.3c0.1,0.5,0.2,1.2,0.2,2c0,1-0.1,1.8-0.3,2.4
	c-0.2,0.6-0.5,1.1-0.9,1.4c-0.4,0.3-0.9,0.5-1.6,0.5c-0.8,0-1.5-0.3-2-0.9C58.3,64.5,58,63.3,58,61.7z M59.1,61.7
	c0,1.4,0.2,2.3,0.5,2.8c0.3,0.5,0.7,0.7,1.2,0.7c0.5,0,0.9-0.2,1.2-0.7c0.3-0.5,0.5-1.4,0.5-2.8c0-1.4-0.2-2.4-0.5-2.8
	c-0.3-0.5-0.7-0.7-1.2-0.7c-0.5,0-0.9,0.2-1.2,0.6C59.3,59.3,59.1,60.3,59.1,61.7z M65.1,61.7c0-1,0.1-1.8,0.3-2.5
	c0.2-0.6,0.5-1.1,0.9-1.4c0.4-0.3,0.9-0.5,1.6-0.5c0.5,0,0.9,0.1,1.2,0.3c0.4,0.2,0.6,0.5,0.9,0.8c0.2,0.3,0.4,0.8,0.5,1.3
	c0.1,0.5,0.2,1.2,0.2,2c0,1-0.1,1.8-0.3,2.4c-0.2,0.6-0.5,1.1-0.9,1.4c-0.4,0.3-0.9,0.5-1.6,0.5c-0.8,0-1.5-0.3-2-0.9
	C65.3,64.5,65.1,63.3,65.1,61.7z M66.1,61.7c0,1.4,0.2,2.3,0.5,2.8s0.7,0.7,1.2,0.7c0.5,0,0.9-0.2,1.2-0.7c0.3-0.5,0.5-1.4,0.5-2.8
	c0-1.4-0.2-2.4-0.5-2.8c-0.3-0.5-0.7-0.7-1.2-0.7c-0.5,0-0.9,0.2-1.2,0.6C66.3,59.3,66.1,60.3,66.1,61.7z"/>
<path class="st44" d="M85,291.9l0.7,0.7l-4,4c-0.2-0.2-0.3-0.4-0.4-0.6c-0.2-0.4-0.3-0.8-0.3-1.3c0-0.5,0-1.1,0.1-1.9
	c0.1-1.2,0.1-2.1,0-2.6c-0.1-0.6-0.3-1-0.5-1.2c-0.3-0.3-0.6-0.4-1.1-0.4c-0.4,0-0.8,0.2-1.1,0.5c-0.4,0.4-0.5,0.8-0.5,1.2
	c0,0.4,0.2,0.8,0.6,1.2l-0.8,0.7c-0.5-0.6-0.8-1.3-0.7-1.9c0-0.6,0.4-1.3,0.9-1.8c0.6-0.6,1.2-0.9,1.9-0.9s1.2,0.2,1.7,0.7
	c0.2,0.2,0.4,0.5,0.6,0.9c0.1,0.3,0.2,0.7,0.2,1.2c0,0.5,0,1.2-0.1,2.2c-0.1,0.8-0.1,1.4-0.1,1.6c0,0.3,0,0.5,0.1,0.7L85,291.9z
	 M83.8,288.6c-0.7-0.7-1.2-1.4-1.5-2c-0.3-0.6-0.4-1.1-0.4-1.7c0.1-0.5,0.3-1,0.8-1.5c0.3-0.3,0.7-0.5,1-0.7c0.4-0.1,0.8-0.1,1.2,0
	c0.4,0.1,0.8,0.3,1.3,0.5c0.4,0.3,1,0.7,1.6,1.3c0.7,0.7,1.2,1.4,1.5,1.9c0.3,0.6,0.4,1.1,0.4,1.7c-0.1,0.5-0.3,1-0.8,1.5
	c-0.6,0.6-1.3,0.8-2,0.8C85.9,290.4,84.9,289.8,83.8,288.6z M84.5,287.9c1,1,1.8,1.5,2.3,1.6c0.6,0.1,1,0,1.4-0.4
	c0.3-0.3,0.5-0.8,0.4-1.4c-0.1-0.6-0.6-1.3-1.6-2.3c-1-1-1.8-1.5-2.3-1.6c-0.6-0.1-1,0-1.4,0.4c-0.3,0.3-0.5,0.8-0.4,1.2
	C83,286,83.5,286.9,84.5,287.9z M88.7,283.7c-0.7-0.7-1.2-1.4-1.5-2c-0.3-0.6-0.4-1.1-0.4-1.7c0.1-0.5,0.3-1,0.8-1.5
	c0.3-0.3,0.7-0.5,1-0.7c0.4-0.1,0.8-0.1,1.2,0c0.4,0.1,0.8,0.3,1.3,0.5s1,0.7,1.6,1.3c0.7,0.7,1.2,1.4,1.5,1.9
	c0.3,0.6,0.4,1.1,0.4,1.7c-0.1,0.5-0.3,1-0.8,1.5c-0.6,0.6-1.3,0.8-2,0.8C90.9,285.4,89.9,284.8,88.7,283.7z M89.5,282.9
	c1,1,1.8,1.5,2.3,1.6c0.6,0.1,1,0,1.4-0.4c0.3-0.3,0.5-0.8,0.4-1.4c-0.1-0.6-0.6-1.3-1.6-2.3c-1-1-1.8-1.5-2.3-1.6
	c-0.6-0.1-1,0-1.4,0.4c-0.3,0.3-0.5,0.8-0.4,1.2C87.9,281.1,88.5,281.9,89.5,282.9z M95.1,280.1l0.7-0.9c0.4,0.3,0.9,0.5,1.3,0.5
	c0.4,0,0.8-0.2,1.1-0.5c0.4-0.4,0.5-0.8,0.5-1.3s-0.3-1-0.7-1.4c-0.4-0.4-0.9-0.6-1.4-0.6c-0.5,0-0.9,0.2-1.3,0.6
	c-0.2,0.2-0.4,0.5-0.5,0.8c-0.1,0.3-0.1,0.6,0,0.9l-0.8,0.6l-2.5-3.7l3-3l0.7,0.7l-2.4,2.4l1.3,2c0.1-0.6,0.4-1.1,0.8-1.5
	c0.5-0.5,1.2-0.8,1.9-0.8c0.7,0,1.4,0.3,2,0.9c0.5,0.5,0.9,1.2,1,1.9c0.1,0.9-0.2,1.6-0.9,2.3c-0.6,0.6-1.2,0.9-1.8,0.9
	C96.2,280.8,95.6,280.6,95.1,280.1z"/>
<path class="st44" d="M108.6,291.9l0.7,0.7l-4,4c-0.2-0.2-0.3-0.4-0.4-0.6c-0.2-0.4-0.3-0.8-0.3-1.3c0-0.5,0-1.1,0.1-1.9
	c0.1-1.2,0.1-2.1,0-2.6c-0.1-0.6-0.3-1-0.5-1.2c-0.3-0.3-0.6-0.4-1.1-0.4c-0.4,0-0.8,0.2-1.1,0.5c-0.4,0.4-0.5,0.8-0.5,1.2
	c0,0.4,0.2,0.8,0.6,1.2l-0.8,0.7c-0.5-0.6-0.8-1.3-0.7-1.9c0-0.6,0.4-1.3,0.9-1.8c0.6-0.6,1.2-0.9,1.9-0.9c0.7,0,1.2,0.2,1.7,0.7
	c0.2,0.2,0.4,0.5,0.6,0.9c0.1,0.3,0.2,0.7,0.2,1.2c0,0.5,0,1.2-0.1,2.2c-0.1,0.8-0.1,1.4-0.1,1.6c0,0.3,0,0.5,0.1,0.7L108.6,291.9z
	 M107.4,288.6c-0.7-0.7-1.2-1.4-1.5-2c-0.3-0.6-0.4-1.1-0.4-1.7c0.1-0.5,0.3-1,0.8-1.5c0.3-0.3,0.7-0.5,1-0.7c0.4-0.1,0.8-0.1,1.2,0
	c0.4,0.1,0.8,0.3,1.3,0.5c0.4,0.3,1,0.7,1.6,1.3c0.7,0.7,1.2,1.4,1.5,1.9c0.3,0.6,0.4,1.1,0.4,1.7c-0.1,0.5-0.3,1-0.8,1.5
	c-0.6,0.6-1.3,0.8-2,0.8C109.5,290.4,108.5,289.8,107.4,288.6z M108.1,287.9c1,1,1.8,1.5,2.3,1.6c0.6,0.1,1,0,1.4-0.4
	c0.3-0.3,0.5-0.8,0.4-1.4c-0.1-0.6-0.6-1.3-1.6-2.3c-1-1-1.8-1.5-2.3-1.6c-0.6-0.1-1,0-1.4,0.4c-0.3,0.3-0.5,0.8-0.4,1.2
	C106.6,286,107.1,286.9,108.1,287.9z M112.3,283.7c-0.7-0.7-1.2-1.4-1.5-2c-0.3-0.6-0.4-1.1-0.4-1.7c0.1-0.5,0.3-1,0.8-1.5
	c0.3-0.3,0.7-0.5,1-0.7c0.4-0.1,0.8-0.1,1.2,0c0.4,0.1,0.8,0.3,1.3,0.5s1,0.7,1.6,1.3c0.7,0.7,1.2,1.4,1.5,1.9
	c0.3,0.6,0.4,1.1,0.4,1.7c-0.1,0.5-0.3,1-0.8,1.5c-0.6,0.6-1.3,0.8-2,0.8C114.5,285.4,113.5,284.8,112.3,283.7z M113.1,282.9
	c1,1,1.8,1.5,2.3,1.6c0.6,0.1,1,0,1.4-0.4c0.3-0.3,0.5-0.8,0.4-1.4c-0.1-0.6-0.6-1.3-1.6-2.3c-1-1-1.8-1.5-2.3-1.6
	c-0.6-0.1-1,0-1.4,0.4c-0.3,0.3-0.5,0.8-0.4,1.2C111.5,281.1,112.1,281.9,113.1,282.9z M119.5,273.3l-0.7,0.8
	c-0.4-0.2-0.7-0.3-0.9-0.4c-0.4,0-0.8,0.1-1.1,0.4c-0.2,0.2-0.4,0.5-0.4,0.8c-0.1,0.4,0,0.8,0.2,1.3c0.2,0.5,0.6,1,1.2,1.6
	c-0.1-0.4-0.1-0.9,0-1.3c0.1-0.4,0.3-0.7,0.6-1c0.5-0.5,1.1-0.7,1.8-0.7c0.7,0,1.4,0.3,1.9,0.9c0.4,0.4,0.7,0.8,0.8,1.3
	c0.2,0.5,0.2,1,0.1,1.4c-0.1,0.5-0.4,0.9-0.7,1.2c-0.6,0.6-1.4,0.9-2.2,0.8c-0.8-0.1-1.8-0.6-2.8-1.7c-1.2-1.2-1.8-2.3-1.9-3.2
	c-0.1-0.8,0.2-1.6,0.8-2.2c0.5-0.5,1-0.7,1.6-0.8C118.5,272.7,119,272.8,119.5,273.3z M119.1,278.9c0.3,0.3,0.6,0.5,0.9,0.6
	c0.3,0.1,0.7,0.1,1,0.1c0.3-0.1,0.6-0.2,0.8-0.4c0.3-0.3,0.5-0.7,0.4-1.2c0-0.5-0.3-0.9-0.7-1.4c-0.4-0.4-0.9-0.6-1.3-0.7
	c-0.5,0-0.9,0.1-1.2,0.5c-0.3,0.3-0.5,0.7-0.5,1.2C118.5,278.1,118.7,278.5,119.1,278.9z"/>
<path class="st44" d="M132.2,291.9l0.7,0.7l-4,4c-0.2-0.2-0.3-0.4-0.4-0.6c-0.2-0.4-0.3-0.8-0.3-1.3c0-0.5,0-1.1,0.1-1.9
	c0.1-1.2,0.1-2.1,0-2.6c-0.1-0.6-0.3-1-0.5-1.2c-0.3-0.3-0.6-0.4-1.1-0.4c-0.4,0-0.8,0.2-1.1,0.5c-0.4,0.4-0.5,0.8-0.5,1.2
	c0,0.4,0.2,0.8,0.6,1.2l-0.8,0.7c-0.5-0.6-0.8-1.3-0.7-1.9c0-0.6,0.4-1.3,0.9-1.8c0.6-0.6,1.2-0.9,1.9-0.9c0.7,0,1.2,0.2,1.7,0.7
	c0.2,0.2,0.4,0.5,0.6,0.9c0.1,0.3,0.2,0.7,0.2,1.2c0,0.5,0,1.2-0.1,2.2c-0.1,0.8-0.1,1.4-0.1,1.6c0,0.3,0,0.5,0.1,0.7L132.2,291.9z
	 M131,288.6c-0.7-0.7-1.2-1.4-1.5-2c-0.3-0.6-0.4-1.1-0.4-1.7c0.1-0.5,0.3-1,0.8-1.5c0.3-0.3,0.7-0.5,1-0.7c0.4-0.1,0.8-0.1,1.2,0
	c0.4,0.1,0.8,0.3,1.3,0.5c0.4,0.3,1,0.7,1.6,1.3c0.7,0.7,1.2,1.4,1.5,1.9c0.3,0.6,0.4,1.1,0.4,1.7c-0.1,0.5-0.3,1-0.8,1.5
	c-0.6,0.6-1.3,0.8-2,0.8C133.1,290.4,132.1,289.8,131,288.6z M131.7,287.9c1,1,1.8,1.5,2.3,1.6c0.6,0.1,1,0,1.4-0.4
	c0.3-0.3,0.5-0.8,0.4-1.4c-0.1-0.6-0.6-1.3-1.6-2.3c-1-1-1.8-1.5-2.3-1.6c-0.6-0.1-1,0-1.4,0.4c-0.3,0.3-0.5,0.8-0.4,1.2
	C130.2,286,130.7,286.9,131.7,287.9z M135.9,283.7c-0.7-0.7-1.2-1.4-1.5-2c-0.3-0.6-0.4-1.1-0.4-1.7c0.1-0.5,0.3-1,0.8-1.5
	c0.3-0.3,0.7-0.5,1-0.7c0.4-0.1,0.8-0.1,1.2,0c0.4,0.1,0.8,0.3,1.3,0.5s1,0.7,1.6,1.3c0.7,0.7,1.2,1.4,1.5,1.9
	c0.3,0.6,0.4,1.1,0.4,1.7c-0.1,0.5-0.3,1-0.8,1.5c-0.6,0.6-1.3,0.8-2,0.8C138.1,285.4,137.1,284.8,135.9,283.7z M136.7,282.9
	c1,1,1.8,1.5,2.3,1.6c0.6,0.1,1,0,1.4-0.4c0.3-0.3,0.5-0.8,0.4-1.4c-0.1-0.6-0.6-1.3-1.6-2.3c-1-1-1.8-1.5-2.3-1.6
	c-0.6-0.1-1,0-1.4,0.4c-0.3,0.3-0.5,0.8-0.4,1.2C135.1,281.1,135.7,281.9,136.7,282.9z M138.6,276.4l-0.7-0.7l3.9-3.9l0.6,0.6
	c0,0.8,0.2,1.7,0.5,2.8c0.3,1.1,0.7,2,1.2,3c0.4,0.7,0.8,1.3,1.4,2l-0.8,0.8c-0.5-0.5-1-1.2-1.5-2c-0.5-0.9-0.9-1.8-1.2-2.7
	c-0.3-1-0.5-1.9-0.5-2.7L138.6,276.4z"/>
<path class="st44" d="M155.8,291.9l0.7,0.7l-4,4c-0.2-0.2-0.3-0.4-0.4-0.6c-0.2-0.4-0.3-0.8-0.3-1.3c0-0.5,0-1.1,0.1-1.9
	c0.1-1.2,0.1-2.1,0-2.6c-0.1-0.6-0.3-1-0.5-1.2c-0.3-0.3-0.6-0.4-1.1-0.4c-0.4,0-0.8,0.2-1.1,0.5c-0.4,0.4-0.5,0.8-0.5,1.2
	c0,0.4,0.2,0.8,0.6,1.2l-0.8,0.7c-0.5-0.6-0.8-1.3-0.7-1.9c0-0.6,0.4-1.3,0.9-1.8c0.6-0.6,1.2-0.9,1.9-0.9s1.2,0.2,1.7,0.7
	c0.2,0.2,0.4,0.5,0.6,0.9c0.1,0.3,0.2,0.7,0.2,1.2c0,0.5,0,1.2-0.1,2.2c-0.1,0.8-0.1,1.4-0.1,1.6c0,0.3,0,0.5,0.1,0.7L155.8,291.9z
	 M154.6,288.6c-0.7-0.7-1.2-1.4-1.5-2c-0.3-0.6-0.4-1.1-0.4-1.7c0.1-0.5,0.3-1,0.8-1.5c0.3-0.3,0.7-0.5,1-0.7c0.4-0.1,0.8-0.1,1.2,0
	c0.4,0.1,0.8,0.3,1.3,0.5c0.4,0.3,1,0.7,1.6,1.3c0.7,0.7,1.2,1.4,1.5,1.9c0.3,0.6,0.4,1.1,0.4,1.7c-0.1,0.5-0.3,1-0.8,1.5
	c-0.6,0.6-1.3,0.8-2,0.8C156.7,290.4,155.7,289.8,154.6,288.6z M155.3,287.9c1,1,1.8,1.5,2.3,1.6c0.6,0.1,1,0,1.4-0.4
	c0.3-0.3,0.5-0.8,0.4-1.4c-0.1-0.6-0.6-1.3-1.6-2.3c-1-1-1.8-1.5-2.3-1.6c-0.6-0.1-1,0-1.4,0.4c-0.3,0.3-0.5,0.8-0.4,1.2
	C153.8,286,154.3,286.9,155.3,287.9z M159.5,283.7c-0.7-0.7-1.2-1.4-1.5-2c-0.3-0.6-0.4-1.1-0.4-1.7c0.1-0.5,0.3-1,0.8-1.5
	c0.3-0.3,0.7-0.5,1-0.7c0.4-0.1,0.8-0.1,1.2,0c0.4,0.1,0.8,0.3,1.3,0.5c0.4,0.3,1,0.7,1.6,1.3c0.7,0.7,1.2,1.4,1.5,1.9
	c0.3,0.6,0.4,1.1,0.4,1.7c-0.1,0.5-0.3,1-0.8,1.5c-0.6,0.6-1.3,0.8-2,0.8C161.7,285.4,160.7,284.8,159.5,283.7z M160.3,282.9
	c1,1,1.8,1.5,2.3,1.6c0.6,0.1,1,0,1.4-0.4c0.3-0.3,0.5-0.8,0.4-1.4c-0.1-0.6-0.6-1.3-1.6-2.3c-1-1-1.8-1.5-2.3-1.6
	c-0.6-0.1-1,0-1.4,0.4c-0.3,0.3-0.5,0.8-0.4,1.2C158.7,281.1,159.3,281.9,160.3,282.9z M165.3,277.3c-0.4,0.2-0.8,0.3-1.2,0.2
	c-0.4-0.1-0.7-0.2-1-0.5c-0.4-0.4-0.7-1-0.6-1.6c0-0.6,0.3-1.2,0.8-1.7c0.5-0.5,1.1-0.8,1.7-0.8s1.2,0.2,1.6,0.6
	c0.3,0.3,0.4,0.6,0.5,1s0,0.7-0.2,1.2c0.5-0.3,1-0.3,1.4-0.3c0.5,0.1,0.9,0.3,1.3,0.7c0.5,0.5,0.8,1.1,0.8,1.9c0,0.7-0.3,1.4-0.9,2
	c-0.6,0.6-1.3,0.9-2,0.9s-1.3-0.2-1.9-0.8c-0.4-0.4-0.6-0.8-0.7-1.3C164.9,278.2,165.1,277.7,165.3,277.3z M163.9,276.2
	c0.3,0.3,0.6,0.4,1,0.4c0.4,0,0.7-0.2,1-0.5c0.3-0.3,0.4-0.6,0.4-1c0-0.4-0.1-0.7-0.4-1c-0.3-0.3-0.6-0.4-1-0.4
	c-0.4,0-0.7,0.1-1,0.4c-0.3,0.3-0.4,0.6-0.4,1C163.5,275.6,163.6,275.9,163.9,276.2z M166.5,279.2c0.2,0.2,0.5,0.4,0.8,0.5
	c0.3,0.1,0.6,0.1,0.9,0c0.3-0.1,0.6-0.2,0.8-0.5c0.4-0.4,0.5-0.8,0.5-1.2c0-0.5-0.2-0.9-0.5-1.2c-0.4-0.4-0.8-0.5-1.2-0.5
	s-0.9,0.2-1.2,0.5c-0.4,0.4-0.5,0.8-0.5,1.2C166,278.4,166.1,278.8,166.5,279.2z"/>
<path class="st44" d="M179.4,291.9l0.7,0.7l-4,4c-0.2-0.2-0.3-0.4-0.4-0.6c-0.2-0.4-0.3-0.8-0.3-1.3c0-0.5,0-1.1,0.1-1.9
	c0.1-1.2,0.1-2.1,0-2.6c-0.1-0.6-0.3-1-0.5-1.2c-0.3-0.3-0.6-0.4-1.1-0.4c-0.4,0-0.8,0.2-1.1,0.5c-0.4,0.4-0.5,0.8-0.5,1.2
	c0,0.4,0.2,0.8,0.6,1.2l-0.8,0.7c-0.5-0.6-0.8-1.3-0.7-1.9c0-0.6,0.4-1.3,0.9-1.8c0.6-0.6,1.2-0.9,1.9-0.9c0.7,0,1.2,0.2,1.7,0.7
	c0.2,0.2,0.4,0.5,0.6,0.9c0.1,0.3,0.2,0.7,0.2,1.2c0,0.5,0,1.2-0.1,2.2c-0.1,0.8-0.1,1.4-0.1,1.6c0,0.3,0,0.5,0.1,0.7L179.4,291.9z
	 M178.2,288.6c-0.7-0.7-1.2-1.4-1.5-2c-0.3-0.6-0.4-1.1-0.4-1.7c0.1-0.5,0.3-1,0.8-1.5c0.3-0.3,0.7-0.5,1-0.7c0.4-0.1,0.8-0.1,1.2,0
	c0.4,0.1,0.8,0.3,1.3,0.5c0.4,0.3,1,0.7,1.6,1.3c0.7,0.7,1.2,1.4,1.5,1.9c0.3,0.6,0.4,1.1,0.4,1.7c-0.1,0.5-0.3,1-0.8,1.5
	c-0.6,0.6-1.3,0.8-2,0.8C180.3,290.4,179.3,289.8,178.2,288.6z M178.9,287.9c1,1,1.8,1.5,2.3,1.6c0.6,0.1,1,0,1.4-0.4
	c0.3-0.3,0.5-0.8,0.4-1.4c-0.1-0.6-0.6-1.3-1.6-2.3c-1-1-1.8-1.5-2.3-1.6c-0.6-0.1-1,0-1.4,0.4c-0.3,0.3-0.5,0.8-0.4,1.2
	C177.4,286,177.9,286.9,178.9,287.9z M183.1,283.7c-0.7-0.7-1.2-1.4-1.5-2c-0.3-0.6-0.4-1.1-0.4-1.7c0.1-0.5,0.3-1,0.8-1.5
	c0.3-0.3,0.7-0.5,1-0.7c0.4-0.1,0.8-0.1,1.2,0c0.4,0.1,0.8,0.3,1.3,0.5c0.4,0.3,1,0.7,1.6,1.3c0.7,0.7,1.2,1.4,1.5,1.9
	c0.3,0.6,0.4,1.1,0.4,1.7c-0.1,0.5-0.3,1-0.8,1.5c-0.6,0.6-1.3,0.8-2,0.8C185.3,285.4,184.3,284.8,183.1,283.7z M183.9,282.9
	c1,1,1.8,1.5,2.3,1.6c0.6,0.1,1,0,1.4-0.4c0.3-0.3,0.5-0.8,0.4-1.4c-0.1-0.6-0.6-1.3-1.6-2.3c-1-1-1.8-1.5-2.3-1.6
	c-0.6-0.1-1,0-1.4,0.4c-0.3,0.3-0.5,0.8-0.4,1.2C182.3,281.1,182.9,281.9,183.9,282.9z M189.8,280.2l0.7-0.8
	c0.4,0.3,0.8,0.4,1.1,0.4c0.3,0,0.6-0.2,0.9-0.4c0.2-0.2,0.4-0.5,0.4-0.8c0.1-0.3,0.1-0.6,0-0.9c-0.1-0.3-0.2-0.6-0.4-1
	c-0.2-0.4-0.5-0.7-0.8-1c0,0-0.1-0.1-0.2-0.2c0.1,0.4,0.1,0.8,0,1.2c-0.1,0.4-0.3,0.8-0.6,1.1c-0.5,0.5-1.1,0.8-1.8,0.7
	c-0.7,0-1.4-0.3-2-0.9c-0.6-0.6-0.9-1.3-1-2c0-0.7,0.3-1.4,0.8-1.9c0.4-0.4,0.9-0.6,1.4-0.8c0.5-0.1,1.1-0.1,1.7,0.2
	c0.6,0.2,1.2,0.7,2,1.4c0.8,0.8,1.3,1.5,1.6,2.1c0.3,0.6,0.4,1.2,0.3,1.8c-0.1,0.6-0.4,1.1-0.8,1.5c-0.5,0.5-1,0.7-1.6,0.8
	C190.9,280.8,190.3,280.6,189.8,280.2z M190.1,274.5c-0.4-0.4-0.9-0.7-1.4-0.7c-0.5,0-0.9,0.1-1.2,0.4c-0.3,0.3-0.5,0.8-0.5,1.3
	c0,0.5,0.3,1,0.7,1.4c0.4,0.4,0.8,0.6,1.3,0.6c0.5,0,0.9-0.2,1.2-0.5c0.3-0.3,0.5-0.8,0.5-1.2C190.8,275.3,190.6,274.9,190.1,274.5z
	"/>
<path class="st44" d="M203,291.9l0.7,0.7l-4,4c-0.2-0.2-0.3-0.4-0.4-0.6c-0.2-0.4-0.3-0.8-0.3-1.3c0-0.5,0-1.1,0.1-1.9
	c0.1-1.2,0.1-2.1,0-2.6c-0.1-0.6-0.3-1-0.5-1.2c-0.3-0.3-0.6-0.4-1.1-0.4c-0.4,0-0.8,0.2-1.1,0.5c-0.4,0.4-0.5,0.8-0.5,1.2
	c0,0.4,0.2,0.8,0.6,1.2l-0.8,0.7c-0.5-0.6-0.8-1.3-0.7-1.9c0-0.6,0.4-1.3,0.9-1.8c0.6-0.6,1.2-0.9,1.9-0.9c0.7,0,1.2,0.2,1.7,0.7
	c0.2,0.2,0.4,0.5,0.6,0.9c0.1,0.3,0.2,0.7,0.2,1.2c0,0.5,0,1.2-0.1,2.2c-0.1,0.8-0.1,1.4-0.1,1.6c0,0.3,0,0.5,0.1,0.7L203,291.9z
	 M201.8,288.6c-0.7-0.7-1.2-1.4-1.5-2c-0.3-0.6-0.4-1.1-0.4-1.7c0.1-0.5,0.3-1,0.8-1.5c0.3-0.3,0.7-0.5,1-0.7c0.4-0.1,0.8-0.1,1.2,0
	c0.4,0.1,0.8,0.3,1.3,0.5c0.4,0.3,1,0.7,1.6,1.3c0.7,0.7,1.2,1.4,1.5,1.9c0.3,0.6,0.4,1.1,0.4,1.7c-0.1,0.5-0.3,1-0.8,1.5
	c-0.6,0.6-1.3,0.8-2,0.8C203.9,290.4,202.9,289.8,201.8,288.6z M202.5,287.9c1,1,1.8,1.5,2.3,1.6c0.6,0.1,1,0,1.4-0.4
	c0.3-0.3,0.5-0.8,0.4-1.4c-0.1-0.6-0.6-1.3-1.6-2.3c-1-1-1.8-1.5-2.3-1.6c-0.6-0.1-1,0-1.4,0.4c-0.3,0.3-0.5,0.8-0.4,1.2
	C201,286,201.5,286.9,202.5,287.9z M212.5,283.9l-0.7,0.7l-4.8-4.8c0,0.4-0.1,0.8-0.2,1.2c-0.1,0.5-0.3,0.8-0.4,1.1l-0.7-0.7
	c0.2-0.6,0.3-1.2,0.4-1.8c0-0.6,0-1.1-0.1-1.5l0.5-0.5L212.5,283.9z M211.7,278.7c-0.7-0.7-1.2-1.4-1.5-2c-0.3-0.6-0.4-1.1-0.4-1.7
	c0.1-0.5,0.3-1,0.8-1.5c0.3-0.3,0.7-0.5,1-0.7c0.4-0.1,0.8-0.1,1.2,0c0.4,0.1,0.8,0.3,1.3,0.5c0.4,0.3,1,0.7,1.6,1.3
	c0.7,0.7,1.2,1.4,1.5,1.9c0.3,0.6,0.4,1.1,0.4,1.7c-0.1,0.5-0.3,1-0.8,1.5c-0.6,0.6-1.3,0.8-2,0.8
	C213.8,280.5,212.8,279.9,211.7,278.7z M212.4,278c1,1,1.8,1.5,2.3,1.6c0.6,0.1,1,0,1.4-0.4c0.3-0.3,0.5-0.8,0.4-1.4
	c-0.1-0.6-0.6-1.3-1.6-2.3c-1-1-1.8-1.5-2.3-1.6c-0.6-0.1-1,0-1.4,0.4c-0.3,0.3-0.5,0.8-0.4,1.2C210.9,276.1,211.4,277,212.4,278z"
	/>
<path class="st44" d="M226.6,291.9l0.7,0.7l-4,4c-0.2-0.2-0.3-0.4-0.4-0.6c-0.2-0.4-0.3-0.8-0.3-1.3c0-0.5,0-1.1,0.1-1.9
	c0.1-1.2,0.1-2.1,0-2.6c-0.1-0.6-0.3-1-0.5-1.2c-0.3-0.3-0.6-0.4-1.1-0.4c-0.4,0-0.8,0.2-1.1,0.5c-0.4,0.4-0.5,0.8-0.5,1.2
	c0,0.4,0.2,0.8,0.6,1.2l-0.8,0.7c-0.5-0.6-0.8-1.3-0.7-1.9c0-0.6,0.4-1.3,0.9-1.8c0.6-0.6,1.2-0.9,1.9-0.9c0.7,0,1.2,0.2,1.7,0.7
	c0.2,0.2,0.4,0.5,0.6,0.9c0.1,0.3,0.2,0.7,0.2,1.2c0,0.5,0,1.2-0.1,2.2c-0.1,0.8-0.1,1.4-0.1,1.6c0,0.3,0,0.5,0.1,0.7L226.6,291.9z
	 M225.4,288.6c-0.7-0.7-1.2-1.4-1.5-2c-0.3-0.6-0.4-1.1-0.4-1.7c0.1-0.5,0.3-1,0.8-1.5c0.3-0.3,0.7-0.5,1-0.7c0.4-0.1,0.8-0.1,1.2,0
	c0.4,0.1,0.8,0.3,1.3,0.5c0.4,0.3,1,0.7,1.6,1.3c0.7,0.7,1.2,1.4,1.5,1.9c0.3,0.6,0.4,1.1,0.4,1.7c-0.1,0.5-0.3,1-0.8,1.5
	c-0.6,0.6-1.3,0.8-2,0.8C227.5,290.4,226.5,289.8,225.4,288.6z M226.1,287.9c1,1,1.8,1.5,2.3,1.6c0.6,0.1,1,0,1.4-0.4
	c0.3-0.3,0.5-0.8,0.4-1.4c-0.1-0.6-0.6-1.3-1.6-2.3c-1-1-1.8-1.5-2.3-1.6c-0.6-0.1-1,0-1.4,0.4c-0.3,0.3-0.5,0.8-0.4,1.2
	C224.6,286,225.1,286.9,226.1,287.9z M236.1,283.9l-0.7,0.7l-4.8-4.8c0,0.4-0.1,0.8-0.2,1.2c-0.1,0.5-0.3,0.8-0.4,1.1l-0.7-0.7
	c0.2-0.6,0.3-1.2,0.4-1.8c0-0.6,0-1.1-0.1-1.5l0.5-0.5L236.1,283.9z M241.1,278.9l-0.7,0.7l-4.8-4.8c0,0.4-0.1,0.8-0.2,1.2
	c-0.1,0.5-0.3,0.8-0.4,1.1l-0.7-0.7c0.2-0.6,0.3-1.2,0.4-1.8c0-0.6,0-1.1-0.1-1.5l0.5-0.5L241.1,278.9z"/>
<path class="st44" d="M250.2,291.9l0.7,0.7l-4,4c-0.2-0.2-0.3-0.4-0.4-0.6c-0.2-0.4-0.3-0.8-0.3-1.3c0-0.5,0-1.1,0.1-1.9
	c0.1-1.2,0.1-2.1,0-2.6c-0.1-0.6-0.3-1-0.5-1.2c-0.3-0.3-0.6-0.4-1.1-0.4c-0.4,0-0.8,0.2-1.1,0.5c-0.4,0.4-0.5,0.8-0.5,1.2
	c0,0.4,0.2,0.8,0.6,1.2l-0.8,0.7c-0.5-0.6-0.8-1.3-0.7-1.9c0-0.6,0.4-1.3,0.9-1.8c0.6-0.6,1.2-0.9,1.9-0.9s1.2,0.2,1.7,0.7
	c0.2,0.2,0.4,0.5,0.6,0.9c0.1,0.3,0.2,0.7,0.2,1.2c0,0.5,0,1.2-0.1,2.2c-0.1,0.8-0.1,1.4-0.1,1.6c0,0.3,0,0.5,0.1,0.7L250.2,291.9z
	 M249,288.6c-0.7-0.7-1.2-1.4-1.5-2c-0.3-0.6-0.4-1.1-0.4-1.7c0.1-0.5,0.3-1,0.8-1.5c0.3-0.3,0.7-0.5,1-0.7c0.4-0.1,0.8-0.1,1.2,0
	c0.4,0.1,0.8,0.3,1.3,0.5c0.4,0.3,1,0.7,1.6,1.3c0.7,0.7,1.2,1.4,1.5,1.9c0.3,0.6,0.4,1.1,0.4,1.7c-0.1,0.5-0.3,1-0.8,1.5
	c-0.6,0.6-1.3,0.8-2,0.8C251.1,290.4,250.1,289.8,249,288.6z M249.7,287.9c1,1,1.8,1.5,2.3,1.6c0.6,0.1,1,0,1.4-0.4
	c0.3-0.3,0.5-0.8,0.4-1.4c-0.1-0.6-0.6-1.3-1.6-2.3c-1-1-1.8-1.5-2.3-1.6c-0.6-0.1-1,0-1.4,0.4c-0.3,0.3-0.5,0.8-0.4,1.2
	C248.2,286,248.7,286.9,249.7,287.9z M259.7,283.9l-0.7,0.7l-4.8-4.8c0,0.4-0.1,0.8-0.2,1.2c-0.1,0.5-0.3,0.8-0.4,1.1l-0.7-0.7
	c0.2-0.6,0.3-1.2,0.4-1.8c0-0.6,0-1.1-0.1-1.5l0.5-0.5L259.7,283.9z M265.1,277.1l0.7,0.7l-4,4c-0.2-0.2-0.3-0.4-0.4-0.6
	c-0.2-0.4-0.3-0.8-0.3-1.3c0-0.5,0-1.1,0.1-1.9c0.1-1.2,0.1-2.1,0-2.6c-0.1-0.6-0.3-1-0.5-1.2c-0.3-0.3-0.6-0.4-1.1-0.4
	c-0.4,0-0.8,0.2-1.1,0.5c-0.4,0.4-0.5,0.8-0.5,1.2c0,0.4,0.2,0.8,0.6,1.2l-0.8,0.7c-0.5-0.6-0.8-1.3-0.7-1.9c0-0.6,0.4-1.3,0.9-1.8
	c0.6-0.6,1.2-0.9,1.9-0.9s1.2,0.2,1.7,0.7c0.2,0.2,0.4,0.5,0.6,0.9c0.1,0.3,0.2,0.7,0.2,1.2c0,0.5,0,1.2-0.1,2.2
	c-0.1,0.8-0.1,1.4-0.1,1.6c0,0.3,0,0.5,0.1,0.7L265.1,277.1z"/>
<path class="st44" d="M273.8,291.9l0.7,0.7l-4,4c-0.2-0.2-0.3-0.4-0.4-0.6c-0.2-0.4-0.3-0.8-0.3-1.3c0-0.5,0-1.1,0.1-1.9
	c0.1-1.2,0.1-2.1,0-2.6c-0.1-0.6-0.3-1-0.5-1.2c-0.3-0.3-0.6-0.4-1.1-0.4c-0.4,0-0.8,0.2-1.1,0.5c-0.4,0.4-0.5,0.8-0.5,1.2
	c0,0.4,0.2,0.8,0.6,1.2l-0.8,0.7c-0.5-0.6-0.8-1.3-0.7-1.9c0-0.6,0.4-1.3,0.9-1.8c0.6-0.6,1.2-0.9,1.9-0.9c0.7,0,1.2,0.2,1.7,0.7
	c0.2,0.2,0.4,0.5,0.6,0.9c0.1,0.3,0.2,0.7,0.2,1.2c0,0.5,0,1.2-0.1,2.2c-0.1,0.8-0.1,1.4-0.1,1.6c0,0.3,0,0.5,0.1,0.7L273.8,291.9z
	 M272.6,288.6c-0.7-0.7-1.2-1.4-1.5-2c-0.3-0.6-0.4-1.1-0.4-1.7c0.1-0.5,0.3-1,0.8-1.5c0.3-0.3,0.7-0.5,1-0.7c0.4-0.1,0.8-0.1,1.2,0
	c0.4,0.1,0.8,0.3,1.3,0.5c0.4,0.3,1,0.7,1.6,1.3c0.7,0.7,1.2,1.4,1.5,1.9c0.3,0.6,0.4,1.1,0.4,1.7c-0.1,0.5-0.3,1-0.8,1.5
	c-0.6,0.6-1.3,0.8-2,0.8C274.7,290.4,273.7,289.8,272.6,288.6z M273.3,287.9c1,1,1.8,1.5,2.3,1.6c0.6,0.1,1,0,1.4-0.4
	c0.3-0.3,0.5-0.8,0.4-1.4c-0.1-0.6-0.6-1.3-1.6-2.3c-1-1-1.8-1.5-2.3-1.6c-0.6-0.1-1,0-1.4,0.4c-0.3,0.3-0.5,0.8-0.4,1.2
	C271.8,286,272.3,286.9,273.3,287.9z M283.3,283.9l-0.7,0.7l-4.8-4.8c0,0.4-0.1,0.8-0.2,1.2c-0.1,0.5-0.3,0.8-0.4,1.1l-0.7-0.7
	c0.2-0.6,0.3-1.2,0.4-1.8c0-0.6,0-1.1-0.1-1.5l0.5-0.5L283.3,283.9z M283.9,280.1l0.7-0.9c0.5,0.3,1,0.5,1.3,0.5
	c0.4,0,0.7-0.2,1-0.5c0.4-0.4,0.5-0.8,0.5-1.3s-0.2-0.9-0.5-1.3c-0.3-0.3-0.7-0.5-1.2-0.5c-0.4,0-0.8,0.2-1.2,0.5
	c-0.1,0.1-0.3,0.3-0.4,0.6l-0.6-0.8c0.1,0,0.1-0.1,0.1-0.1c0.3-0.3,0.5-0.7,0.6-1.1c0.1-0.4,0-0.8-0.4-1.2c-0.3-0.3-0.6-0.4-1-0.4
	c-0.4,0-0.7,0.1-1,0.4c-0.3,0.3-0.4,0.6-0.5,1c0,0.4,0.1,0.8,0.5,1.2l-0.9,0.6c-0.4-0.6-0.6-1.2-0.5-1.8c0-0.6,0.3-1.1,0.8-1.6
	c0.3-0.3,0.7-0.6,1.1-0.7c0.4-0.1,0.8-0.2,1.2-0.1c0.4,0.1,0.7,0.3,1,0.6c0.3,0.3,0.4,0.6,0.5,0.9c0.1,0.4,0,0.7-0.1,1.1
	c0.4-0.3,0.9-0.4,1.3-0.3c0.5,0.1,0.9,0.3,1.3,0.7c0.5,0.5,0.8,1.2,0.8,1.9c0,0.8-0.3,1.4-0.9,2c-0.5,0.5-1.1,0.8-1.8,0.9
	C285,280.8,284.4,280.6,283.9,280.1z"/>
<path class="st44" d="M297.4,291.9l0.7,0.7l-4,4c-0.2-0.2-0.3-0.4-0.4-0.6c-0.2-0.4-0.3-0.8-0.3-1.3c0-0.5,0-1.1,0.1-1.9
	c0.1-1.2,0.1-2.1,0-2.6c-0.1-0.6-0.3-1-0.5-1.2c-0.3-0.3-0.6-0.4-1.1-0.4c-0.4,0-0.8,0.2-1.1,0.5c-0.4,0.4-0.5,0.8-0.5,1.2
	s0.2,0.8,0.6,1.2l-0.8,0.7c-0.5-0.6-0.8-1.3-0.7-1.9c0-0.6,0.4-1.3,0.9-1.8c0.6-0.6,1.2-0.9,1.9-0.9s1.2,0.2,1.7,0.7
	c0.2,0.2,0.4,0.5,0.6,0.9c0.1,0.3,0.2,0.7,0.2,1.2c0,0.5,0,1.2-0.1,2.2c-0.1,0.8-0.1,1.4-0.1,1.6c0,0.3,0,0.5,0.1,0.7L297.4,291.9z
	 M296.2,288.6c-0.7-0.7-1.2-1.4-1.5-2c-0.3-0.6-0.4-1.1-0.4-1.7c0.1-0.5,0.3-1,0.8-1.5c0.3-0.3,0.7-0.5,1-0.7c0.4-0.1,0.8-0.1,1.2,0
	c0.4,0.1,0.8,0.3,1.3,0.5c0.4,0.3,1,0.7,1.6,1.3c0.7,0.7,1.2,1.4,1.5,1.9c0.3,0.6,0.4,1.1,0.4,1.7c-0.1,0.5-0.3,1-0.8,1.5
	c-0.6,0.6-1.3,0.8-2,0.8C298.3,290.4,297.3,289.8,296.2,288.6z M296.9,287.9c1,1,1.8,1.5,2.3,1.6c0.6,0.1,1,0,1.4-0.4
	c0.3-0.3,0.5-0.8,0.4-1.4c-0.1-0.6-0.6-1.3-1.6-2.3c-1-1-1.8-1.5-2.3-1.6c-0.6-0.1-1,0-1.4,0.4c-0.3,0.3-0.5,0.8-0.4,1.2
	C295.4,286,295.9,286.9,296.9,287.9z M306.9,283.9l-0.7,0.7l-4.8-4.8c0,0.4-0.1,0.8-0.2,1.2c-0.1,0.5-0.3,0.8-0.4,1.1l-0.7-0.7
	c0.2-0.6,0.3-1.2,0.4-1.8c0-0.6,0-1.1-0.1-1.5l0.5-0.5L306.9,283.9z M311.5,279.3l-1.5-1.5l-2.6,2.6l-0.7-0.7l-1.2-6.7l0.6-0.6
	l3.9,3.9l0.8-0.8l0.7,0.7l-0.8,0.8l1.5,1.5L311.5,279.3z M309.3,277.2l-2.7-2.7l0.8,4.6L309.3,277.2z"/>
<path class="st44" d="M321,291.9l0.7,0.7l-4,4c-0.2-0.2-0.3-0.4-0.4-0.6c-0.2-0.4-0.3-0.8-0.3-1.3c0-0.5,0-1.1,0.1-1.9
	c0.1-1.2,0.1-2.1,0-2.6c-0.1-0.6-0.3-1-0.5-1.2c-0.3-0.3-0.6-0.4-1.1-0.4c-0.4,0-0.8,0.2-1.1,0.5c-0.4,0.4-0.5,0.8-0.5,1.2
	c0,0.4,0.2,0.8,0.6,1.2l-0.8,0.7c-0.5-0.6-0.8-1.3-0.7-1.9c0-0.6,0.4-1.3,0.9-1.8c0.6-0.6,1.2-0.9,1.9-0.9c0.7,0,1.2,0.2,1.7,0.7
	c0.2,0.2,0.4,0.5,0.6,0.9c0.1,0.3,0.2,0.7,0.2,1.2c0,0.5,0,1.2-0.1,2.2c-0.1,0.8-0.1,1.4-0.1,1.6c0,0.3,0,0.5,0.1,0.7L321,291.9z
	 M319.8,288.6c-0.7-0.7-1.2-1.4-1.5-2c-0.3-0.6-0.4-1.1-0.4-1.7c0.1-0.5,0.3-1,0.8-1.5c0.3-0.3,0.7-0.5,1-0.7c0.4-0.1,0.8-0.1,1.2,0
	c0.4,0.1,0.8,0.3,1.3,0.5c0.4,0.3,1,0.7,1.6,1.3c0.7,0.7,1.2,1.4,1.5,1.9c0.3,0.6,0.4,1.1,0.4,1.7c-0.1,0.5-0.3,1-0.8,1.5
	c-0.6,0.6-1.3,0.8-2,0.8C322,290.4,320.9,289.8,319.8,288.6z M320.6,287.9c1,1,1.8,1.5,2.3,1.6c0.6,0.1,1,0,1.4-0.4
	c0.3-0.3,0.5-0.8,0.4-1.4c-0.1-0.6-0.6-1.3-1.6-2.3c-1-1-1.8-1.5-2.3-1.6c-0.6-0.1-1,0-1.4,0.4c-0.3,0.3-0.5,0.8-0.4,1.2
	C319,286,319.5,286.9,320.6,287.9z M330.5,283.9l-0.7,0.7l-4.8-4.8c0,0.4-0.1,0.8-0.2,1.2c-0.1,0.5-0.3,0.8-0.4,1.1l-0.7-0.7
	c0.2-0.6,0.3-1.2,0.4-1.8c0-0.6,0-1.1-0.1-1.5l0.5-0.5L330.5,283.9z M331.1,280.1l0.7-0.9c0.4,0.3,0.9,0.5,1.3,0.5
	c0.4,0,0.8-0.2,1.1-0.5c0.4-0.4,0.5-0.8,0.5-1.3s-0.3-1-0.7-1.4c-0.4-0.4-0.9-0.6-1.4-0.6c-0.5,0-0.9,0.2-1.3,0.6
	c-0.2,0.2-0.4,0.5-0.5,0.8c-0.1,0.3-0.1,0.6,0,0.9l-0.8,0.6l-2.5-3.7l3-3l0.7,0.7l-2.4,2.4l1.3,2c0.1-0.6,0.4-1.1,0.8-1.5
	c0.5-0.5,1.2-0.8,1.9-0.8c0.7,0,1.4,0.3,2,0.9c0.5,0.5,0.9,1.2,1,1.9c0.1,0.9-0.2,1.6-0.9,2.3c-0.6,0.6-1.2,0.9-1.8,0.9
	C332.3,280.8,331.7,280.6,331.1,280.1z"/>
<path class="st44" d="M344.6,291.9l0.7,0.7l-4,4c-0.2-0.2-0.3-0.4-0.4-0.6c-0.2-0.4-0.3-0.8-0.3-1.3c0-0.5,0-1.1,0.1-1.9
	c0.1-1.2,0.1-2.1,0-2.6c-0.1-0.6-0.3-1-0.5-1.2c-0.3-0.3-0.6-0.4-1.1-0.4c-0.4,0-0.8,0.2-1.1,0.5c-0.4,0.4-0.5,0.8-0.5,1.2
	c0,0.4,0.2,0.8,0.6,1.2l-0.8,0.7c-0.5-0.6-0.8-1.3-0.7-1.9c0-0.6,0.4-1.3,0.9-1.8c0.6-0.6,1.2-0.9,1.9-0.9c0.7,0,1.2,0.2,1.7,0.7
	c0.2,0.2,0.4,0.5,0.6,0.9c0.1,0.3,0.2,0.7,0.2,1.2c0,0.5,0,1.2-0.1,2.2c-0.1,0.8-0.1,1.4-0.1,1.6c0,0.3,0,0.5,0.1,0.7L344.6,291.9z
	 M343.4,288.6c-0.7-0.7-1.2-1.4-1.5-2c-0.3-0.6-0.4-1.1-0.4-1.7c0.1-0.5,0.3-1,0.8-1.5c0.3-0.3,0.7-0.5,1-0.7c0.4-0.1,0.8-0.1,1.2,0
	c0.4,0.1,0.8,0.3,1.3,0.5c0.4,0.3,1,0.7,1.6,1.3c0.7,0.7,1.2,1.4,1.5,1.9c0.3,0.6,0.4,1.1,0.4,1.7c-0.1,0.5-0.3,1-0.8,1.5
	c-0.6,0.6-1.3,0.8-2,0.8C345.6,290.4,344.5,289.8,343.4,288.6z M344.2,287.9c1,1,1.8,1.5,2.3,1.6c0.6,0.1,1,0,1.4-0.4
	c0.3-0.3,0.5-0.8,0.4-1.4c-0.1-0.6-0.6-1.3-1.6-2.3c-1-1-1.8-1.5-2.3-1.6c-0.6-0.1-1,0-1.4,0.4c-0.3,0.3-0.5,0.8-0.4,1.2
	C342.6,286,343.2,286.9,344.2,287.9z M354.1,283.9l-0.7,0.7l-4.8-4.8c0,0.4-0.1,0.8-0.2,1.2c-0.1,0.5-0.3,0.8-0.4,1.1l-0.7-0.7
	c0.2-0.6,0.3-1.2,0.4-1.8c0-0.6,0-1.1-0.1-1.5l0.5-0.5L354.1,283.9z M355.6,273.3l-0.7,0.8c-0.4-0.2-0.7-0.3-0.9-0.4
	c-0.4,0-0.8,0.1-1.1,0.4c-0.2,0.2-0.4,0.5-0.4,0.8c-0.1,0.4,0,0.8,0.2,1.3c0.2,0.5,0.6,1,1.2,1.6c-0.1-0.4-0.1-0.9,0-1.3
	c0.1-0.4,0.3-0.7,0.6-1c0.5-0.5,1.1-0.7,1.8-0.7c0.7,0,1.4,0.3,1.9,0.9c0.4,0.4,0.7,0.8,0.8,1.3c0.2,0.5,0.2,1,0.1,1.4
	c-0.1,0.5-0.4,0.9-0.7,1.2c-0.6,0.6-1.4,0.9-2.2,0.8c-0.8-0.1-1.8-0.6-2.8-1.7c-1.2-1.2-1.8-2.3-1.9-3.2c-0.1-0.8,0.2-1.6,0.8-2.2
	c0.5-0.5,1-0.7,1.6-0.8C354.5,272.7,355,272.8,355.6,273.3z M355.1,278.9c0.3,0.3,0.6,0.5,0.9,0.6c0.3,0.1,0.7,0.1,1,0.1
	c0.3-0.1,0.6-0.2,0.8-0.4c0.3-0.3,0.5-0.7,0.4-1.2c0-0.5-0.3-0.9-0.7-1.4c-0.4-0.4-0.9-0.6-1.3-0.7c-0.5,0-0.9,0.1-1.2,0.5
	c-0.3,0.3-0.5,0.7-0.5,1.2C354.6,278.1,354.8,278.5,355.1,278.9z"/>
<path class="st44" d="M368.2,291.9l0.7,0.7l-4,4c-0.2-0.2-0.3-0.4-0.4-0.6c-0.2-0.4-0.3-0.8-0.3-1.3c0-0.5,0-1.1,0.1-1.9
	c0.1-1.2,0.1-2.1,0-2.6c-0.1-0.6-0.3-1-0.5-1.2c-0.3-0.3-0.6-0.4-1.1-0.4c-0.4,0-0.8,0.2-1.1,0.5c-0.4,0.4-0.5,0.8-0.5,1.2
	c0,0.4,0.2,0.8,0.6,1.2l-0.8,0.7c-0.5-0.6-0.8-1.3-0.7-1.9c0-0.6,0.4-1.3,0.9-1.8c0.6-0.6,1.2-0.9,1.9-0.9c0.7,0,1.2,0.2,1.7,0.7
	c0.2,0.2,0.4,0.5,0.6,0.9c0.1,0.3,0.2,0.7,0.2,1.2c0,0.5,0,1.2-0.1,2.2c-0.1,0.8-0.1,1.4-0.1,1.6c0,0.3,0,0.5,0.1,0.7L368.2,291.9z
	 M367,288.6c-0.7-0.7-1.2-1.4-1.5-2c-0.3-0.6-0.4-1.1-0.4-1.7c0.1-0.5,0.3-1,0.8-1.5c0.3-0.3,0.7-0.5,1-0.7c0.4-0.1,0.8-0.1,1.2,0
	c0.4,0.1,0.8,0.3,1.3,0.5c0.4,0.3,1,0.7,1.6,1.3c0.7,0.7,1.2,1.4,1.5,1.9c0.3,0.6,0.4,1.1,0.4,1.7c-0.1,0.5-0.3,1-0.8,1.5
	c-0.6,0.6-1.3,0.8-2,0.8C369.2,290.4,368.1,289.8,367,288.6z M367.8,287.9c1,1,1.8,1.5,2.3,1.6c0.6,0.1,1,0,1.4-0.4
	c0.3-0.3,0.5-0.8,0.4-1.4c-0.1-0.6-0.6-1.3-1.6-2.3c-1-1-1.8-1.5-2.3-1.6c-0.6-0.1-1,0-1.4,0.4c-0.3,0.3-0.5,0.8-0.4,1.2
	C366.2,286,366.8,286.9,367.8,287.9z M377.7,283.9l-0.7,0.7l-4.8-4.8c0,0.4-0.1,0.8-0.2,1.2c-0.1,0.5-0.3,0.8-0.4,1.1l-0.7-0.7
	c0.2-0.6,0.3-1.2,0.4-1.8c0-0.6,0-1.1-0.1-1.5l0.5-0.5L377.7,283.9z M374.6,276.4l-0.7-0.7l3.9-3.9l0.6,0.6c0,0.8,0.2,1.7,0.5,2.8
	c0.3,1.1,0.7,2,1.2,3c0.4,0.7,0.8,1.3,1.4,2l-0.8,0.8c-0.5-0.5-1-1.2-1.5-2c-0.5-0.9-0.9-1.8-1.2-2.7c-0.3-1-0.5-1.9-0.5-2.7
	L374.6,276.4z"/>
<path class="st44" d="M391.8,291.9l0.7,0.7l-4,4c-0.2-0.2-0.3-0.4-0.4-0.6c-0.2-0.4-0.3-0.8-0.3-1.3c0-0.5,0-1.1,0.1-1.9
	c0.1-1.2,0.1-2.1,0-2.6c-0.1-0.6-0.3-1-0.5-1.2c-0.3-0.3-0.6-0.4-1.1-0.4c-0.4,0-0.8,0.2-1.1,0.5c-0.4,0.4-0.5,0.8-0.5,1.2
	c0,0.4,0.2,0.8,0.6,1.2l-0.8,0.7c-0.5-0.6-0.8-1.3-0.7-1.9c0-0.6,0.4-1.3,0.9-1.8c0.6-0.6,1.2-0.9,1.9-0.9c0.7,0,1.2,0.2,1.7,0.7
	c0.2,0.2,0.4,0.5,0.6,0.9c0.1,0.3,0.2,0.7,0.2,1.2c0,0.5,0,1.2-0.1,2.2c-0.1,0.8-0.1,1.4-0.1,1.6c0,0.3,0,0.5,0.1,0.7L391.8,291.9z
	 M390.6,288.6c-0.7-0.7-1.2-1.4-1.5-2c-0.3-0.6-0.4-1.1-0.4-1.7c0.1-0.5,0.3-1,0.8-1.5c0.3-0.3,0.7-0.5,1-0.7c0.4-0.1,0.8-0.1,1.2,0
	c0.4,0.1,0.8,0.3,1.3,0.5c0.4,0.3,1,0.7,1.6,1.3c0.7,0.7,1.2,1.4,1.5,1.9c0.3,0.6,0.4,1.1,0.4,1.7c-0.1,0.5-0.3,1-0.8,1.5
	c-0.6,0.6-1.3,0.8-2,0.8C392.8,290.4,391.7,289.8,390.6,288.6z M391.4,287.9c1,1,1.8,1.5,2.3,1.6c0.6,0.1,1,0,1.4-0.4
	c0.3-0.3,0.5-0.8,0.4-1.4c-0.1-0.6-0.6-1.3-1.6-2.3c-1-1-1.8-1.5-2.3-1.6c-0.6-0.1-1,0-1.4,0.4c-0.3,0.3-0.5,0.8-0.4,1.2
	C389.8,286,390.4,286.9,391.4,287.9z M401.3,283.9l-0.7,0.7l-4.8-4.8c0,0.4-0.1,0.8-0.2,1.2c-0.1,0.5-0.3,0.8-0.4,1.1l-0.7-0.7
	c0.2-0.6,0.3-1.2,0.4-1.8c0-0.6,0-1.1-0.1-1.5l0.5-0.5L401.3,283.9z M401.3,277.3c-0.4,0.2-0.8,0.3-1.2,0.2c-0.4-0.1-0.7-0.2-1-0.5
	c-0.4-0.4-0.7-1-0.6-1.6c0-0.6,0.3-1.2,0.8-1.7c0.5-0.5,1.1-0.8,1.7-0.8c0.6,0,1.2,0.2,1.6,0.6c0.3,0.3,0.4,0.6,0.5,1
	c0.1,0.4,0,0.7-0.2,1.2c0.5-0.3,1-0.3,1.4-0.3c0.5,0.1,0.9,0.3,1.3,0.7c0.5,0.5,0.8,1.1,0.8,1.9c0,0.7-0.3,1.4-0.9,2
	c-0.6,0.6-1.3,0.9-2,0.9c-0.7,0-1.3-0.2-1.9-0.8c-0.4-0.4-0.6-0.8-0.7-1.3C401,278.2,401.1,277.7,401.3,277.3z M399.9,276.2
	c0.3,0.3,0.6,0.4,1,0.4c0.4,0,0.7-0.2,1-0.5c0.3-0.3,0.4-0.6,0.4-1c0-0.4-0.1-0.7-0.4-1c-0.3-0.3-0.6-0.4-1-0.4
	c-0.4,0-0.7,0.1-1,0.4c-0.3,0.3-0.4,0.6-0.4,1C399.5,275.6,399.7,275.9,399.9,276.2z M402.5,279.2c0.2,0.2,0.5,0.4,0.8,0.5
	c0.3,0.1,0.6,0.1,0.9,0c0.3-0.1,0.6-0.2,0.8-0.5c0.4-0.4,0.5-0.8,0.5-1.2c0-0.5-0.2-0.9-0.5-1.2c-0.4-0.4-0.8-0.5-1.2-0.5
	c-0.5,0-0.9,0.2-1.2,0.5c-0.4,0.4-0.5,0.8-0.5,1.2C402,278.4,402.1,278.8,402.5,279.2z"/>
<path class="st44" d="M415.4,291.9l0.7,0.7l-4,4c-0.2-0.2-0.3-0.4-0.4-0.6c-0.2-0.4-0.3-0.8-0.3-1.3c0-0.5,0-1.1,0.1-1.9
	c0.1-1.2,0.1-2.1,0-2.6c-0.1-0.6-0.3-1-0.5-1.2c-0.3-0.3-0.6-0.4-1.1-0.4c-0.4,0-0.8,0.2-1.1,0.5c-0.4,0.4-0.5,0.8-0.5,1.2
	c0,0.4,0.2,0.8,0.6,1.2l-0.8,0.7c-0.5-0.6-0.8-1.3-0.7-1.9c0-0.6,0.4-1.3,0.9-1.8c0.6-0.6,1.2-0.9,1.9-0.9s1.2,0.2,1.7,0.7
	c0.2,0.2,0.4,0.5,0.6,0.9c0.1,0.3,0.2,0.7,0.2,1.2c0,0.5,0,1.2-0.1,2.2c-0.1,0.8-0.1,1.4-0.1,1.6c0,0.3,0,0.5,0.1,0.7L415.4,291.9z
	 M414.2,288.6c-0.7-0.7-1.2-1.4-1.5-2c-0.3-0.6-0.4-1.1-0.4-1.7c0.1-0.5,0.3-1,0.8-1.5c0.3-0.3,0.7-0.5,1-0.7c0.4-0.1,0.8-0.1,1.2,0
	c0.4,0.1,0.8,0.3,1.3,0.5c0.4,0.3,1,0.7,1.6,1.3c0.7,0.7,1.2,1.4,1.5,1.9c0.3,0.6,0.4,1.1,0.4,1.7c-0.1,0.5-0.3,1-0.8,1.5
	c-0.6,0.6-1.3,0.8-2,0.8C416.4,290.4,415.3,289.8,414.2,288.6z M415,287.9c1,1,1.8,1.5,2.3,1.6c0.6,0.1,1,0,1.4-0.4
	c0.3-0.3,0.5-0.8,0.4-1.4c-0.1-0.6-0.6-1.3-1.6-2.3c-1-1-1.8-1.5-2.3-1.6c-0.6-0.1-1,0-1.4,0.4c-0.3,0.3-0.5,0.8-0.4,1.2
	C413.4,286,414,286.9,415,287.9z M424.9,283.9l-0.7,0.7l-4.8-4.8c0,0.4-0.1,0.8-0.2,1.2c-0.1,0.5-0.3,0.8-0.4,1.1l-0.7-0.7
	c0.2-0.6,0.3-1.2,0.4-1.8c0-0.6,0-1.1-0.1-1.5l0.5-0.5L424.9,283.9z M425.8,280.2l0.7-0.8c0.4,0.3,0.8,0.4,1.1,0.4
	c0.3,0,0.6-0.2,0.9-0.4c0.2-0.2,0.4-0.5,0.4-0.8c0.1-0.3,0.1-0.6,0-0.9c-0.1-0.3-0.2-0.6-0.4-1c-0.2-0.4-0.5-0.7-0.8-1
	c0,0-0.1-0.1-0.2-0.2c0.1,0.4,0.1,0.8,0,1.2c-0.1,0.4-0.3,0.8-0.6,1.1c-0.5,0.5-1.1,0.8-1.8,0.7c-0.7,0-1.4-0.3-2-0.9
	c-0.6-0.6-0.9-1.3-1-2c0-0.7,0.3-1.4,0.8-1.9c0.4-0.4,0.9-0.6,1.4-0.8c0.5-0.1,1.1-0.1,1.7,0.2c0.6,0.2,1.2,0.7,2,1.4
	c0.8,0.8,1.3,1.5,1.6,2.1c0.3,0.6,0.4,1.2,0.3,1.8c-0.1,0.6-0.4,1.1-0.8,1.5c-0.5,0.5-1,0.7-1.6,0.8
	C426.9,280.8,426.3,280.6,425.8,280.2z M426.2,274.5c-0.4-0.4-0.9-0.7-1.4-0.7c-0.5,0-0.9,0.1-1.2,0.4c-0.3,0.3-0.5,0.8-0.5,1.3
	c0,0.5,0.3,1,0.7,1.4c0.4,0.4,0.8,0.6,1.3,0.6c0.5,0,0.9-0.2,1.2-0.5c0.3-0.3,0.5-0.8,0.5-1.2S426.6,274.9,426.2,274.5z"/>
<path class="st44" d="M439,291.9l0.7,0.7l-4,4c-0.2-0.2-0.3-0.4-0.4-0.6c-0.2-0.4-0.3-0.8-0.3-1.3c0-0.5,0-1.1,0.1-1.9
	c0.1-1.2,0.1-2.1,0-2.6c-0.1-0.6-0.3-1-0.5-1.2c-0.3-0.3-0.6-0.4-1.1-0.4c-0.4,0-0.8,0.2-1.1,0.5c-0.4,0.4-0.5,0.8-0.5,1.2
	c0,0.4,0.2,0.8,0.6,1.2l-0.8,0.7c-0.5-0.6-0.8-1.3-0.7-1.9c0-0.6,0.4-1.3,0.9-1.8c0.6-0.6,1.2-0.9,1.9-0.9c0.7,0,1.2,0.2,1.7,0.7
	c0.2,0.2,0.4,0.5,0.6,0.9c0.1,0.3,0.2,0.7,0.2,1.2c0,0.5,0,1.2-0.1,2.2c-0.1,0.8-0.1,1.4-0.1,1.6c0,0.3,0,0.5,0.1,0.7L439,291.9z
	 M437.8,288.6c-0.7-0.7-1.2-1.4-1.5-2c-0.3-0.6-0.4-1.1-0.4-1.7c0.1-0.5,0.3-1,0.8-1.5c0.3-0.3,0.7-0.5,1-0.7c0.4-0.1,0.8-0.1,1.2,0
	c0.4,0.1,0.8,0.3,1.3,0.5c0.4,0.3,1,0.7,1.6,1.3c0.7,0.7,1.2,1.4,1.5,1.9c0.3,0.6,0.4,1.1,0.4,1.7c-0.1,0.5-0.3,1-0.8,1.5
	c-0.6,0.6-1.3,0.8-2,0.8C440,290.4,438.9,289.8,437.8,288.6z M438.6,287.9c1,1,1.8,1.5,2.3,1.6c0.6,0.1,1,0,1.4-0.4
	c0.3-0.3,0.5-0.8,0.4-1.4c-0.1-0.6-0.6-1.3-1.6-2.3c-1-1-1.8-1.5-2.3-1.6c-0.6-0.1-1,0-1.4,0.4c-0.3,0.3-0.5,0.8-0.4,1.2
	C437,286,437.6,286.9,438.6,287.9z M448.9,282l0.7,0.7l-4,4c-0.2-0.2-0.3-0.4-0.4-0.6c-0.2-0.4-0.3-0.8-0.3-1.3c0-0.5,0-1.1,0.1-1.9
	c0.1-1.2,0.1-2.1,0-2.6c-0.1-0.6-0.3-1-0.5-1.2c-0.3-0.3-0.6-0.4-1.1-0.4c-0.4,0-0.8,0.2-1.1,0.5c-0.4,0.4-0.5,0.8-0.5,1.2
	s0.2,0.8,0.6,1.2l-0.8,0.7c-0.5-0.6-0.8-1.3-0.7-1.9c0-0.6,0.4-1.3,0.9-1.8c0.6-0.6,1.2-0.9,1.9-0.9c0.7,0,1.2,0.2,1.7,0.7
	c0.2,0.2,0.4,0.5,0.6,0.9c0.1,0.3,0.2,0.7,0.2,1.2c0,0.5,0,1.2-0.1,2.2c-0.1,0.8-0.1,1.4-0.1,1.6c0,0.3,0,0.5,0.1,0.7L448.9,282z
	 M447.7,278.7c-0.7-0.7-1.2-1.4-1.5-2c-0.3-0.6-0.4-1.1-0.4-1.7c0.1-0.5,0.3-1,0.8-1.5c0.3-0.3,0.7-0.5,1-0.7c0.4-0.1,0.8-0.1,1.2,0
	c0.4,0.1,0.8,0.3,1.3,0.5c0.4,0.3,1,0.7,1.6,1.3c0.7,0.7,1.2,1.4,1.5,1.9c0.3,0.6,0.4,1.1,0.4,1.7c-0.1,0.5-0.3,1-0.8,1.5
	c-0.6,0.6-1.3,0.8-2,0.8C449.9,280.5,448.8,279.9,447.7,278.7z M448.5,278c1,1,1.8,1.5,2.3,1.6c0.6,0.1,1,0,1.4-0.4
	c0.3-0.3,0.5-0.8,0.4-1.4c-0.1-0.6-0.6-1.3-1.6-2.3c-1-1-1.8-1.5-2.3-1.6c-0.6-0.1-1,0-1.4,0.4c-0.3,0.3-0.5,0.8-0.4,1.2
	C446.9,276.1,447.5,277,448.5,278z"/>
<path class="st44" d="M462.6,291.9l0.7,0.7l-4,4c-0.2-0.2-0.3-0.4-0.4-0.6c-0.2-0.4-0.3-0.8-0.3-1.3c0-0.5,0-1.1,0.1-1.9
	c0.1-1.2,0.1-2.1,0-2.6c-0.1-0.6-0.3-1-0.5-1.2c-0.3-0.3-0.6-0.4-1.1-0.4c-0.4,0-0.8,0.2-1.1,0.5c-0.4,0.4-0.5,0.8-0.5,1.2
	c0,0.4,0.2,0.8,0.6,1.2l-0.8,0.7c-0.5-0.6-0.8-1.3-0.7-1.9c0-0.6,0.4-1.3,0.9-1.8c0.6-0.6,1.2-0.9,1.9-0.9s1.2,0.2,1.7,0.7
	c0.2,0.2,0.4,0.5,0.6,0.9c0.1,0.3,0.2,0.7,0.2,1.2c0,0.5,0,1.2-0.1,2.2c-0.1,0.8-0.1,1.4-0.1,1.6c0,0.3,0,0.5,0.1,0.7L462.6,291.9z
	 M461.4,288.6c-0.7-0.7-1.2-1.4-1.5-2c-0.3-0.6-0.4-1.1-0.4-1.7c0.1-0.5,0.3-1,0.8-1.5c0.3-0.3,0.7-0.5,1-0.7c0.4-0.1,0.8-0.1,1.2,0
	c0.4,0.1,0.8,0.3,1.3,0.5c0.4,0.3,1,0.7,1.6,1.3c0.7,0.7,1.2,1.4,1.5,1.9c0.3,0.6,0.4,1.1,0.4,1.7c-0.1,0.5-0.3,1-0.8,1.5
	c-0.6,0.6-1.3,0.8-2,0.8C463.6,290.4,462.5,289.8,461.4,288.6z M462.2,287.9c1,1,1.8,1.5,2.3,1.6c0.6,0.1,1,0,1.4-0.4
	c0.3-0.3,0.5-0.8,0.4-1.4c-0.1-0.6-0.6-1.3-1.6-2.3c-1-1-1.8-1.5-2.3-1.6c-0.6-0.1-1,0-1.4,0.4c-0.3,0.3-0.5,0.8-0.4,1.2
	C460.6,286,461.2,286.9,462.2,287.9z M472.5,282l0.7,0.7l-4,4c-0.2-0.2-0.3-0.4-0.4-0.6c-0.2-0.4-0.3-0.8-0.3-1.3
	c0-0.5,0-1.1,0.1-1.9c0.1-1.2,0.1-2.1,0-2.6c-0.1-0.6-0.3-1-0.5-1.2c-0.3-0.3-0.6-0.4-1.1-0.4c-0.4,0-0.8,0.2-1.1,0.5
	c-0.4,0.4-0.5,0.8-0.5,1.2s0.2,0.8,0.6,1.2l-0.8,0.7c-0.5-0.6-0.8-1.3-0.7-1.9c0-0.6,0.4-1.3,0.9-1.8c0.6-0.6,1.2-0.9,1.9-0.9
	c0.7,0,1.2,0.2,1.7,0.7c0.2,0.2,0.4,0.5,0.6,0.9c0.1,0.3,0.2,0.7,0.2,1.2c0,0.5,0,1.2-0.1,2.2c-0.1,0.8-0.1,1.4-0.1,1.6
	c0,0.3,0,0.5,0.1,0.7L472.5,282z M477.1,278.9l-0.7,0.7l-4.8-4.8c0,0.4-0.1,0.8-0.2,1.2c-0.1,0.5-0.3,0.8-0.4,1.1l-0.7-0.7
	c0.2-0.6,0.3-1.2,0.4-1.8c0-0.6,0-1.1-0.1-1.5l0.5-0.5L477.1,278.9z"/>
<path class="st44" d="M486.2,291.9l0.7,0.7l-4,4c-0.2-0.2-0.3-0.4-0.4-0.6c-0.2-0.4-0.3-0.8-0.3-1.3c0-0.5,0-1.1,0.1-1.9
	c0.1-1.2,0.1-2.1,0-2.6c-0.1-0.6-0.3-1-0.5-1.2c-0.3-0.3-0.6-0.4-1.1-0.4c-0.4,0-0.8,0.2-1.1,0.5c-0.4,0.4-0.5,0.8-0.5,1.2
	c0,0.4,0.2,0.8,0.6,1.2l-0.8,0.7c-0.5-0.6-0.8-1.3-0.7-1.9c0-0.6,0.4-1.3,0.9-1.8c0.6-0.6,1.2-0.9,1.9-0.9c0.7,0,1.2,0.2,1.7,0.7
	c0.2,0.2,0.4,0.5,0.6,0.9c0.1,0.3,0.2,0.7,0.2,1.2c0,0.5,0,1.2-0.1,2.2c-0.1,0.8-0.1,1.4-0.1,1.6c0,0.3,0,0.5,0.1,0.7L486.2,291.9z
	 M485,288.6c-0.7-0.7-1.2-1.4-1.5-2c-0.3-0.6-0.4-1.1-0.4-1.7c0.1-0.5,0.3-1,0.8-1.5c0.3-0.3,0.7-0.5,1-0.7c0.4-0.1,0.8-0.1,1.2,0
	c0.4,0.1,0.8,0.3,1.3,0.5c0.4,0.3,1,0.7,1.6,1.3c0.7,0.7,1.2,1.4,1.5,1.9c0.3,0.6,0.4,1.1,0.4,1.7c-0.1,0.5-0.3,1-0.8,1.5
	c-0.6,0.6-1.3,0.8-2,0.8C487.2,290.4,486.1,289.8,485,288.6z M485.8,287.9c1,1,1.8,1.5,2.3,1.6c0.6,0.1,1,0,1.4-0.4
	c0.3-0.3,0.5-0.8,0.4-1.4c-0.1-0.6-0.6-1.3-1.6-2.3c-1-1-1.8-1.5-2.3-1.6c-0.6-0.1-1,0-1.4,0.4c-0.3,0.3-0.5,0.8-0.4,1.2
	C484.2,286,484.8,286.9,485.8,287.9z M496.1,282l0.7,0.7l-4,4c-0.2-0.2-0.3-0.4-0.4-0.6c-0.2-0.4-0.3-0.8-0.3-1.3
	c0-0.5,0-1.1,0.1-1.9c0.1-1.2,0.1-2.1,0-2.6c-0.1-0.6-0.3-1-0.5-1.2c-0.3-0.3-0.6-0.4-1.1-0.4c-0.4,0-0.8,0.2-1.1,0.5
	c-0.4,0.4-0.5,0.8-0.5,1.2c0,0.4,0.2,0.8,0.6,1.2l-0.8,0.7c-0.5-0.6-0.8-1.3-0.7-1.9c0-0.6,0.4-1.3,0.9-1.8c0.6-0.6,1.2-0.9,1.9-0.9
	c0.7,0,1.2,0.2,1.7,0.7c0.2,0.2,0.4,0.5,0.6,0.9c0.1,0.3,0.2,0.7,0.2,1.2c0,0.5,0,1.2-0.1,2.2c-0.1,0.8-0.1,1.4-0.1,1.6
	c0,0.3,0,0.5,0.1,0.7L496.1,282z M501.1,277.1l0.7,0.7l-4,4c-0.2-0.2-0.3-0.4-0.4-0.6c-0.2-0.4-0.3-0.8-0.3-1.3c0-0.5,0-1.1,0.1-1.9
	c0.1-1.2,0.1-2.1,0-2.6c-0.1-0.6-0.3-1-0.5-1.2c-0.3-0.3-0.6-0.4-1.1-0.4c-0.4,0-0.8,0.2-1.1,0.5c-0.4,0.4-0.5,0.8-0.5,1.2
	c0,0.4,0.2,0.8,0.6,1.2l-0.8,0.7c-0.5-0.6-0.8-1.3-0.7-1.9c0-0.6,0.4-1.3,0.9-1.8c0.6-0.6,1.2-0.9,1.9-0.9c0.7,0,1.2,0.2,1.7,0.7
	c0.2,0.2,0.4,0.5,0.6,0.9c0.1,0.3,0.2,0.7,0.2,1.2c0,0.5,0,1.2-0.1,2.2c-0.1,0.8-0.1,1.4-0.1,1.6c0,0.3,0,0.5,0.1,0.7L501.1,277.1z"
	/>
<path class="st44" d="M509.9,291.9l0.7,0.7l-4,4c-0.2-0.2-0.3-0.4-0.4-0.6c-0.2-0.4-0.3-0.8-0.3-1.3c0-0.5,0-1.1,0.1-1.9
	c0.1-1.2,0.1-2.1,0-2.6c-0.1-0.6-0.3-1-0.5-1.2c-0.3-0.3-0.6-0.4-1.1-0.4c-0.4,0-0.8,0.2-1.1,0.5c-0.4,0.4-0.5,0.8-0.5,1.2
	c0,0.4,0.2,0.8,0.6,1.2l-0.8,0.7c-0.5-0.6-0.8-1.3-0.7-1.9c0-0.6,0.4-1.3,0.9-1.8c0.6-0.6,1.2-0.9,1.9-0.9s1.2,0.2,1.7,0.7
	c0.2,0.2,0.4,0.5,0.6,0.9c0.1,0.3,0.2,0.7,0.2,1.2c0,0.5,0,1.2-0.1,2.2c-0.1,0.8-0.1,1.4-0.1,1.6c0,0.3,0,0.5,0.1,0.7L509.9,291.9z
	 M508.6,288.6c-0.7-0.7-1.2-1.4-1.5-2c-0.3-0.6-0.4-1.1-0.4-1.7c0.1-0.5,0.3-1,0.8-1.5c0.3-0.3,0.7-0.5,1-0.7c0.4-0.1,0.8-0.1,1.2,0
	c0.4,0.1,0.8,0.3,1.3,0.5c0.4,0.3,1,0.7,1.6,1.3c0.7,0.7,1.2,1.4,1.5,1.9c0.3,0.6,0.4,1.1,0.4,1.7c-0.1,0.5-0.3,1-0.8,1.5
	c-0.6,0.6-1.3,0.8-2,0.8C510.8,290.4,509.7,289.8,508.6,288.6z M509.4,287.9c1,1,1.8,1.5,2.3,1.6c0.6,0.1,1,0,1.4-0.4
	c0.3-0.3,0.5-0.8,0.4-1.4c-0.1-0.6-0.6-1.3-1.6-2.3c-1-1-1.8-1.5-2.3-1.6c-0.6-0.1-1,0-1.4,0.4c-0.3,0.3-0.5,0.8-0.4,1.2
	C507.8,286,508.4,286.9,509.4,287.9z M519.8,282l0.7,0.7l-4,4c-0.2-0.2-0.3-0.4-0.4-0.6c-0.2-0.4-0.3-0.8-0.3-1.3
	c0-0.5,0-1.1,0.1-1.9c0.1-1.2,0.1-2.1,0-2.6c-0.1-0.6-0.3-1-0.5-1.2c-0.3-0.3-0.6-0.4-1.1-0.4c-0.4,0-0.8,0.2-1.1,0.5
	c-0.4,0.4-0.5,0.8-0.5,1.2c0,0.4,0.2,0.8,0.6,1.2l-0.8,0.7c-0.5-0.6-0.8-1.3-0.7-1.9c0-0.6,0.4-1.3,0.9-1.8c0.6-0.6,1.2-0.9,1.9-0.9
	c0.7,0,1.2,0.2,1.7,0.7c0.2,0.2,0.4,0.5,0.6,0.9c0.1,0.3,0.2,0.7,0.2,1.2c0,0.5,0,1.2-0.1,2.2c-0.1,0.8-0.1,1.4-0.1,1.6
	c0,0.3,0,0.5,0.1,0.7L519.8,282z M519.9,280.1l0.7-0.9c0.5,0.3,1,0.5,1.3,0.5c0.4,0,0.7-0.2,1-0.5c0.4-0.4,0.5-0.8,0.5-1.3
	c0-0.5-0.2-0.9-0.5-1.3c-0.3-0.3-0.7-0.5-1.2-0.5c-0.4,0-0.8,0.2-1.2,0.5c-0.1,0.1-0.3,0.3-0.4,0.6l-0.6-0.8c0.1,0,0.1-0.1,0.1-0.1
	c0.3-0.3,0.5-0.7,0.6-1.1c0.1-0.4,0-0.8-0.4-1.2c-0.3-0.3-0.6-0.4-1-0.4c-0.4,0-0.7,0.1-1,0.4c-0.3,0.3-0.4,0.6-0.5,1
	c0,0.4,0.1,0.8,0.5,1.2l-0.9,0.6c-0.4-0.6-0.6-1.2-0.5-1.8c0-0.6,0.3-1.1,0.8-1.6c0.3-0.3,0.7-0.6,1.1-0.7c0.4-0.1,0.8-0.2,1.2-0.1
	c0.4,0.1,0.7,0.3,1,0.6c0.3,0.3,0.4,0.6,0.5,0.9c0.1,0.4,0,0.7-0.1,1.1c0.4-0.3,0.9-0.4,1.3-0.3c0.5,0.1,0.9,0.3,1.3,0.7
	c0.5,0.5,0.8,1.2,0.8,1.9c0,0.8-0.3,1.4-0.9,2c-0.5,0.5-1.1,0.8-1.8,0.9C521.1,280.8,520.4,280.6,519.9,280.1z"/>
<path class="st44" d="M533.5,291.9l0.7,0.7l-4,4c-0.2-0.2-0.3-0.4-0.4-0.6c-0.2-0.4-0.3-0.8-0.3-1.3c0-0.5,0-1.1,0.1-1.9
	c0.1-1.2,0.1-2.1,0-2.6c-0.1-0.6-0.3-1-0.5-1.2c-0.3-0.3-0.6-0.4-1.1-0.4c-0.4,0-0.8,0.2-1.1,0.5c-0.4,0.4-0.5,0.8-0.5,1.2
	s0.2,0.8,0.6,1.2l-0.8,0.7c-0.5-0.6-0.8-1.3-0.7-1.9c0-0.6,0.4-1.3,0.9-1.8c0.6-0.6,1.2-0.9,1.9-0.9c0.7,0,1.2,0.2,1.7,0.7
	c0.2,0.2,0.4,0.5,0.6,0.9c0.1,0.3,0.2,0.7,0.2,1.2c0,0.5,0,1.2-0.1,2.2c-0.1,0.8-0.1,1.4-0.1,1.6c0,0.3,0,0.5,0.1,0.7L533.5,291.9z
	 M532.2,288.6c-0.7-0.7-1.2-1.4-1.5-2c-0.3-0.6-0.4-1.1-0.4-1.7c0.1-0.5,0.3-1,0.8-1.5c0.3-0.3,0.7-0.5,1-0.7c0.4-0.1,0.8-0.1,1.2,0
	c0.4,0.1,0.8,0.3,1.3,0.5c0.4,0.3,1,0.7,1.6,1.3c0.7,0.7,1.2,1.4,1.5,1.9c0.3,0.6,0.4,1.1,0.4,1.7c-0.1,0.5-0.3,1-0.8,1.5
	c-0.6,0.6-1.3,0.8-2,0.8C534.4,290.4,533.3,289.8,532.2,288.6z M533,287.9c1,1,1.8,1.5,2.3,1.6c0.6,0.1,1,0,1.4-0.4
	c0.3-0.3,0.5-0.8,0.4-1.4c-0.1-0.6-0.6-1.3-1.6-2.3c-1-1-1.8-1.5-2.3-1.6c-0.6-0.1-1,0-1.4,0.4c-0.3,0.3-0.5,0.8-0.4,1.2
	C531.4,286,532,286.9,533,287.9z M543.4,282l0.7,0.7l-4,4c-0.2-0.2-0.3-0.4-0.4-0.6c-0.2-0.4-0.3-0.8-0.3-1.3c0-0.5,0-1.1,0.1-1.9
	c0.1-1.2,0.1-2.1,0-2.6c-0.1-0.6-0.3-1-0.5-1.2c-0.3-0.3-0.6-0.4-1.1-0.4c-0.4,0-0.8,0.2-1.1,0.5c-0.4,0.4-0.5,0.8-0.5,1.2
	c0,0.4,0.2,0.8,0.6,1.2l-0.8,0.7c-0.5-0.6-0.8-1.3-0.7-1.9c0-0.6,0.4-1.3,0.9-1.8c0.6-0.6,1.2-0.9,1.9-0.9c0.7,0,1.2,0.2,1.7,0.7
	c0.2,0.2,0.4,0.5,0.6,0.9c0.1,0.3,0.2,0.7,0.2,1.2c0,0.5,0,1.2-0.1,2.2c-0.1,0.8-0.1,1.4-0.1,1.6c0,0.3,0,0.5,0.1,0.7L543.4,282z
	 M547.5,279.3l-1.5-1.5l-2.6,2.6l-0.7-0.7l-1.2-6.7l0.6-0.6l3.9,3.9l0.8-0.8l0.7,0.7l-0.8,0.8l1.5,1.5L547.5,279.3z M545.3,277.2
	l-2.7-2.7l0.8,4.6L545.3,277.2z"/>
<path class="st44" d="M557.1,291.9l0.7,0.7l-4,4c-0.2-0.2-0.3-0.4-0.4-0.6c-0.2-0.4-0.3-0.8-0.3-1.3c0-0.5,0-1.1,0.1-1.9
	c0.1-1.2,0.1-2.1,0-2.6c-0.1-0.6-0.3-1-0.5-1.2c-0.3-0.3-0.6-0.4-1.1-0.4c-0.4,0-0.8,0.2-1.1,0.5c-0.4,0.4-0.5,0.8-0.5,1.2
	s0.2,0.8,0.6,1.2l-0.8,0.7c-0.5-0.6-0.8-1.3-0.7-1.9c0-0.6,0.4-1.3,0.9-1.8c0.6-0.6,1.2-0.9,1.9-0.9s1.2,0.2,1.7,0.7
	c0.2,0.2,0.4,0.5,0.6,0.9c0.1,0.3,0.2,0.7,0.2,1.2c0,0.5,0,1.2-0.1,2.2c-0.1,0.8-0.1,1.4-0.1,1.6c0,0.3,0,0.5,0.1,0.7L557.1,291.9z
	 M555.8,288.6c-0.7-0.7-1.2-1.4-1.5-2c-0.3-0.6-0.4-1.1-0.4-1.7c0.1-0.5,0.3-1,0.8-1.5c0.3-0.3,0.7-0.5,1-0.7c0.4-0.1,0.8-0.1,1.2,0
	c0.4,0.1,0.8,0.3,1.3,0.5c0.4,0.3,1,0.7,1.6,1.3c0.7,0.7,1.2,1.4,1.5,1.9c0.3,0.6,0.4,1.1,0.4,1.7c-0.1,0.5-0.3,1-0.8,1.5
	c-0.6,0.6-1.3,0.8-2,0.8C558,290.4,556.9,289.8,555.8,288.6z M556.6,287.9c1,1,1.8,1.5,2.3,1.6c0.6,0.1,1,0,1.4-0.4
	c0.3-0.3,0.5-0.8,0.4-1.4c-0.1-0.6-0.6-1.3-1.6-2.3c-1-1-1.8-1.5-2.3-1.6c-0.6-0.1-1,0-1.4,0.4c-0.3,0.3-0.5,0.8-0.4,1.2
	C555,286,555.6,286.9,556.6,287.9z M567,282l0.7,0.7l-4,4c-0.2-0.2-0.3-0.4-0.4-0.6c-0.2-0.4-0.3-0.8-0.3-1.3c0-0.5,0-1.1,0.1-1.9
	c0.1-1.2,0.1-2.1,0-2.6c-0.1-0.6-0.3-1-0.5-1.2c-0.3-0.3-0.6-0.4-1.1-0.4c-0.4,0-0.8,0.2-1.1,0.5c-0.4,0.4-0.5,0.8-0.5,1.2
	c0,0.4,0.2,0.8,0.6,1.2l-0.8,0.7c-0.5-0.6-0.8-1.3-0.7-1.9c0-0.6,0.4-1.3,0.9-1.8c0.6-0.6,1.2-0.9,1.9-0.9c0.7,0,1.2,0.2,1.7,0.7
	c0.2,0.2,0.4,0.5,0.6,0.9c0.1,0.3,0.2,0.7,0.2,1.2c0,0.5,0,1.2-0.1,2.2c-0.1,0.8-0.1,1.4-0.1,1.6c0,0.3,0,0.5,0.1,0.7L567,282z
	 M567.1,280.1l0.7-0.9c0.4,0.3,0.9,0.5,1.3,0.5c0.4,0,0.8-0.2,1.1-0.5c0.4-0.4,0.5-0.8,0.5-1.3c0-0.5-0.3-1-0.7-1.4
	c-0.4-0.4-0.9-0.6-1.4-0.6c-0.5,0-0.9,0.2-1.3,0.6c-0.2,0.2-0.4,0.5-0.5,0.8c-0.1,0.3-0.1,0.6,0,0.9l-0.8,0.6l-2.5-3.7l3-3l0.7,0.7
	l-2.4,2.4l1.3,2c0.1-0.6,0.4-1.1,0.8-1.5c0.5-0.5,1.2-0.8,1.9-0.8c0.7,0,1.4,0.3,2,0.9c0.5,0.5,0.9,1.2,1,1.9
	c0.1,0.9-0.2,1.6-0.9,2.3c-0.6,0.6-1.2,0.9-1.8,0.9C568.3,280.8,567.7,280.6,567.1,280.1z"/>
<path class="st45" d="M273.5,340.5c0-0.6,0.4-1,1-1h10c0.6,0,1,0.4,1,1v10c0,0.6-0.4,1-1,1h-10c-0.6,0-1-0.4-1-1V340.5z"/>
<path class="st46" d="M19.4,33.8l1.8-0.2c0.2,1,0.6,1.7,1,2.2c0.5,0.4,1.1,0.7,1.8,0.7c0.8,0,1.5-0.3,2.1-0.9
	c0.6-0.6,0.9-1.3,0.9-2.1c0-0.8-0.3-1.5-0.8-2c-0.5-0.5-1.2-0.8-2-0.8c-0.3,0-0.7,0.1-1.2,0.2l0.2-1.5c0.1,0,0.2,0,0.3,0
	c0.7,0,1.4-0.2,2-0.6c0.6-0.4,0.9-1,0.9-1.8c0-0.6-0.2-1.2-0.7-1.6c-0.4-0.4-1-0.6-1.7-0.6c-0.7,0-1.2,0.2-1.7,0.7
	c-0.5,0.4-0.8,1.1-0.9,1.9l-1.8-0.3c0.2-1.2,0.7-2.1,1.5-2.7c0.8-0.6,1.7-1,2.8-1c0.8,0,1.5,0.2,2.2,0.5c0.7,0.3,1.2,0.8,1.5,1.4
	c0.4,0.6,0.5,1.2,0.5,1.8c0,0.6-0.2,1.2-0.5,1.7c-0.3,0.5-0.8,0.9-1.5,1.2c0.8,0.2,1.5,0.6,2,1.2c0.5,0.6,0.7,1.4,0.7,2.3
	c0,1.2-0.5,2.3-1.4,3.2c-0.9,0.9-2.1,1.3-3.5,1.3c-1.3,0-2.3-0.4-3.1-1.1C20,35.9,19.5,35,19.4,33.8z M31.1,37.5V23.2H36
	c1.1,0,2,0.1,2.6,0.2c0.8,0.2,1.5,0.5,2.1,1c0.8,0.6,1.3,1.5,1.7,2.5c0.4,1,0.6,2.1,0.6,3.4c0,1.1-0.1,2-0.4,2.9
	c-0.2,0.8-0.6,1.5-1,2.1c-0.4,0.6-0.8,1-1.3,1.3c-0.5,0.3-1,0.6-1.7,0.7c-0.7,0.2-1.4,0.2-2.3,0.2H31.1z M33,35.9H36
	c0.9,0,1.7-0.1,2.2-0.3c0.5-0.2,1-0.4,1.3-0.8c0.4-0.4,0.8-1,1-1.8c0.2-0.8,0.4-1.7,0.4-2.8c0-1.5-0.2-2.7-0.7-3.5
	c-0.5-0.8-1.1-1.3-1.8-1.6c-0.5-0.2-1.3-0.3-2.4-0.3h-3V35.9z M50.9,37.5V27.2h1.6v1.5c0.3-0.5,0.8-0.9,1.3-1.2
	c0.5-0.3,1.2-0.5,1.8-0.5c0.8,0,1.4,0.2,1.9,0.5c0.5,0.3,0.8,0.8,1,1.3c0.8-1.2,1.9-1.8,3.2-1.8c1,0,1.8,0.3,2.4,0.9
	c0.6,0.6,0.8,1.4,0.8,2.6v7.1h-1.8V31c0-0.7-0.1-1.2-0.2-1.5c-0.1-0.3-0.3-0.6-0.6-0.8c-0.3-0.2-0.6-0.3-1-0.3
	c-0.7,0-1.3,0.2-1.8,0.7c-0.5,0.5-0.7,1.2-0.7,2.3v6H57v-6.7c0-0.8-0.1-1.4-0.4-1.8c-0.3-0.4-0.8-0.6-1.4-0.6
	c-0.5,0-0.9,0.1-1.4,0.4c-0.4,0.3-0.7,0.6-0.9,1.1c-0.2,0.5-0.3,1.2-0.3,2.2v5.4H50.9z M66.2,32.4c0-1.9,0.5-3.3,1.6-4.3
	c0.9-0.8,2-1.2,3.3-1.2c1.4,0,2.6,0.5,3.5,1.4c0.9,0.9,1.4,2.2,1.4,3.9c0,1.3-0.2,2.4-0.6,3.2c-0.4,0.8-1,1.4-1.8,1.8
	c-0.8,0.4-1.6,0.6-2.5,0.6c-1.5,0-2.6-0.5-3.5-1.4C66.7,35.5,66.2,34.1,66.2,32.4z M68,32.4c0,1.3,0.3,2.3,0.9,3
	c0.6,0.7,1.3,1,2.2,1c0.9,0,1.6-0.3,2.2-1c0.6-0.7,0.9-1.7,0.9-3c0-1.3-0.3-2.3-0.9-2.9c-0.6-0.7-1.3-1-2.2-1c-0.9,0-1.6,0.3-2.2,1
	C68.3,30,68,31,68,32.4z M80.8,37.5l-4-10.4h1.9l2.2,6.2c0.2,0.7,0.5,1.4,0.7,2.1c0.2-0.5,0.4-1.2,0.7-2l2.3-6.3h1.8l-3.9,10.4H80.8
	z M86.9,25.3v-2h1.8v2H86.9z M86.9,37.5V27.2h1.8v10.4H86.9z M98,34.2l1.8,0.2c-0.3,1.1-0.8,1.9-1.6,2.5c-0.8,0.6-1.8,0.9-3,0.9
	c-1.5,0-2.7-0.5-3.6-1.4c-0.9-0.9-1.3-2.2-1.3-3.9c0-1.8,0.4-3.1,1.3-4.1c0.9-1,2.1-1.5,3.5-1.5c1.4,0,2.5,0.5,3.4,1.4
	c0.9,0.9,1.3,2.3,1.3,4c0,0.1,0,0.3,0,0.5h-7.7c0.1,1.1,0.4,2,1,2.6c0.6,0.6,1.3,0.9,2.2,0.9c0.6,0,1.2-0.2,1.6-0.5
	C97.3,35.5,97.7,34.9,98,34.2z M92.2,31.4H98c-0.1-0.9-0.3-1.5-0.7-2c-0.6-0.7-1.3-1-2.2-1c-0.8,0-1.5,0.3-2,0.8
	C92.6,29.7,92.3,30.5,92.2,31.4z M101.2,34.5l1.8-0.3c0.1,0.7,0.4,1.2,0.8,1.6c0.4,0.4,1.1,0.5,1.9,0.5c0.8,0,1.4-0.2,1.8-0.5
	c0.4-0.3,0.6-0.7,0.6-1.2c0-0.4-0.2-0.7-0.5-0.9c-0.2-0.2-0.8-0.4-1.8-0.6c-1.3-0.3-2.2-0.6-2.7-0.8c-0.5-0.2-0.9-0.6-1.1-1
	c-0.3-0.4-0.4-0.9-0.4-1.4c0-0.5,0.1-0.9,0.3-1.3c0.2-0.4,0.5-0.7,0.9-1c0.3-0.2,0.6-0.4,1.1-0.5c0.5-0.1,1-0.2,1.5-0.2
	c0.8,0,1.5,0.1,2.1,0.4c0.6,0.2,1.1,0.5,1.4,1c0.3,0.4,0.5,0.9,0.6,1.6l-1.7,0.2c-0.1-0.5-0.3-0.9-0.7-1.2c-0.4-0.3-0.9-0.5-1.6-0.5
	c-0.8,0-1.4,0.1-1.7,0.4c-0.3,0.3-0.5,0.6-0.5,0.9c0,0.2,0.1,0.4,0.2,0.6c0.1,0.2,0.4,0.3,0.7,0.5c0.2,0.1,0.7,0.2,1.5,0.4
	c1.3,0.3,2.1,0.6,2.6,0.8c0.5,0.2,0.9,0.5,1.2,0.9c0.3,0.4,0.4,0.9,0.4,1.5c0,0.6-0.2,1.1-0.5,1.7c-0.3,0.5-0.8,0.9-1.5,1.2
	c-0.6,0.3-1.4,0.4-2.2,0.4c-1.3,0-2.4-0.3-3.1-0.8C101.8,36.4,101.4,35.5,101.2,34.5z M122.2,37.5l-5.5-14.3h2l3.7,10.4
	c0.3,0.8,0.6,1.6,0.8,2.3c0.2-0.8,0.5-1.6,0.8-2.3l3.9-10.4h1.9l-5.6,14.3H122.2z M130.5,33l1.8-0.2c0.1,0.7,0.3,1.3,0.6,1.8
	c0.3,0.5,0.8,0.8,1.4,1.1c0.7,0.3,1.4,0.4,2.2,0.4c0.7,0,1.4-0.1,1.9-0.3c0.6-0.2,1-0.5,1.2-0.9c0.3-0.4,0.4-0.8,0.4-1.2
	c0-0.4-0.1-0.8-0.4-1.2c-0.3-0.3-0.7-0.6-1.3-0.8c-0.4-0.2-1.2-0.4-2.6-0.7c-1.3-0.3-2.2-0.6-2.8-0.9c-0.7-0.4-1.2-0.8-1.5-1.3
	c-0.3-0.5-0.5-1.1-0.5-1.8c0-0.7,0.2-1.4,0.6-2c0.4-0.6,1-1.1,1.8-1.4c0.8-0.3,1.7-0.5,2.6-0.5c1.1,0,2,0.2,2.8,0.5
	c0.8,0.3,1.4,0.8,1.9,1.5c0.4,0.7,0.7,1.4,0.7,2.2l-1.8,0.1c-0.1-0.9-0.4-1.6-1-2c-0.6-0.5-1.4-0.7-2.5-0.7c-1.1,0-2,0.2-2.5,0.6
	c-0.5,0.4-0.8,0.9-0.8,1.5c0,0.5,0.2,0.9,0.6,1.3c0.4,0.3,1.3,0.7,2.9,1c1.5,0.3,2.6,0.6,3.2,0.9c0.8,0.4,1.4,0.9,1.8,1.5
	c0.4,0.6,0.6,1.3,0.6,2c0,0.8-0.2,1.5-0.7,2.2c-0.4,0.7-1.1,1.2-1.9,1.6c-0.8,0.4-1.7,0.6-2.8,0.6c-1.3,0-2.4-0.2-3.2-0.6
	c-0.9-0.4-1.6-1-2.1-1.7C130.7,34.8,130.5,33.9,130.5,33z M144.4,37.5v-2h2v2H144.4z M155.8,41.5l-0.2-1.7c0.4,0.1,0.7,0.2,1,0.2
	c0.4,0,0.7-0.1,0.9-0.2c0.2-0.1,0.4-0.3,0.6-0.5c0.1-0.2,0.3-0.6,0.5-1.3c0-0.1,0.1-0.2,0.2-0.4l-3.9-10.4h1.9l2.2,6
	c0.3,0.8,0.5,1.6,0.8,2.4c0.2-0.8,0.4-1.6,0.7-2.4l2.2-6h1.8l-4,10.5c-0.4,1.1-0.7,1.9-1,2.4c-0.3,0.6-0.7,1-1.1,1.3
	c-0.4,0.3-0.9,0.4-1.4,0.4C156.6,41.8,156.2,41.7,155.8,41.5z M173,34.2l1.8,0.2c-0.3,1.1-0.8,1.9-1.6,2.5c-0.8,0.6-1.8,0.9-3,0.9
	c-1.5,0-2.7-0.5-3.6-1.4c-0.9-0.9-1.3-2.2-1.3-3.9c0-1.8,0.4-3.1,1.3-4.1c0.9-1,2.1-1.5,3.5-1.5c1.4,0,2.5,0.5,3.4,1.4
	c0.9,0.9,1.3,2.3,1.3,4c0,0.1,0,0.3,0,0.5h-7.7c0.1,1.1,0.4,2,1,2.6c0.6,0.6,1.3,0.9,2.2,0.9c0.6,0,1.2-0.2,1.6-0.5
	C172.3,35.5,172.7,34.9,173,34.2z M167.2,31.4h5.8c-0.1-0.9-0.3-1.5-0.7-2c-0.6-0.7-1.3-1-2.2-1c-0.8,0-1.5,0.3-2,0.8
	C167.6,29.7,167.3,30.5,167.2,31.4z M183.6,36.3c-0.7,0.6-1.3,0.9-1.9,1.2c-0.6,0.2-1.2,0.3-1.9,0.3c-1.1,0-2-0.3-2.6-0.8
	c-0.6-0.6-0.9-1.3-0.9-2.1c0-0.5,0.1-1,0.3-1.4c0.2-0.4,0.5-0.8,0.9-1c0.4-0.3,0.8-0.5,1.3-0.6c0.3-0.1,0.9-0.2,1.6-0.3
	c1.4-0.2,2.5-0.4,3.1-0.6c0-0.2,0-0.4,0-0.5c0-0.7-0.2-1.2-0.5-1.5c-0.4-0.4-1.1-0.6-2-0.6c-0.8,0-1.4,0.1-1.8,0.4
	c-0.4,0.3-0.7,0.8-0.9,1.5l-1.7-0.2c0.2-0.7,0.4-1.3,0.8-1.8c0.4-0.5,0.9-0.8,1.5-1c0.7-0.3,1.5-0.4,2.4-0.4c0.9,0,1.6,0.1,2.2,0.3
	c0.6,0.2,1,0.5,1.2,0.8c0.3,0.3,0.4,0.7,0.5,1.2c0.1,0.3,0.1,0.8,0.1,1.6v2.3c0,1.6,0,2.7,0.1,3.1c0.1,0.4,0.2,0.8,0.5,1.2H184
	C183.8,37.2,183.7,36.8,183.6,36.3z M183.5,32.3c-0.6,0.3-1.6,0.5-2.9,0.7c-0.7,0.1-1.2,0.2-1.5,0.4c-0.3,0.1-0.5,0.3-0.7,0.6
	c-0.2,0.2-0.2,0.5-0.2,0.8c0,0.5,0.2,0.9,0.5,1.2c0.4,0.3,0.9,0.5,1.6,0.5c0.7,0,1.3-0.1,1.8-0.4c0.5-0.3,0.9-0.7,1.2-1.2
	c0.2-0.4,0.3-1,0.3-1.8V32.3z M187.8,37.5V27.2h1.6v1.6c0.4-0.7,0.8-1.2,1.1-1.5c0.3-0.2,0.7-0.4,1.1-0.4c0.6,0,1.2,0.2,1.8,0.6
	l-0.6,1.6c-0.4-0.3-0.9-0.4-1.3-0.4c-0.4,0-0.7,0.1-1,0.4c-0.3,0.2-0.5,0.5-0.7,1c-0.2,0.6-0.3,1.3-0.3,2v5.4H187.8z"/>
<path class="st47" d="M283.9,352.1h-8c-1.6,0-3-1.3-3-3v-8c0-1.6,1.3-3,3-3h8c1.6,0,3,1.3,3,3v8
	C286.9,350.8,285.6,352.1,283.9,352.1z"/>
<rect x="290.3" y="340.2" class="st48" width="120.3" height="20.3"/>
<text transform="matrix(1 0 0 1 290.2563 348.7698)"><tspan x="0" y="0" class="st44 st49 st50">Year Avatar Relased</tspan><tspan x="98.5" y="0" class="st49 st50"> </tspan></text>
</svg>
