<?xml version="1.0" encoding="utf-8"?>
<!-- Generator: Adobe Illustrator 24.1.0, SVG Export Plug-In . SVG Version: 6.00 Build 0)  -->
<svg version="1.1" id="Layer_1" xmlns="http://www.w3.org/2000/svg" xmlns:xlink="http://www.w3.org/1999/xlink" x="0px" y="0px"
	 viewBox="0 0 600 360" style="enable-background:new 0 0 600 360;" xml:space="preserve">
<style type="text/css">
	.st0{fill:#434343;}
	.st1{fill:none;stroke:#FFFFFF;stroke-miterlimit:10;}
	.st2{fill:none;stroke:#767676;stroke-miterlimit:10;}
	.st3{clip-path:url(#SVGID_2_);fill:none;stroke:#000000;stroke-width:2;stroke-miterlimit:10;stroke-opacity:0;}
	.st4{clip-path:url(#SVGID_4_);fill:#3C78D8;}
	.st5{clip-path:url(#SVGID_6_);fill:none;stroke:#000000;stroke-width:2;stroke-miterlimit:10;stroke-opacity:0;}
	.st6{clip-path:url(#SVGID_8_);fill:#4285F4;}
	.st7{clip-path:url(#SVGID_10_);fill:none;stroke:#000000;stroke-width:2;stroke-miterlimit:10;stroke-opacity:0;}
	.st8{clip-path:url(#SVGID_12_);fill:#4285F4;}
	.st9{clip-path:url(#SVGID_14_);fill:none;stroke:#000000;stroke-width:2;stroke-miterlimit:10;stroke-opacity:0;}
	.st10{clip-path:url(#SVGID_16_);fill:#3C78D8;}
	.st11{clip-path:url(#SVGID_18_);fill:none;stroke:#000000;stroke-width:2;stroke-miterlimit:10;stroke-opacity:0;}
	.st12{clip-path:url(#SVGID_20_);fill:#3C78D8;}
	.st13{clip-path:url(#SVGID_22_);fill:none;stroke:#000000;stroke-width:2;stroke-miterlimit:10;stroke-opacity:0;}
	.st14{clip-path:url(#SVGID_24_);fill:#3C78D8;}
	.st15{clip-path:url(#SVGID_26_);fill:none;stroke:#000000;stroke-width:2;stroke-miterlimit:10;stroke-opacity:0;}
	.st16{clip-path:url(#SVGID_28_);fill:#3C78D8;}
	.st17{clip-path:url(#SVGID_30_);fill:none;stroke:#000000;stroke-width:2;stroke-miterlimit:10;stroke-opacity:0;}
	.st18{clip-path:url(#SVGID_32_);fill:#FF00FF;}
	.st19{clip-path:url(#SVGID_34_);fill:none;stroke:#000000;stroke-width:2;stroke-miterlimit:10;stroke-opacity:0;}
	.st20{clip-path:url(#SVGID_36_);fill:#FF00FF;}
	.st21{clip-path:url(#SVGID_38_);fill:none;stroke:#000000;stroke-width:2;stroke-miterlimit:10;stroke-opacity:0;}
	.st22{clip-path:url(#SVGID_40_);fill:#FF00FF;}
	.st23{clip-path:url(#SVGID_42_);fill:none;stroke:#76A5AF;stroke-width:2;stroke-miterlimit:10;}
	.st24{clip-path:url(#SVGID_44_);fill:#FF00FF;}
	.st25{clip-path:url(#SVGID_46_);fill:none;stroke:#000000;stroke-width:2;stroke-miterlimit:10;stroke-opacity:0;}
	.st26{clip-path:url(#SVGID_48_);fill:#FF00FF;}
	.st27{clip-path:url(#SVGID_50_);fill:none;stroke:#000000;stroke-width:2;stroke-miterlimit:10;stroke-opacity:0;}
	.st28{clip-path:url(#SVGID_52_);fill:#FF00FF;}
	.st29{clip-path:url(#SVGID_54_);fill:none;stroke:#000000;stroke-width:2;stroke-miterlimit:10;stroke-opacity:0;}
	.st30{clip-path:url(#SVGID_56_);fill:#EA4335;}
	.st31{fill:#FFFFFF;}
	.st32{fill:#4285F4;}
	.st33{fill:#EA4335;}
	.st34{fill:#FF00FF;}
	.st35{opacity:0.12;fill:#FFFFFF;}
	.st36{font-family:'MyriadPro-Regular';}
	.st37{font-size:20.0522px;}
</style>
<path class="st0" d="M0,0h600v360H0V0z"/>
<path class="st1" d="M62.5,296.5h520"/>
<path class="st2" d="M62.5,237.5h520"/>
<path class="st2" d="M62.5,178.5h520"/>
<path class="st2" d="M62.5,119.5h520"/>
<path class="st2" d="M62.5,61.5h520"/>
<g>
	<defs>
		<rect id="SVGID_1_" x="62" y="61" width="520" height="235"/>
	</defs>
	<clipPath id="SVGID_2_">
		<use xlink:href="#SVGID_1_"  style="overflow:visible;"/>
	</clipPath>
	<path class="st3" d="M109,296H88V150c0-1.1,0.9-2,2-2h17c1.1,0,2,0.9,2,2V296z"/>
</g>
<g>
	<defs>
		<rect id="SVGID_3_" x="62" y="61" width="520" height="235"/>
	</defs>
	<clipPath id="SVGID_4_">
		<use xlink:href="#SVGID_3_"  style="overflow:visible;"/>
	</clipPath>
	<path class="st4" d="M109,296H88V150c0-1.1,0.9-2,2-2h17c1.1,0,2,0.9,2,2V296z"/>
</g>
<g>
	<defs>
		<rect id="SVGID_5_" x="62" y="61" width="520" height="235"/>
	</defs>
	<clipPath id="SVGID_6_">
		<use xlink:href="#SVGID_5_"  style="overflow:visible;"/>
	</clipPath>
	<path class="st5" d="M180,296h-21V134c0-1.1,0.9-2,2-2h17c1.1,0,2,0.9,2,2V296z"/>
</g>
<g>
	<defs>
		<rect id="SVGID_7_" x="62" y="61" width="520" height="235"/>
	</defs>
	<clipPath id="SVGID_8_">
		<use xlink:href="#SVGID_7_"  style="overflow:visible;"/>
	</clipPath>
	<path class="st6" d="M180,296h-21V134c0-1.1,0.9-2,2-2h17c1.1,0,2,0.9,2,2V296z"/>
</g>
<g>
	<defs>
		<rect id="SVGID_9_" x="62" y="61" width="520" height="235"/>
	</defs>
	<clipPath id="SVGID_10_">
		<use xlink:href="#SVGID_9_"  style="overflow:visible;"/>
	</clipPath>
	<path class="st7" d="M250,296h-21V126c0-1.1,0.9-2,2-2h17c1.1,0,2,0.9,2,2V296z"/>
</g>
<g>
	<defs>
		<rect id="SVGID_11_" x="62" y="61" width="520" height="235"/>
	</defs>
	<clipPath id="SVGID_12_">
		<use xlink:href="#SVGID_11_"  style="overflow:visible;"/>
	</clipPath>
	<path class="st8" d="M250,296h-21V126c0-1.1,0.9-2,2-2h17c1.1,0,2,0.9,2,2V296z"/>
</g>
<g>
	<defs>
		<rect id="SVGID_13_" x="62" y="61" width="520" height="235"/>
	</defs>
	<clipPath id="SVGID_14_">
		<use xlink:href="#SVGID_13_"  style="overflow:visible;"/>
	</clipPath>
	<path class="st9" d="M321,296h-21V186c0-1.1,0.9-2,2-2h17c1.1,0,2,0.9,2,2V296z"/>
</g>
<g>
	<defs>
		<rect id="SVGID_15_" x="62" y="61" width="520" height="235"/>
	</defs>
	<clipPath id="SVGID_16_">
		<use xlink:href="#SVGID_15_"  style="overflow:visible;"/>
	</clipPath>
	<path class="st10" d="M321,296h-21V186c0-1.1,0.9-2,2-2h17c1.1,0,2,0.9,2,2V296z"/>
</g>
<g>
	<defs>
		<rect id="SVGID_17_" x="62" y="61" width="520" height="235"/>
	</defs>
	<clipPath id="SVGID_18_">
		<use xlink:href="#SVGID_17_"  style="overflow:visible;"/>
	</clipPath>
	<path class="st11" d="M392,296h-21V175c0-1.1,0.9-2,2-2h17c1.1,0,2,0.9,2,2V296z"/>
</g>
<g>
	<defs>
		<rect id="SVGID_19_" x="62" y="61" width="520" height="235"/>
	</defs>
	<clipPath id="SVGID_20_">
		<use xlink:href="#SVGID_19_"  style="overflow:visible;"/>
	</clipPath>
	<path class="st12" d="M392,296h-21V175c0-1.1,0.9-2,2-2h17c1.1,0,2,0.9,2,2V296z"/>
</g>
<g>
	<defs>
		<rect id="SVGID_21_" x="62" y="61" width="520" height="235"/>
	</defs>
	<clipPath id="SVGID_22_">
		<use xlink:href="#SVGID_21_"  style="overflow:visible;"/>
	</clipPath>
	<path class="st13" d="M462,296h-21V172c0-1.1,0.9-2,2-2h17c1.1,0,2,0.9,2,2V296z"/>
</g>
<g>
	<defs>
		<rect id="SVGID_23_" x="62" y="61" width="520" height="235"/>
	</defs>
	<clipPath id="SVGID_24_">
		<use xlink:href="#SVGID_23_"  style="overflow:visible;"/>
	</clipPath>
	<path class="st14" d="M462,296h-21V172c0-1.1,0.9-2,2-2h17c1.1,0,2,0.9,2,2V296z"/>
</g>
<g>
	<defs>
		<rect id="SVGID_25_" x="62" y="61" width="520" height="235"/>
	</defs>
	<clipPath id="SVGID_26_">
		<use xlink:href="#SVGID_25_"  style="overflow:visible;"/>
	</clipPath>
	<path class="st15" d="M533,296h-21v-62c0-1.1,0.9-2,2-2h17c1.1,0,2,0.9,2,2V296z"/>
</g>
<g>
	<defs>
		<rect id="SVGID_27_" x="62" y="61" width="520" height="235"/>
	</defs>
	<clipPath id="SVGID_28_">
		<use xlink:href="#SVGID_27_"  style="overflow:visible;"/>
	</clipPath>
	<path class="st16" d="M533,296h-21v-62c0-1.1,0.9-2,2-2h17c1.1,0,2,0.9,2,2V296z"/>
</g>
<g>
	<defs>
		<rect id="SVGID_29_" x="62" y="61" width="520" height="235"/>
	</defs>
	<clipPath id="SVGID_30_">
		<use xlink:href="#SVGID_29_"  style="overflow:visible;"/>
	</clipPath>
	<path class="st17" d="M132,296h-21V124c0-1.1,0.9-2,2-2h17c1.1,0,2,0.9,2,2V296z"/>
</g>
<g>
	<defs>
		<rect id="SVGID_31_" x="62" y="61" width="520" height="235"/>
	</defs>
	<clipPath id="SVGID_32_">
		<use xlink:href="#SVGID_31_"  style="overflow:visible;"/>
	</clipPath>
	<path class="st18" d="M132,296h-21V124c0-1.1,0.9-2,2-2h17c1.1,0,2,0.9,2,2V296z"/>
</g>
<g>
	<defs>
		<rect id="SVGID_33_" x="62" y="61" width="520" height="235"/>
	</defs>
	<clipPath id="SVGID_34_">
		<use xlink:href="#SVGID_33_"  style="overflow:visible;"/>
	</clipPath>
	<path class="st19" d="M203,296h-21V110c0-1.1,0.9-2,2-2h17c1.1,0,2,0.9,2,2V296z"/>
</g>
<g>
	<defs>
		<rect id="SVGID_35_" x="62" y="61" width="520" height="235"/>
	</defs>
	<clipPath id="SVGID_36_">
		<use xlink:href="#SVGID_35_"  style="overflow:visible;"/>
	</clipPath>
	<path class="st20" d="M203,296h-21V110c0-1.1,0.9-2,2-2h17c1.1,0,2,0.9,2,2V296z"/>
</g>
<g>
	<defs>
		<rect id="SVGID_37_" x="62" y="61" width="520" height="235"/>
	</defs>
	<clipPath id="SVGID_38_">
		<use xlink:href="#SVGID_37_"  style="overflow:visible;"/>
	</clipPath>
	<path class="st21" d="M273,296h-21V87c0-1.1,0.9-2,2-2h17c1.1,0,2,0.9,2,2V296z"/>
</g>
<g>
	<defs>
		<rect id="SVGID_39_" x="62" y="61" width="520" height="235"/>
	</defs>
	<clipPath id="SVGID_40_">
		<use xlink:href="#SVGID_39_"  style="overflow:visible;"/>
	</clipPath>
	<path class="st22" d="M273,296h-21V87c0-1.1,0.9-2,2-2h17c1.1,0,2,0.9,2,2V296z"/>
</g>
<g>
	<defs>
		<rect id="SVGID_41_" x="62" y="61" width="520" height="235"/>
	</defs>
	<clipPath id="SVGID_42_">
		<use xlink:href="#SVGID_41_"  style="overflow:visible;"/>
	</clipPath>
	<path class="st23" d="M344,296h-21V181c0-1.1,0.9-2,2-2h17c1.1,0,2,0.9,2,2V296z"/>
</g>
<g>
	<defs>
		<rect id="SVGID_43_" x="62" y="61" width="520" height="235"/>
	</defs>
	<clipPath id="SVGID_44_">
		<use xlink:href="#SVGID_43_"  style="overflow:visible;"/>
	</clipPath>
	<path class="st24" d="M344,296h-21V181c0-1.1,0.9-2,2-2h17c1.1,0,2,0.9,2,2V296z"/>
</g>
<g>
	<defs>
		<rect id="SVGID_45_" x="62" y="61" width="520" height="235"/>
	</defs>
	<clipPath id="SVGID_46_">
		<use xlink:href="#SVGID_45_"  style="overflow:visible;"/>
	</clipPath>
	<path class="st25" d="M415,296h-21V172c0-1.1,0.9-2,2-2h17c1.1,0,2,0.9,2,2V296z"/>
</g>
<g>
	<defs>
		<rect id="SVGID_47_" x="62" y="61" width="520" height="235"/>
	</defs>
	<clipPath id="SVGID_48_">
		<use xlink:href="#SVGID_47_"  style="overflow:visible;"/>
	</clipPath>
	<path class="st26" d="M415,296h-21V172c0-1.1,0.9-2,2-2h17c1.1,0,2,0.9,2,2V296z"/>
</g>
<g>
	<defs>
		<rect id="SVGID_49_" x="62" y="61" width="520" height="235"/>
	</defs>
	<clipPath id="SVGID_50_">
		<use xlink:href="#SVGID_49_"  style="overflow:visible;"/>
	</clipPath>
	<path class="st27" d="M485,296h-21V172c0-1.1,0.9-2,2-2h17c1.1,0,2,0.9,2,2V296z"/>
</g>
<g>
	<defs>
		<rect id="SVGID_51_" x="62" y="61" width="520" height="235"/>
	</defs>
	<clipPath id="SVGID_52_">
		<use xlink:href="#SVGID_51_"  style="overflow:visible;"/>
	</clipPath>
	<path class="st28" d="M485,296h-21V172c0-1.1,0.9-2,2-2h17c1.1,0,2,0.9,2,2V296z"/>
</g>
<g>
	<defs>
		<rect id="SVGID_53_" x="62" y="61" width="520" height="235"/>
	</defs>
	<clipPath id="SVGID_54_">
		<use xlink:href="#SVGID_53_"  style="overflow:visible;"/>
	</clipPath>
	<path class="st29" d="M556,296h-21l0,0H556z"/>
</g>
<g>
	<defs>
		<rect id="SVGID_55_" x="62" y="61" width="520" height="235"/>
	</defs>
	<clipPath id="SVGID_56_">
		<use xlink:href="#SVGID_55_"  style="overflow:visible;"/>
	</clipPath>
	<path class="st30" d="M556,296h-21l0,0H556z"/>
</g>
<path class="st31" d="M28,301.2v-1c-0.5-0.1-0.9-0.2-1.3-0.4s-0.6-0.4-0.9-0.8c-0.2-0.4-0.4-0.9-0.4-1.4l1.1-0.2
	c0.1,0.6,0.2,1,0.4,1.2c0.3,0.4,0.7,0.6,1.1,0.6v-3.4c-0.4-0.1-0.9-0.3-1.3-0.5c-0.3-0.2-0.6-0.4-0.8-0.8c-0.2-0.3-0.3-0.7-0.3-1.1
	c0-0.8,0.3-1.4,0.8-1.8c0.4-0.3,0.9-0.5,1.6-0.6v-0.5h0.6v0.5c0.6,0.1,1.1,0.2,1.5,0.5c0.5,0.4,0.8,0.9,0.8,1.6l-1.1,0.2
	c-0.1-0.4-0.2-0.7-0.4-1s-0.5-0.4-0.8-0.4v3c0.5,0.1,0.9,0.2,1.1,0.3c0.3,0.1,0.6,0.3,0.8,0.5s0.4,0.5,0.5,0.8
	c0.1,0.3,0.2,0.6,0.2,0.9c0,0.7-0.2,1.3-0.7,1.8c-0.5,0.5-1.1,0.8-1.8,0.8v1.1H28z M28,292c-0.4,0.1-0.7,0.2-1,0.5
	c-0.2,0.3-0.3,0.6-0.3,0.9c0,0.4,0.1,0.7,0.3,0.9c0.2,0.2,0.5,0.4,1,0.6V292z M28.6,299.3c0.4-0.1,0.7-0.2,1-0.5
	c0.3-0.3,0.4-0.7,0.4-1.1c0-0.4-0.1-0.7-0.3-0.9c-0.2-0.2-0.6-0.4-1.1-0.6V299.3z M32.5,295.8c0-1,0.1-1.8,0.3-2.5
	c0.2-0.6,0.5-1.1,0.9-1.4c0.4-0.3,0.9-0.5,1.6-0.5c0.5,0,0.9,0.1,1.2,0.3c0.4,0.2,0.6,0.5,0.9,0.8c0.2,0.3,0.4,0.8,0.5,1.3
	s0.2,1.2,0.2,2c0,1-0.1,1.8-0.3,2.4c-0.2,0.6-0.5,1.1-0.9,1.4c-0.4,0.3-0.9,0.5-1.6,0.5c-0.8,0-1.5-0.3-2-0.9
	C32.8,298.5,32.5,297.4,32.5,295.8z M33.6,295.8c0,1.4,0.2,2.3,0.5,2.8s0.7,0.7,1.2,0.7c0.5,0,0.9-0.2,1.2-0.7
	c0.3-0.5,0.5-1.4,0.5-2.8c0-1.4-0.2-2.4-0.5-2.8c-0.3-0.5-0.7-0.7-1.2-0.7c-0.5,0-0.9,0.2-1.2,0.6C33.8,293.4,33.6,294.3,33.6,295.8
	z M40.1,300v-1.2h1.2v1.2H40.1z M42.5,295.8c0-1,0.1-1.8,0.3-2.5c0.2-0.6,0.5-1.1,0.9-1.4c0.4-0.3,0.9-0.5,1.6-0.5
	c0.5,0,0.9,0.1,1.2,0.3c0.4,0.2,0.6,0.5,0.9,0.8c0.2,0.3,0.4,0.8,0.5,1.3s0.2,1.2,0.2,2c0,1-0.1,1.8-0.3,2.4
	c-0.2,0.6-0.5,1.1-0.9,1.4c-0.4,0.3-0.9,0.5-1.6,0.5c-0.8,0-1.5-0.3-2-0.9C42.8,298.5,42.5,297.4,42.5,295.8z M43.6,295.8
	c0,1.4,0.2,2.3,0.5,2.8s0.7,0.7,1.2,0.7c0.5,0,0.9-0.2,1.2-0.7c0.3-0.5,0.5-1.4,0.5-2.8c0-1.4-0.2-2.4-0.5-2.8
	c-0.3-0.5-0.7-0.7-1.2-0.7c-0.5,0-0.9,0.2-1.2,0.6C43.8,293.4,43.6,294.3,43.6,295.8z M49.5,295.8c0-1,0.1-1.8,0.3-2.5
	c0.2-0.6,0.5-1.1,0.9-1.4c0.4-0.3,0.9-0.5,1.6-0.5c0.5,0,0.9,0.1,1.2,0.3c0.4,0.2,0.6,0.5,0.9,0.8c0.2,0.3,0.4,0.8,0.5,1.3
	s0.2,1.2,0.2,2c0,1-0.1,1.8-0.3,2.4c-0.2,0.6-0.5,1.1-0.9,1.4c-0.4,0.3-0.9,0.5-1.6,0.5c-0.8,0-1.5-0.3-2-0.9
	C49.8,298.5,49.5,297.4,49.5,295.8z M50.6,295.8c0,1.4,0.2,2.3,0.5,2.8s0.7,0.7,1.2,0.7c0.5,0,0.9-0.2,1.2-0.7
	c0.3-0.5,0.5-1.4,0.5-2.8c0-1.4-0.2-2.4-0.5-2.8c-0.3-0.5-0.7-0.7-1.2-0.7c-0.5,0-0.9,0.2-1.2,0.6C50.8,293.4,50.6,294.3,50.6,295.8
	z"/>
<path class="st31" d="M21,242.5v-1c-0.5-0.1-0.9-0.2-1.3-0.4s-0.6-0.4-0.9-0.8c-0.2-0.4-0.4-0.9-0.4-1.4l1.1-0.2
	c0.1,0.6,0.2,1,0.4,1.2c0.3,0.4,0.7,0.6,1.1,0.6v-3.4c-0.4-0.1-0.9-0.3-1.3-0.5c-0.3-0.2-0.6-0.4-0.8-0.8c-0.2-0.3-0.3-0.7-0.3-1.1
	c0-0.8,0.3-1.4,0.8-1.8c0.4-0.3,0.9-0.5,1.6-0.6v-0.5h0.6v0.5c0.6,0.1,1.1,0.2,1.5,0.5c0.5,0.4,0.8,0.9,0.8,1.6l-1.1,0.2
	c-0.1-0.4-0.2-0.7-0.4-1s-0.5-0.4-0.8-0.4v3c0.5,0.1,0.9,0.2,1.1,0.3c0.3,0.1,0.6,0.3,0.8,0.5s0.4,0.5,0.5,0.8
	c0.1,0.3,0.2,0.6,0.2,0.9c0,0.7-0.2,1.3-0.7,1.8c-0.5,0.5-1.1,0.8-1.8,0.8v1.1H21z M21,233.2c-0.4,0.1-0.7,0.2-1,0.5
	c-0.2,0.3-0.3,0.6-0.3,0.9c0,0.4,0.1,0.7,0.3,0.9c0.2,0.2,0.5,0.4,1,0.6V233.2z M21.6,240.5c0.4-0.1,0.7-0.2,1-0.5
	c0.3-0.3,0.4-0.7,0.4-1.1c0-0.4-0.1-0.7-0.3-0.9c-0.2-0.2-0.6-0.4-1.1-0.6V240.5z M29.5,241.2h-1v-6.7c-0.3,0.2-0.6,0.5-1,0.7
	c-0.4,0.2-0.8,0.4-1.1,0.5v-1c0.6-0.3,1.1-0.6,1.5-1c0.4-0.4,0.8-0.8,1-1.2h0.7V241.2z M32.5,237c0-1,0.1-1.8,0.3-2.5
	c0.2-0.6,0.5-1.1,0.9-1.4c0.4-0.3,0.9-0.5,1.6-0.5c0.5,0,0.9,0.1,1.2,0.3c0.4,0.2,0.6,0.5,0.9,0.8c0.2,0.3,0.4,0.8,0.5,1.3
	s0.2,1.2,0.2,2c0,1-0.1,1.8-0.3,2.4c-0.2,0.6-0.5,1.1-0.9,1.4c-0.4,0.3-0.9,0.5-1.6,0.5c-0.8,0-1.5-0.3-2-0.9
	C32.8,239.8,32.5,238.6,32.5,237z M33.6,237c0,1.4,0.2,2.3,0.5,2.8s0.7,0.7,1.2,0.7c0.5,0,0.9-0.2,1.2-0.7c0.3-0.5,0.5-1.4,0.5-2.8
	c0-1.4-0.2-2.4-0.5-2.8c-0.3-0.5-0.7-0.7-1.2-0.7c-0.5,0-0.9,0.2-1.2,0.6C33.8,234.6,33.6,235.6,33.6,237z M40.1,241.2V240h1.2v1.2
	H40.1z M42.5,237c0-1,0.1-1.8,0.3-2.5c0.2-0.6,0.5-1.1,0.9-1.4c0.4-0.3,0.9-0.5,1.6-0.5c0.5,0,0.9,0.1,1.2,0.3
	c0.4,0.2,0.6,0.5,0.9,0.8c0.2,0.3,0.4,0.8,0.5,1.3s0.2,1.2,0.2,2c0,1-0.1,1.8-0.3,2.4c-0.2,0.6-0.5,1.1-0.9,1.4
	c-0.4,0.3-0.9,0.5-1.6,0.5c-0.8,0-1.5-0.3-2-0.9C42.8,239.8,42.5,238.6,42.5,237z M43.6,237c0,1.4,0.2,2.3,0.5,2.8s0.7,0.7,1.2,0.7
	c0.5,0,0.9-0.2,1.2-0.7c0.3-0.5,0.5-1.4,0.5-2.8c0-1.4-0.2-2.4-0.5-2.8c-0.3-0.5-0.7-0.7-1.2-0.7c-0.5,0-0.9,0.2-1.2,0.6
	C43.8,234.6,43.6,235.6,43.6,237z M49.5,237c0-1,0.1-1.8,0.3-2.5c0.2-0.6,0.5-1.1,0.9-1.4c0.4-0.3,0.9-0.5,1.6-0.5
	c0.5,0,0.9,0.1,1.2,0.3c0.4,0.2,0.6,0.5,0.9,0.8c0.2,0.3,0.4,0.8,0.5,1.3s0.2,1.2,0.2,2c0,1-0.1,1.8-0.3,2.4
	c-0.2,0.6-0.5,1.1-0.9,1.4c-0.4,0.3-0.9,0.5-1.6,0.5c-0.8,0-1.5-0.3-2-0.9C49.8,239.8,49.5,238.6,49.5,237z M50.6,237
	c0,1.4,0.2,2.3,0.5,2.8s0.7,0.7,1.2,0.7c0.5,0,0.9-0.2,1.2-0.7c0.3-0.5,0.5-1.4,0.5-2.8c0-1.4-0.2-2.4-0.5-2.8
	c-0.3-0.5-0.7-0.7-1.2-0.7c-0.5,0-0.9,0.2-1.2,0.6C50.8,234.6,50.6,235.6,50.6,237z"/>
<path class="st31" d="M21,183.7v-1c-0.5-0.1-0.9-0.2-1.3-0.4s-0.6-0.4-0.9-0.8c-0.2-0.4-0.4-0.9-0.4-1.4l1.1-0.2
	c0.1,0.6,0.2,1,0.4,1.2c0.3,0.4,0.7,0.6,1.1,0.6v-3.4c-0.4-0.1-0.9-0.3-1.3-0.5c-0.3-0.2-0.6-0.4-0.8-0.8c-0.2-0.3-0.3-0.7-0.3-1.1
	c0-0.8,0.3-1.4,0.8-1.8c0.4-0.3,0.9-0.5,1.6-0.6v-0.5h0.6v0.5c0.6,0.1,1.1,0.2,1.5,0.5c0.5,0.4,0.8,0.9,0.8,1.6l-1.1,0.2
	c-0.1-0.4-0.2-0.7-0.4-1s-0.5-0.4-0.8-0.4v3c0.5,0.1,0.9,0.2,1.1,0.3c0.3,0.1,0.6,0.3,0.8,0.5s0.4,0.5,0.5,0.8
	c0.1,0.3,0.2,0.6,0.2,0.9c0,0.7-0.2,1.3-0.7,1.8c-0.5,0.5-1.1,0.8-1.8,0.8v1.1H21z M21,174.5c-0.4,0.1-0.7,0.2-1,0.5
	c-0.2,0.3-0.3,0.6-0.3,0.9c0,0.4,0.1,0.7,0.3,0.9c0.2,0.2,0.5,0.4,1,0.6V174.5z M21.6,181.8c0.4-0.1,0.7-0.2,1-0.5
	c0.3-0.3,0.4-0.7,0.4-1.1c0-0.4-0.1-0.7-0.3-0.9c-0.2-0.2-0.6-0.4-1.1-0.6V181.8z M31,181.5v1h-5.7c0-0.2,0-0.5,0.1-0.7
	c0.1-0.4,0.4-0.8,0.7-1.1c0.3-0.4,0.8-0.8,1.4-1.3c0.9-0.8,1.6-1.4,1.9-1.8c0.3-0.4,0.5-0.9,0.5-1.3c0-0.4-0.2-0.8-0.5-1
	c-0.3-0.3-0.7-0.4-1.2-0.4c-0.5,0-0.9,0.2-1.2,0.5s-0.5,0.7-0.5,1.3l-1.1-0.1c0.1-0.8,0.3-1.4,0.8-1.8c0.5-0.4,1.1-0.6,2-0.6
	s1.5,0.2,2,0.7s0.7,1,0.7,1.7c0,0.3-0.1,0.7-0.2,1c-0.1,0.3-0.4,0.7-0.7,1c-0.3,0.4-0.9,0.9-1.6,1.5c-0.6,0.5-1,0.9-1.2,1.1
	c-0.2,0.2-0.3,0.4-0.4,0.6H31z M32.5,178.3c0-1,0.1-1.8,0.3-2.5c0.2-0.6,0.5-1.1,0.9-1.4c0.4-0.3,0.9-0.5,1.6-0.5
	c0.5,0,0.9,0.1,1.2,0.3c0.4,0.2,0.6,0.5,0.9,0.8c0.2,0.3,0.4,0.8,0.5,1.3s0.2,1.2,0.2,2c0,1-0.1,1.8-0.3,2.4
	c-0.2,0.6-0.5,1.1-0.9,1.4c-0.4,0.3-0.9,0.5-1.6,0.5c-0.8,0-1.5-0.3-2-0.9C32.8,181,32.5,179.9,32.5,178.3z M33.6,178.3
	c0,1.4,0.2,2.3,0.5,2.8s0.7,0.7,1.2,0.7c0.5,0,0.9-0.2,1.2-0.7c0.3-0.5,0.5-1.4,0.5-2.8c0-1.4-0.2-2.4-0.5-2.8
	c-0.3-0.5-0.7-0.7-1.2-0.7c-0.5,0-0.9,0.2-1.2,0.6C33.8,175.9,33.6,176.8,33.6,178.3z M40.1,182.5v-1.2h1.2v1.2H40.1z M42.5,178.3
	c0-1,0.1-1.8,0.3-2.5c0.2-0.6,0.5-1.1,0.9-1.4c0.4-0.3,0.9-0.5,1.6-0.5c0.5,0,0.9,0.1,1.2,0.3c0.4,0.2,0.6,0.5,0.9,0.8
	c0.2,0.3,0.4,0.8,0.5,1.3s0.2,1.2,0.2,2c0,1-0.1,1.8-0.3,2.4c-0.2,0.6-0.5,1.1-0.9,1.4c-0.4,0.3-0.9,0.5-1.6,0.5
	c-0.8,0-1.5-0.3-2-0.9C42.8,181,42.5,179.9,42.5,178.3z M43.6,178.3c0,1.4,0.2,2.3,0.5,2.8s0.7,0.7,1.2,0.7c0.5,0,0.9-0.2,1.2-0.7
	c0.3-0.5,0.5-1.4,0.5-2.8c0-1.4-0.2-2.4-0.5-2.8c-0.3-0.5-0.7-0.7-1.2-0.7c-0.5,0-0.9,0.2-1.2,0.6C43.8,175.9,43.6,176.8,43.6,178.3
	z M49.5,178.3c0-1,0.1-1.8,0.3-2.5c0.2-0.6,0.5-1.1,0.9-1.4c0.4-0.3,0.9-0.5,1.6-0.5c0.5,0,0.9,0.1,1.2,0.3c0.4,0.2,0.6,0.5,0.9,0.8
	c0.2,0.3,0.4,0.8,0.5,1.3s0.2,1.2,0.2,2c0,1-0.1,1.8-0.3,2.4c-0.2,0.6-0.5,1.1-0.9,1.4c-0.4,0.3-0.9,0.5-1.6,0.5
	c-0.8,0-1.5-0.3-2-0.9C49.8,181,49.5,179.9,49.5,178.3z M50.6,178.3c0,1.4,0.2,2.3,0.5,2.8s0.7,0.7,1.2,0.7c0.5,0,0.9-0.2,1.2-0.7
	c0.3-0.5,0.5-1.4,0.5-2.8c0-1.4-0.2-2.4-0.5-2.8c-0.3-0.5-0.7-0.7-1.2-0.7c-0.5,0-0.9,0.2-1.2,0.6C50.8,175.9,50.6,176.8,50.6,178.3
	z"/>
<path class="st31" d="M21,125v-1c-0.5-0.1-0.9-0.2-1.3-0.4s-0.6-0.4-0.9-0.8c-0.2-0.4-0.4-0.9-0.4-1.4l1.1-0.2
	c0.1,0.6,0.2,1,0.4,1.2c0.3,0.4,0.7,0.6,1.1,0.6v-3.4c-0.4-0.1-0.9-0.3-1.3-0.5c-0.3-0.2-0.6-0.4-0.8-0.8c-0.2-0.3-0.3-0.7-0.3-1.1
	c0-0.8,0.3-1.4,0.8-1.8c0.4-0.3,0.9-0.5,1.6-0.6v-0.5h0.6v0.5c0.6,0.1,1.1,0.2,1.5,0.5c0.5,0.4,0.8,0.9,0.8,1.6l-1.1,0.2
	c-0.1-0.4-0.2-0.7-0.4-1s-0.5-0.4-0.8-0.4v3c0.5,0.1,0.9,0.2,1.1,0.3c0.3,0.1,0.6,0.3,0.8,0.5s0.4,0.5,0.5,0.8
	c0.1,0.3,0.2,0.6,0.2,0.9c0,0.7-0.2,1.3-0.7,1.8c-0.5,0.5-1.1,0.8-1.8,0.8v1.1H21z M21,115.8c-0.4,0.1-0.7,0.2-1,0.5
	c-0.2,0.3-0.3,0.6-0.3,0.9c0,0.4,0.1,0.7,0.3,0.9c0.2,0.2,0.5,0.4,1,0.6V115.8z M21.6,123c0.4-0.1,0.7-0.2,1-0.5
	c0.3-0.3,0.4-0.7,0.4-1.1c0-0.4-0.1-0.7-0.3-0.9c-0.2-0.2-0.6-0.4-1.1-0.6V123z M25.5,121.5l1.1-0.1c0.1,0.6,0.3,1,0.6,1.3
	c0.3,0.3,0.6,0.4,1.1,0.4c0.5,0,0.9-0.2,1.3-0.5s0.5-0.8,0.5-1.3c0-0.5-0.2-0.9-0.5-1.2c-0.3-0.3-0.7-0.5-1.2-0.5
	c-0.2,0-0.4,0-0.8,0.1l0.1-0.9c0.1,0,0.1,0,0.2,0c0.4,0,0.8-0.1,1.2-0.3c0.4-0.2,0.5-0.6,0.5-1.1c0-0.4-0.1-0.7-0.4-1
	c-0.3-0.3-0.6-0.4-1-0.4c-0.4,0-0.8,0.1-1,0.4c-0.3,0.3-0.4,0.6-0.5,1.2l-1.1-0.2c0.1-0.7,0.4-1.2,0.9-1.6c0.5-0.4,1-0.6,1.7-0.6
	c0.5,0,0.9,0.1,1.3,0.3c0.4,0.2,0.7,0.5,0.9,0.8s0.3,0.7,0.3,1.1c0,0.4-0.1,0.7-0.3,1c-0.2,0.3-0.5,0.5-0.9,0.7
	c0.5,0.1,0.9,0.4,1.2,0.7c0.3,0.4,0.4,0.8,0.4,1.4c0,0.8-0.3,1.4-0.8,1.9c-0.5,0.5-1.2,0.8-2.1,0.8c-0.8,0-1.4-0.2-1.9-0.7
	C25.9,122.8,25.6,122.2,25.5,121.5z M32.5,119.5c0-1,0.1-1.8,0.3-2.5c0.2-0.6,0.5-1.1,0.9-1.4c0.4-0.3,0.9-0.5,1.6-0.5
	c0.5,0,0.9,0.1,1.2,0.3c0.4,0.2,0.6,0.5,0.9,0.8c0.2,0.3,0.4,0.8,0.5,1.3s0.2,1.2,0.2,2c0,1-0.1,1.8-0.3,2.4
	c-0.2,0.6-0.5,1.1-0.9,1.4c-0.4,0.3-0.9,0.5-1.6,0.5c-0.8,0-1.5-0.3-2-0.9C32.8,122.3,32.5,121.1,32.5,119.5z M33.6,119.5
	c0,1.4,0.2,2.3,0.5,2.8s0.7,0.7,1.2,0.7c0.5,0,0.9-0.2,1.2-0.7c0.3-0.5,0.5-1.4,0.5-2.8c0-1.4-0.2-2.4-0.5-2.8
	c-0.3-0.5-0.7-0.7-1.2-0.7c-0.5,0-0.9,0.2-1.2,0.6C33.8,117.1,33.6,118.1,33.6,119.5z M40.1,123.8v-1.2h1.2v1.2H40.1z M42.5,119.5
	c0-1,0.1-1.8,0.3-2.5c0.2-0.6,0.5-1.1,0.9-1.4c0.4-0.3,0.9-0.5,1.6-0.5c0.5,0,0.9,0.1,1.2,0.3c0.4,0.2,0.6,0.5,0.9,0.8
	c0.2,0.3,0.4,0.8,0.5,1.3s0.2,1.2,0.2,2c0,1-0.1,1.8-0.3,2.4c-0.2,0.6-0.5,1.1-0.9,1.4c-0.4,0.3-0.9,0.5-1.6,0.5
	c-0.8,0-1.5-0.3-2-0.9C42.8,122.3,42.5,121.1,42.5,119.5z M43.6,119.5c0,1.4,0.2,2.3,0.5,2.8s0.7,0.7,1.2,0.7c0.5,0,0.9-0.2,1.2-0.7
	c0.3-0.5,0.5-1.4,0.5-2.8c0-1.4-0.2-2.4-0.5-2.8c-0.3-0.5-0.7-0.7-1.2-0.7c-0.5,0-0.9,0.2-1.2,0.6C43.8,117.1,43.6,118.1,43.6,119.5
	z M49.5,119.5c0-1,0.1-1.8,0.3-2.5c0.2-0.6,0.5-1.1,0.9-1.4c0.4-0.3,0.9-0.5,1.6-0.5c0.5,0,0.9,0.1,1.2,0.3c0.4,0.2,0.6,0.5,0.9,0.8
	c0.2,0.3,0.4,0.8,0.5,1.3s0.2,1.2,0.2,2c0,1-0.1,1.8-0.3,2.4c-0.2,0.6-0.5,1.1-0.9,1.4c-0.4,0.3-0.9,0.5-1.6,0.5
	c-0.8,0-1.5-0.3-2-0.9C49.8,122.3,49.5,121.1,49.5,119.5z M50.6,119.5c0,1.4,0.2,2.3,0.5,2.8s0.7,0.7,1.2,0.7c0.5,0,0.9-0.2,1.2-0.7
	c0.3-0.5,0.5-1.4,0.5-2.8c0-1.4-0.2-2.4-0.5-2.8c-0.3-0.5-0.7-0.7-1.2-0.7c-0.5,0-0.9,0.2-1.2,0.6C50.8,117.1,50.6,118.1,50.6,119.5
	z"/>
<path class="st31" d="M21,66.2v-1c-0.5-0.1-0.9-0.2-1.3-0.4s-0.6-0.4-0.9-0.8c-0.2-0.4-0.4-0.9-0.4-1.4l1.1-0.2
	c0.1,0.6,0.2,1,0.4,1.2c0.3,0.4,0.7,0.6,1.1,0.6v-3.4c-0.4-0.1-0.9-0.3-1.3-0.5c-0.3-0.2-0.6-0.4-0.8-0.8c-0.2-0.3-0.3-0.7-0.3-1.1
	c0-0.8,0.3-1.4,0.8-1.8c0.4-0.3,0.9-0.5,1.6-0.6v-0.5h0.6v0.5c0.6,0.1,1.1,0.2,1.5,0.5c0.5,0.4,0.8,0.9,0.8,1.6l-1.1,0.2
	c-0.1-0.4-0.2-0.7-0.4-1S22,57.1,21.6,57v3c0.5,0.1,0.9,0.2,1.1,0.3c0.3,0.1,0.6,0.3,0.8,0.5s0.4,0.5,0.5,0.8
	c0.1,0.3,0.2,0.6,0.2,0.9c0,0.7-0.2,1.3-0.7,1.8c-0.5,0.5-1.1,0.8-1.8,0.8v1.1H21z M21,57c-0.4,0.1-0.7,0.2-1,0.5
	c-0.2,0.3-0.3,0.6-0.3,0.9c0,0.4,0.1,0.7,0.3,0.9c0.2,0.2,0.5,0.4,1,0.6V57z M21.6,64.3c0.4-0.1,0.7-0.2,1-0.5
	c0.3-0.3,0.4-0.7,0.4-1.1c0-0.4-0.1-0.7-0.3-0.9c-0.2-0.2-0.6-0.4-1.1-0.6V64.3z M28.9,65v-2.1h-3.7v-1l3.9-5.6h0.9V62h1.2v1h-1.2
	V65H28.9z M28.9,62v-3.9L26.2,62H28.9z M32.5,60.8c0-1,0.1-1.8,0.3-2.5c0.2-0.6,0.5-1.1,0.9-1.4c0.4-0.3,0.9-0.5,1.6-0.5
	c0.5,0,0.9,0.1,1.2,0.3c0.4,0.2,0.6,0.5,0.9,0.8c0.2,0.3,0.4,0.8,0.5,1.3s0.2,1.2,0.2,2c0,1-0.1,1.8-0.3,2.4
	c-0.2,0.6-0.5,1.1-0.9,1.4c-0.4,0.3-0.9,0.5-1.6,0.5c-0.8,0-1.5-0.3-2-0.9C32.8,63.5,32.5,62.4,32.5,60.8z M33.6,60.8
	c0,1.4,0.2,2.3,0.5,2.8s0.7,0.7,1.2,0.7c0.5,0,0.9-0.2,1.2-0.7c0.3-0.5,0.5-1.4,0.5-2.8c0-1.4-0.2-2.4-0.5-2.8
	c-0.3-0.5-0.7-0.7-1.2-0.7c-0.5,0-0.9,0.2-1.2,0.6C33.8,58.4,33.6,59.3,33.6,60.8z M40.1,65v-1.2h1.2V65H40.1z M42.5,60.8
	c0-1,0.1-1.8,0.3-2.5c0.2-0.6,0.5-1.1,0.9-1.4c0.4-0.3,0.9-0.5,1.6-0.5c0.5,0,0.9,0.1,1.2,0.3c0.4,0.2,0.6,0.5,0.9,0.8
	c0.2,0.3,0.4,0.8,0.5,1.3s0.2,1.2,0.2,2c0,1-0.1,1.8-0.3,2.4c-0.2,0.6-0.5,1.1-0.9,1.4c-0.4,0.3-0.9,0.5-1.6,0.5
	c-0.8,0-1.5-0.3-2-0.9C42.8,63.5,42.5,62.4,42.5,60.8z M43.6,60.8c0,1.4,0.2,2.3,0.5,2.8s0.7,0.7,1.2,0.7c0.5,0,0.9-0.2,1.2-0.7
	c0.3-0.5,0.5-1.4,0.5-2.8c0-1.4-0.2-2.4-0.5-2.8c-0.3-0.5-0.7-0.7-1.2-0.7c-0.5,0-0.9,0.2-1.2,0.6C43.8,58.4,43.6,59.3,43.6,60.8z
	 M49.5,60.8c0-1,0.1-1.8,0.3-2.5c0.2-0.6,0.5-1.1,0.9-1.4c0.4-0.3,0.9-0.5,1.6-0.5c0.5,0,0.9,0.1,1.2,0.3c0.4,0.2,0.6,0.5,0.9,0.8
	c0.2,0.3,0.4,0.8,0.5,1.3s0.2,1.2,0.2,2c0,1-0.1,1.8-0.3,2.4c-0.2,0.6-0.5,1.1-0.9,1.4c-0.4,0.3-0.9,0.5-1.6,0.5
	c-0.8,0-1.5-0.3-2-0.9C49.8,63.5,49.5,62.4,49.5,60.8z M50.6,60.8c0,1.4,0.2,2.3,0.5,2.8s0.7,0.7,1.2,0.7c0.5,0,0.9-0.2,1.2-0.7
	c0.3-0.5,0.5-1.4,0.5-2.8c0-1.4-0.2-2.4-0.5-2.8c-0.3-0.5-0.7-0.7-1.2-0.7c-0.5,0-0.9,0.2-1.2,0.6C50.8,58.4,50.6,59.3,50.6,60.8z"
	/>
<path class="st31" d="M101.8,312v1h-5.7c0-0.2,0-0.5,0.1-0.7c0.1-0.4,0.4-0.8,0.7-1.1c0.3-0.4,0.8-0.8,1.4-1.3
	c0.9-0.8,1.6-1.4,1.9-1.8c0.3-0.4,0.5-0.9,0.5-1.3c0-0.4-0.2-0.8-0.5-1c-0.3-0.3-0.7-0.4-1.2-0.4c-0.5,0-0.9,0.2-1.2,0.5
	c-0.3,0.3-0.5,0.7-0.5,1.3l-1.1-0.1c0.1-0.8,0.3-1.4,0.8-1.8c0.5-0.4,1.1-0.6,2-0.6c0.8,0,1.5,0.2,2,0.7c0.5,0.5,0.7,1,0.7,1.7
	c0,0.3-0.1,0.7-0.2,1c-0.1,0.3-0.4,0.7-0.7,1c-0.3,0.4-0.9,0.9-1.6,1.5c-0.6,0.5-1,0.9-1.2,1.1c-0.2,0.2-0.3,0.4-0.4,0.6H101.8z
	 M103.3,308.8c0-1,0.1-1.8,0.3-2.5c0.2-0.6,0.5-1.1,0.9-1.4c0.4-0.3,0.9-0.5,1.6-0.5c0.5,0,0.9,0.1,1.2,0.3c0.4,0.2,0.6,0.5,0.9,0.8
	c0.2,0.3,0.4,0.8,0.5,1.3s0.2,1.2,0.2,2c0,1-0.1,1.8-0.3,2.4c-0.2,0.6-0.5,1.1-0.9,1.4c-0.4,0.3-0.9,0.5-1.6,0.5
	c-0.8,0-1.5-0.3-2-0.9C103.5,311.5,103.3,310.4,103.3,308.8z M104.3,308.8c0,1.4,0.2,2.3,0.5,2.8c0.3,0.5,0.7,0.7,1.2,0.7
	c0.5,0,0.9-0.2,1.2-0.7c0.3-0.5,0.5-1.4,0.5-2.8c0-1.4-0.2-2.4-0.5-2.8c-0.3-0.5-0.7-0.7-1.2-0.7c-0.5,0-0.9,0.2-1.2,0.6
	C104.5,306.4,104.3,307.3,104.3,308.8z M114.2,313h-1v-6.7c-0.3,0.2-0.6,0.5-1,0.7c-0.4,0.2-0.8,0.4-1.1,0.5v-1
	c0.6-0.3,1.1-0.6,1.5-1c0.4-0.4,0.8-0.8,1-1.2h0.7V313z M117.3,305.5v-1h5.6v0.8c-0.5,0.6-1.1,1.4-1.6,2.3c-0.5,1-0.9,1.9-1.2,3
	c-0.2,0.7-0.4,1.5-0.4,2.4h-1.1c0-0.7,0.1-1.5,0.4-2.5c0.3-1,0.6-1.9,1.1-2.8c0.5-0.9,1-1.6,1.5-2.2H117.3z"/>
<path class="st31" d="M172.6,312v1h-5.7c0-0.2,0-0.5,0.1-0.7c0.1-0.4,0.4-0.8,0.7-1.1c0.3-0.4,0.8-0.8,1.4-1.3
	c0.9-0.8,1.6-1.4,1.9-1.8c0.3-0.4,0.5-0.9,0.5-1.3c0-0.4-0.2-0.8-0.5-1c-0.3-0.3-0.7-0.4-1.2-0.4c-0.5,0-0.9,0.2-1.2,0.5
	c-0.3,0.3-0.5,0.7-0.5,1.3l-1.1-0.1c0.1-0.8,0.3-1.4,0.8-1.8c0.5-0.4,1.1-0.6,2-0.6c0.8,0,1.5,0.2,2,0.7c0.5,0.5,0.7,1,0.7,1.7
	c0,0.3-0.1,0.7-0.2,1c-0.1,0.3-0.4,0.7-0.7,1c-0.3,0.4-0.9,0.9-1.6,1.5c-0.6,0.5-1,0.9-1.2,1.1c-0.2,0.2-0.3,0.4-0.4,0.6H172.6z
	 M174,308.8c0-1,0.1-1.8,0.3-2.5c0.2-0.6,0.5-1.1,0.9-1.4c0.4-0.3,0.9-0.5,1.6-0.5c0.5,0,0.9,0.1,1.2,0.3c0.4,0.2,0.6,0.5,0.9,0.8
	c0.2,0.3,0.4,0.8,0.5,1.3s0.2,1.2,0.2,2c0,1-0.1,1.8-0.3,2.4c-0.2,0.6-0.5,1.1-0.9,1.4c-0.4,0.3-0.9,0.5-1.6,0.5
	c-0.8,0-1.5-0.3-2-0.9C174.3,311.5,174,310.4,174,308.8z M175.1,308.8c0,1.4,0.2,2.3,0.5,2.8c0.3,0.5,0.7,0.7,1.2,0.7
	c0.5,0,0.9-0.2,1.2-0.7c0.3-0.5,0.5-1.4,0.5-2.8c0-1.4-0.2-2.4-0.5-2.8c-0.3-0.5-0.7-0.7-1.2-0.7c-0.5,0-0.9,0.2-1.2,0.6
	C175.3,306.4,175.1,307.3,175.1,308.8z M185,313h-1v-6.7c-0.3,0.2-0.6,0.5-1,0.7c-0.4,0.2-0.8,0.4-1.1,0.5v-1c0.6-0.3,1.1-0.6,1.5-1
	c0.4-0.4,0.8-0.8,1-1.2h0.7V313z M189.6,308.3c-0.4-0.2-0.8-0.4-1-0.7c-0.2-0.3-0.3-0.7-0.3-1.1c0-0.6,0.2-1.2,0.7-1.6
	c0.5-0.4,1.1-0.6,1.8-0.6c0.8,0,1.4,0.2,1.8,0.7c0.5,0.4,0.7,1,0.7,1.6c0,0.4-0.1,0.7-0.3,1c-0.2,0.3-0.5,0.5-1,0.7
	c0.5,0.2,0.9,0.4,1.2,0.8c0.3,0.4,0.4,0.8,0.4,1.4c0,0.7-0.3,1.3-0.8,1.8c-0.5,0.5-1.2,0.8-2,0.8c-0.8,0-1.5-0.2-2-0.8
	c-0.5-0.5-0.8-1.1-0.8-1.9c0-0.6,0.1-1,0.4-1.4C188.7,308.7,189.1,308.5,189.6,308.3z M189.4,306.5c0,0.4,0.1,0.7,0.4,1
	c0.3,0.3,0.6,0.4,1,0.4c0.4,0,0.7-0.1,1-0.4c0.3-0.3,0.4-0.6,0.4-1c0-0.4-0.1-0.7-0.4-1c-0.3-0.3-0.6-0.4-1-0.4
	c-0.4,0-0.7,0.1-1,0.4C189.5,305.9,189.4,306.2,189.4,306.5z M189.1,310.5c0,0.3,0.1,0.6,0.2,0.9c0.1,0.3,0.4,0.5,0.6,0.7
	s0.6,0.2,0.9,0.2c0.5,0,0.9-0.2,1.2-0.5c0.3-0.3,0.5-0.7,0.5-1.2c0-0.5-0.2-0.9-0.5-1.3c-0.3-0.3-0.8-0.5-1.3-0.5
	c-0.5,0-0.9,0.2-1.2,0.5C189.2,309.6,189.1,310,189.1,310.5z"/>
<path class="st31" d="M243.3,312v1h-5.7c0-0.2,0-0.5,0.1-0.7c0.1-0.4,0.4-0.8,0.7-1.1c0.3-0.4,0.8-0.8,1.4-1.3
	c0.9-0.8,1.6-1.4,1.9-1.8c0.3-0.4,0.5-0.9,0.5-1.3c0-0.4-0.2-0.8-0.5-1c-0.3-0.3-0.7-0.4-1.2-0.4c-0.5,0-0.9,0.2-1.2,0.5
	c-0.3,0.3-0.5,0.7-0.5,1.3l-1.1-0.1c0.1-0.8,0.3-1.4,0.8-1.8c0.5-0.4,1.1-0.6,2-0.6c0.8,0,1.5,0.2,2,0.7c0.5,0.5,0.7,1,0.7,1.7
	c0,0.3-0.1,0.7-0.2,1c-0.1,0.3-0.4,0.7-0.7,1c-0.3,0.4-0.9,0.9-1.6,1.5c-0.6,0.5-1,0.9-1.2,1.1c-0.2,0.2-0.3,0.4-0.4,0.6H243.3z
	 M244.8,308.8c0-1,0.1-1.8,0.3-2.5c0.2-0.6,0.5-1.1,0.9-1.4c0.4-0.3,0.9-0.5,1.6-0.5c0.5,0,0.9,0.1,1.2,0.3c0.4,0.2,0.6,0.5,0.9,0.8
	c0.2,0.3,0.4,0.8,0.5,1.3s0.2,1.2,0.2,2c0,1-0.1,1.8-0.3,2.4c-0.2,0.6-0.5,1.1-0.9,1.4c-0.4,0.3-0.9,0.5-1.6,0.5
	c-0.8,0-1.5-0.3-2-0.9C245,311.5,244.8,310.4,244.8,308.8z M245.8,308.8c0,1.4,0.2,2.3,0.5,2.8c0.3,0.5,0.7,0.7,1.2,0.7
	c0.5,0,0.9-0.2,1.2-0.7c0.3-0.5,0.5-1.4,0.5-2.8c0-1.4-0.2-2.4-0.5-2.8c-0.3-0.5-0.7-0.7-1.2-0.7c-0.5,0-0.9,0.2-1.2,0.6
	C246,306.4,245.8,307.3,245.8,308.8z M255.7,313h-1v-6.7c-0.3,0.2-0.6,0.5-1,0.7c-0.4,0.2-0.8,0.4-1.1,0.5v-1c0.6-0.3,1.1-0.6,1.5-1
	c0.4-0.4,0.8-0.8,1-1.2h0.7V313z M258.9,311l1-0.1c0.1,0.5,0.2,0.8,0.5,1c0.2,0.2,0.6,0.3,0.9,0.3c0.3,0,0.6-0.1,0.8-0.2
	c0.2-0.2,0.5-0.4,0.6-0.6c0.2-0.2,0.3-0.6,0.4-1c0.1-0.4,0.2-0.9,0.2-1.3c0-0.1,0-0.1,0-0.2c-0.2,0.3-0.5,0.6-0.9,0.8
	c-0.4,0.2-0.8,0.3-1.2,0.3c-0.7,0-1.3-0.3-1.8-0.8c-0.5-0.5-0.7-1.2-0.7-2c0-0.9,0.3-1.6,0.8-2.1c0.5-0.5,1.2-0.8,1.9-0.8
	c0.6,0,1.1,0.2,1.5,0.5c0.5,0.3,0.8,0.7,1.1,1.3c0.2,0.6,0.4,1.4,0.4,2.4c0,1.1-0.1,2-0.4,2.6c-0.2,0.6-0.6,1.1-1.1,1.5
	c-0.5,0.3-1,0.5-1.6,0.5c-0.7,0-1.2-0.2-1.7-0.5C259.2,312.2,259,311.7,258.9,311z M263.2,307.2c0-0.6-0.2-1.1-0.5-1.4
	c-0.3-0.4-0.7-0.5-1.2-0.5c-0.5,0-0.9,0.2-1.2,0.6c-0.3,0.4-0.5,0.9-0.5,1.5c0,0.5,0.2,1,0.5,1.3s0.7,0.5,1.2,0.5
	c0.5,0,0.9-0.2,1.2-0.5S263.2,307.8,263.2,307.2z"/>
<path class="st31" d="M314,312v1h-5.7c0-0.2,0-0.5,0.1-0.7c0.1-0.4,0.4-0.8,0.7-1.1c0.3-0.4,0.8-0.8,1.4-1.3
	c0.9-0.8,1.6-1.4,1.9-1.8c0.3-0.4,0.5-0.9,0.5-1.3c0-0.4-0.2-0.8-0.5-1c-0.3-0.3-0.7-0.4-1.2-0.4c-0.5,0-0.9,0.2-1.2,0.5
	s-0.5,0.7-0.5,1.3l-1.1-0.1c0.1-0.8,0.3-1.4,0.8-1.8c0.5-0.4,1.1-0.6,2-0.6s1.5,0.2,2,0.7s0.7,1,0.7,1.7c0,0.3-0.1,0.7-0.2,1
	c-0.1,0.3-0.4,0.7-0.7,1c-0.3,0.4-0.9,0.9-1.6,1.5c-0.6,0.5-1,0.9-1.2,1.1c-0.2,0.2-0.3,0.4-0.4,0.6H314z M315.5,308.8
	c0-1,0.1-1.8,0.3-2.5c0.2-0.6,0.5-1.1,0.9-1.4c0.4-0.3,0.9-0.5,1.6-0.5c0.5,0,0.9,0.1,1.2,0.3c0.4,0.2,0.6,0.5,0.9,0.8
	c0.2,0.3,0.4,0.8,0.5,1.3s0.2,1.2,0.2,2c0,1-0.1,1.8-0.3,2.4c-0.2,0.6-0.5,1.1-0.9,1.4c-0.4,0.3-0.9,0.5-1.6,0.5
	c-0.8,0-1.5-0.3-2-0.9C315.8,311.5,315.5,310.4,315.5,308.8z M316.6,308.8c0,1.4,0.2,2.3,0.5,2.8s0.7,0.7,1.2,0.7
	c0.5,0,0.9-0.2,1.2-0.7c0.3-0.5,0.5-1.4,0.5-2.8c0-1.4-0.2-2.4-0.5-2.8c-0.3-0.5-0.7-0.7-1.2-0.7c-0.5,0-0.9,0.2-1.2,0.6
	C316.8,306.4,316.6,307.3,316.6,308.8z M328,312v1h-5.7c0-0.2,0-0.5,0.1-0.7c0.1-0.4,0.4-0.8,0.7-1.1c0.3-0.4,0.8-0.8,1.4-1.3
	c0.9-0.8,1.6-1.4,1.9-1.8c0.3-0.4,0.5-0.9,0.5-1.3c0-0.4-0.2-0.8-0.5-1c-0.3-0.3-0.7-0.4-1.2-0.4c-0.5,0-0.9,0.2-1.2,0.5
	s-0.5,0.7-0.5,1.3l-1.1-0.1c0.1-0.8,0.3-1.4,0.8-1.8c0.5-0.4,1.1-0.6,2-0.6s1.5,0.2,2,0.7s0.7,1,0.7,1.7c0,0.3-0.1,0.7-0.2,1
	c-0.1,0.3-0.4,0.7-0.7,1c-0.3,0.4-0.9,0.9-1.6,1.5c-0.6,0.5-1,0.9-1.2,1.1c-0.2,0.2-0.3,0.4-0.4,0.6H328z M335,312v1h-5.7
	c0-0.2,0-0.5,0.1-0.7c0.1-0.4,0.4-0.8,0.7-1.1c0.3-0.4,0.8-0.8,1.4-1.3c0.9-0.8,1.6-1.4,1.9-1.8c0.3-0.4,0.5-0.9,0.5-1.3
	c0-0.4-0.2-0.8-0.5-1c-0.3-0.3-0.7-0.4-1.2-0.4c-0.5,0-0.9,0.2-1.2,0.5s-0.5,0.7-0.5,1.3l-1.1-0.1c0.1-0.8,0.3-1.4,0.8-1.8
	c0.5-0.4,1.1-0.6,2-0.6s1.5,0.2,2,0.7s0.7,1,0.7,1.7c0,0.3-0.1,0.7-0.2,1c-0.1,0.3-0.4,0.7-0.7,1c-0.3,0.4-0.9,0.9-1.6,1.5
	c-0.6,0.5-1,0.9-1.2,1.1c-0.2,0.2-0.3,0.4-0.4,0.6H335z"/>
<path class="st31" d="M384.8,312v1h-5.7c0-0.2,0-0.5,0.1-0.7c0.1-0.4,0.4-0.8,0.7-1.1c0.3-0.4,0.8-0.8,1.4-1.3
	c0.9-0.8,1.6-1.4,1.9-1.8c0.3-0.4,0.5-0.9,0.5-1.3c0-0.4-0.2-0.8-0.5-1c-0.3-0.3-0.7-0.4-1.2-0.4c-0.5,0-0.9,0.2-1.2,0.5
	s-0.5,0.7-0.5,1.3l-1.1-0.1c0.1-0.8,0.3-1.4,0.8-1.8c0.5-0.4,1.1-0.6,2-0.6s1.5,0.2,2,0.7s0.7,1,0.7,1.7c0,0.3-0.1,0.7-0.2,1
	c-0.1,0.3-0.4,0.7-0.7,1c-0.3,0.4-0.9,0.9-1.6,1.5c-0.6,0.5-1,0.9-1.2,1.1c-0.2,0.2-0.3,0.4-0.4,0.6H384.8z M386.2,308.8
	c0-1,0.1-1.8,0.3-2.5c0.2-0.6,0.5-1.1,0.9-1.4c0.4-0.3,0.9-0.5,1.6-0.5c0.5,0,0.9,0.1,1.2,0.3c0.4,0.2,0.6,0.5,0.9,0.8
	c0.2,0.3,0.4,0.8,0.5,1.3s0.2,1.2,0.2,2c0,1-0.1,1.8-0.3,2.4c-0.2,0.6-0.5,1.1-0.9,1.4c-0.4,0.3-0.9,0.5-1.6,0.5
	c-0.8,0-1.5-0.3-2-0.9C386.5,311.5,386.2,310.4,386.2,308.8z M387.3,308.8c0,1.4,0.2,2.3,0.5,2.8s0.7,0.7,1.2,0.7
	c0.5,0,0.9-0.2,1.2-0.7c0.3-0.5,0.5-1.4,0.5-2.8c0-1.4-0.2-2.4-0.5-2.8c-0.3-0.5-0.7-0.7-1.2-0.7c-0.5,0-0.9,0.2-1.2,0.6
	C387.5,306.4,387.3,307.3,387.3,308.8z M398.8,312v1h-5.7c0-0.2,0-0.5,0.1-0.7c0.1-0.4,0.4-0.8,0.7-1.1c0.3-0.4,0.8-0.8,1.4-1.3
	c0.9-0.8,1.6-1.4,1.9-1.8c0.3-0.4,0.5-0.9,0.5-1.3c0-0.4-0.2-0.8-0.5-1c-0.3-0.3-0.7-0.4-1.2-0.4c-0.5,0-0.9,0.2-1.2,0.5
	s-0.5,0.7-0.5,1.3l-1.1-0.1c0.1-0.8,0.3-1.4,0.8-1.8c0.5-0.4,1.1-0.6,2-0.6s1.5,0.2,2,0.7s0.7,1,0.7,1.7c0,0.3-0.1,0.7-0.2,1
	c-0.1,0.3-0.4,0.7-0.7,1c-0.3,0.4-0.9,0.9-1.6,1.5c-0.6,0.5-1,0.9-1.2,1.1c-0.2,0.2-0.3,0.4-0.4,0.6H398.8z M400.2,310.7l1.1-0.1
	c0.1,0.6,0.3,1,0.6,1.3c0.3,0.3,0.6,0.4,1.1,0.4c0.5,0,0.9-0.2,1.3-0.5s0.5-0.8,0.5-1.3c0-0.5-0.2-0.9-0.5-1.2
	c-0.3-0.3-0.7-0.5-1.2-0.5c-0.2,0-0.4,0-0.8,0.1l0.1-0.9c0.1,0,0.1,0,0.2,0c0.4,0,0.8-0.1,1.2-0.3c0.4-0.2,0.5-0.6,0.5-1.1
	c0-0.4-0.1-0.7-0.4-1c-0.3-0.3-0.6-0.4-1-0.4c-0.4,0-0.8,0.1-1,0.4c-0.3,0.3-0.4,0.6-0.5,1.2l-1.1-0.2c0.1-0.7,0.4-1.2,0.9-1.6
	c0.5-0.4,1-0.6,1.7-0.6c0.5,0,0.9,0.1,1.3,0.3c0.4,0.2,0.7,0.5,0.9,0.8s0.3,0.7,0.3,1.1c0,0.4-0.1,0.7-0.3,1
	c-0.2,0.3-0.5,0.5-0.9,0.7c0.5,0.1,0.9,0.4,1.2,0.7c0.3,0.4,0.4,0.8,0.4,1.4c0,0.8-0.3,1.4-0.8,1.9c-0.5,0.5-1.2,0.8-2.1,0.8
	c-0.8,0-1.4-0.2-1.9-0.7C400.6,312,400.3,311.4,400.2,310.7z"/>
<path class="st31" d="M455.5,312v1h-5.7c0-0.2,0-0.5,0.1-0.7c0.1-0.4,0.4-0.8,0.7-1.1c0.3-0.4,0.8-0.8,1.4-1.3
	c0.9-0.8,1.6-1.4,1.9-1.8c0.3-0.4,0.5-0.9,0.5-1.3c0-0.4-0.2-0.8-0.5-1c-0.3-0.3-0.7-0.4-1.2-0.4c-0.5,0-0.9,0.2-1.2,0.5
	c-0.3,0.3-0.5,0.7-0.5,1.3l-1.1-0.1c0.1-0.8,0.3-1.4,0.8-1.8c0.5-0.4,1.1-0.6,2-0.6c0.8,0,1.5,0.2,2,0.7c0.5,0.5,0.7,1,0.7,1.7
	c0,0.3-0.1,0.7-0.2,1c-0.1,0.3-0.4,0.7-0.7,1c-0.3,0.4-0.9,0.9-1.6,1.5c-0.6,0.5-1,0.9-1.2,1.1c-0.2,0.2-0.3,0.4-0.4,0.6H455.5z
	 M457,308.8c0-1,0.1-1.8,0.3-2.5c0.2-0.6,0.5-1.1,0.9-1.4c0.4-0.3,0.9-0.5,1.6-0.5c0.5,0,0.9,0.1,1.2,0.3c0.4,0.2,0.6,0.5,0.9,0.8
	c0.2,0.3,0.4,0.8,0.5,1.3s0.2,1.2,0.2,2c0,1-0.1,1.8-0.3,2.4c-0.2,0.6-0.5,1.1-0.9,1.4c-0.4,0.3-0.9,0.5-1.6,0.5
	c-0.8,0-1.5-0.3-2-0.9C457.3,311.5,457,310.4,457,308.8z M458.1,308.8c0,1.4,0.2,2.3,0.5,2.8c0.3,0.5,0.7,0.7,1.2,0.7
	c0.5,0,0.9-0.2,1.2-0.7c0.3-0.5,0.5-1.4,0.5-2.8c0-1.4-0.2-2.4-0.5-2.8c-0.3-0.5-0.7-0.7-1.2-0.7c-0.5,0-0.9,0.2-1.2,0.6
	C458.3,306.4,458.1,307.3,458.1,308.8z M469.5,312v1h-5.7c0-0.2,0-0.5,0.1-0.7c0.1-0.4,0.4-0.8,0.7-1.1c0.3-0.4,0.8-0.8,1.4-1.3
	c0.9-0.8,1.6-1.4,1.9-1.8c0.3-0.4,0.5-0.9,0.5-1.3c0-0.4-0.2-0.8-0.5-1c-0.3-0.3-0.7-0.4-1.2-0.4c-0.5,0-0.9,0.2-1.2,0.5
	c-0.3,0.3-0.5,0.7-0.5,1.3l-1.1-0.1c0.1-0.8,0.3-1.4,0.8-1.8c0.5-0.4,1.1-0.6,2-0.6c0.8,0,1.5,0.2,2,0.7c0.5,0.5,0.7,1,0.7,1.7
	c0,0.3-0.1,0.7-0.2,1c-0.1,0.3-0.4,0.7-0.7,1c-0.3,0.4-0.9,0.9-1.6,1.5c-0.6,0.5-1,0.9-1.2,1.1c-0.2,0.2-0.3,0.4-0.4,0.6H469.5z
	 M474.4,313v-2.1h-3.7v-1l3.9-5.6h0.9v5.6h1.2v1h-1.2v2.1H474.4z M474.4,310v-3.9l-2.7,3.9H474.4z"/>
<path class="st31" d="M526.3,312v1h-5.7c0-0.2,0-0.5,0.1-0.7c0.1-0.4,0.4-0.8,0.7-1.1c0.3-0.4,0.8-0.8,1.4-1.3
	c0.9-0.8,1.6-1.4,1.9-1.8c0.3-0.4,0.5-0.9,0.5-1.3c0-0.4-0.2-0.8-0.5-1c-0.3-0.3-0.7-0.4-1.2-0.4c-0.5,0-0.9,0.2-1.2,0.5
	s-0.5,0.7-0.5,1.3l-1.1-0.1c0.1-0.8,0.3-1.4,0.8-1.8c0.5-0.4,1.1-0.6,2-0.6s1.5,0.2,2,0.7s0.7,1,0.7,1.7c0,0.3-0.1,0.7-0.2,1
	c-0.1,0.3-0.4,0.7-0.7,1c-0.3,0.4-0.9,0.9-1.6,1.5c-0.6,0.5-1,0.9-1.2,1.1c-0.2,0.2-0.3,0.4-0.4,0.6H526.3z M527.7,308.8
	c0-1,0.1-1.8,0.3-2.5c0.2-0.6,0.5-1.1,0.9-1.4c0.4-0.3,0.9-0.5,1.6-0.5c0.5,0,0.9,0.1,1.2,0.3c0.4,0.2,0.6,0.5,0.9,0.8
	c0.2,0.3,0.4,0.8,0.5,1.3s0.2,1.2,0.2,2c0,1-0.1,1.8-0.3,2.4c-0.2,0.6-0.5,1.1-0.9,1.4c-0.4,0.3-0.9,0.5-1.6,0.5
	c-0.8,0-1.5-0.3-2-0.9C528,311.5,527.7,310.4,527.7,308.8z M528.8,308.8c0,1.4,0.2,2.3,0.5,2.8s0.7,0.7,1.2,0.7
	c0.5,0,0.9-0.2,1.2-0.7c0.3-0.5,0.5-1.4,0.5-2.8c0-1.4-0.2-2.4-0.5-2.8c-0.3-0.5-0.7-0.7-1.2-0.7c-0.5,0-0.9,0.2-1.2,0.6
	C529,306.4,528.8,307.3,528.8,308.8z M540.3,312v1h-5.7c0-0.2,0-0.5,0.1-0.7c0.1-0.4,0.4-0.8,0.7-1.1c0.3-0.4,0.8-0.8,1.4-1.3
	c0.9-0.8,1.6-1.4,1.9-1.8c0.3-0.4,0.5-0.9,0.5-1.3c0-0.4-0.2-0.8-0.5-1c-0.3-0.3-0.7-0.4-1.2-0.4c-0.5,0-0.9,0.2-1.2,0.5
	s-0.5,0.7-0.5,1.3l-1.1-0.1c0.1-0.8,0.3-1.4,0.8-1.8c0.5-0.4,1.1-0.6,2-0.6s1.5,0.2,2,0.7s0.7,1,0.7,1.7c0,0.3-0.1,0.7-0.2,1
	c-0.1,0.3-0.4,0.7-0.7,1c-0.3,0.4-0.9,0.9-1.6,1.5c-0.6,0.5-1,0.9-1.2,1.1c-0.2,0.2-0.3,0.4-0.4,0.6H540.3z M541.7,310.8l1.1-0.1
	c0.1,0.5,0.3,0.9,0.6,1.2c0.3,0.3,0.7,0.4,1.1,0.4c0.5,0,0.9-0.2,1.3-0.6s0.5-0.9,0.5-1.5c0-0.6-0.2-1.1-0.5-1.4
	c-0.3-0.4-0.8-0.5-1.3-0.5c-0.3,0-0.6,0.1-0.9,0.2c-0.3,0.2-0.5,0.4-0.6,0.6l-1-0.1l0.8-4.4h4.3v1h-3.4l-0.5,2.3
	c0.5-0.4,1-0.5,1.6-0.5c0.8,0,1.4,0.3,1.9,0.8c0.5,0.5,0.8,1.2,0.8,2c0,0.8-0.2,1.4-0.7,2c-0.6,0.7-1.3,1-2.2,1
	c-0.8,0-1.4-0.2-1.9-0.7C542.1,312,541.8,311.5,541.7,310.8z"/>
<path class="st32" d="M188,330c0-0.6,0.4-1,1-1h10c0.6,0,1,0.4,1,1v10c0,0.6-0.4,1-1,1h-10c-0.6,0-1-0.4-1-1V330z"/>
<path class="st31" d="M208.9,339v-8.6h3c0.7,0,1.2,0,1.5,0.1c0.5,0.1,0.9,0.3,1.2,0.6c0.5,0.4,0.8,0.9,1,1.5c0.2,0.6,0.3,1.3,0.3,2
	c0,0.7-0.1,1.2-0.2,1.7c-0.1,0.5-0.3,0.9-0.6,1.2s-0.5,0.6-0.8,0.8c-0.3,0.2-0.6,0.3-1,0.4c-0.4,0.1-0.9,0.1-1.4,0.1H208.9z
	 M210.1,338h1.8c0.6,0,1-0.1,1.3-0.2s0.6-0.3,0.8-0.5c0.3-0.3,0.5-0.6,0.6-1.1c0.2-0.5,0.2-1,0.2-1.7c0-0.9-0.2-1.6-0.5-2.1
	c-0.3-0.5-0.6-0.8-1.1-1c-0.3-0.1-0.8-0.2-1.5-0.2h-1.8V338z M217.4,335.9c0-1.2,0.3-2,1-2.6c0.5-0.5,1.2-0.7,2-0.7
	c0.9,0,1.6,0.3,2.1,0.8c0.6,0.6,0.8,1.3,0.8,2.3c0,0.8-0.1,1.4-0.4,1.9s-0.6,0.8-1.1,1.1c-0.5,0.2-1,0.4-1.5,0.4
	c-0.9,0-1.6-0.3-2.1-0.8C217.7,337.8,217.4,336.9,217.4,335.9z M218.5,335.9c0,0.8,0.2,1.4,0.5,1.8c0.4,0.4,0.8,0.6,1.3,0.6
	c0.5,0,1-0.2,1.3-0.6s0.5-1,0.5-1.8c0-0.8-0.2-1.4-0.5-1.8c-0.3-0.4-0.8-0.6-1.3-0.6s-1,0.2-1.3,0.6
	C218.7,334.5,218.5,335.1,218.5,335.9z M224.8,339v-6.2h0.9v0.9c0.2-0.3,0.5-0.6,0.8-0.7c0.3-0.2,0.7-0.3,1.1-0.3
	c0.5,0,0.8,0.1,1.1,0.3c0.3,0.2,0.5,0.5,0.6,0.8c0.5-0.7,1.1-1.1,1.9-1.1c0.6,0,1.1,0.2,1.4,0.5c0.3,0.3,0.5,0.9,0.5,1.6v4.3h-1
	v-3.9c0-0.4,0-0.7-0.1-0.9c-0.1-0.2-0.2-0.3-0.4-0.5s-0.4-0.2-0.6-0.2c-0.4,0-0.8,0.1-1.1,0.4c-0.3,0.3-0.4,0.8-0.4,1.4v3.6h-1.1v-4
	c0-0.5-0.1-0.8-0.3-1c-0.2-0.2-0.4-0.4-0.8-0.4c-0.3,0-0.6,0.1-0.8,0.2s-0.4,0.4-0.5,0.7s-0.2,0.7-0.2,1.3v3.2H224.8z M240,337
	l1.1,0.1c-0.2,0.6-0.5,1.1-1,1.5s-1.1,0.5-1.8,0.5c-0.9,0-1.6-0.3-2.2-0.8c-0.5-0.6-0.8-1.3-0.8-2.4c0-1,0.3-1.8,0.8-2.4
	c0.5-0.6,1.2-0.9,2.1-0.9c0.8,0,1.5,0.3,2,0.8c0.5,0.6,0.8,1.4,0.8,2.4c0,0.1,0,0.2,0,0.3h-4.6c0,0.7,0.2,1.2,0.6,1.6
	c0.3,0.4,0.8,0.5,1.3,0.5c0.4,0,0.7-0.1,1-0.3C239.7,337.8,239.9,337.4,240,337z M236.6,335.3h3.5c0-0.5-0.2-0.9-0.4-1.2
	c-0.3-0.4-0.8-0.6-1.3-0.6c-0.5,0-0.9,0.2-1.2,0.5C236.8,334.3,236.6,334.7,236.6,335.3z M242.4,337.1l1-0.2c0.1,0.4,0.2,0.7,0.5,1
	c0.3,0.2,0.7,0.3,1.1,0.3c0.5,0,0.8-0.1,1.1-0.3c0.2-0.2,0.4-0.4,0.4-0.7c0-0.2-0.1-0.4-0.3-0.6c-0.1-0.1-0.5-0.2-1.1-0.4
	c-0.8-0.2-1.3-0.4-1.6-0.5c-0.3-0.1-0.5-0.3-0.7-0.6s-0.2-0.5-0.2-0.8c0-0.3,0.1-0.5,0.2-0.8s0.3-0.4,0.5-0.6
	c0.2-0.1,0.4-0.2,0.7-0.3s0.6-0.1,0.9-0.1c0.5,0,0.9,0.1,1.3,0.2c0.4,0.1,0.7,0.3,0.8,0.6s0.3,0.6,0.4,1l-1,0.1
	c0-0.3-0.2-0.6-0.4-0.7c-0.2-0.2-0.5-0.3-1-0.3c-0.5,0-0.8,0.1-1,0.2c-0.2,0.2-0.3,0.3-0.3,0.6c0,0.1,0,0.3,0.1,0.4
	c0.1,0.1,0.2,0.2,0.4,0.3c0.1,0,0.4,0.1,0.9,0.3c0.8,0.2,1.3,0.4,1.6,0.5s0.5,0.3,0.7,0.5s0.2,0.5,0.2,0.9c0,0.4-0.1,0.7-0.3,1
	c-0.2,0.3-0.5,0.5-0.9,0.7c-0.4,0.2-0.8,0.2-1.3,0.2c-0.8,0-1.4-0.2-1.9-0.5C242.8,338.3,242.5,337.8,242.4,337.1z M252.1,338.1
	l0.2,0.9c-0.3,0.1-0.6,0.1-0.8,0.1c-0.4,0-0.7-0.1-0.9-0.2c-0.2-0.1-0.4-0.3-0.5-0.5c-0.1-0.2-0.1-0.6-0.1-1.2v-3.6h-0.8v-0.8h0.8
	v-1.5l1-0.6v2.2h1.1v0.8H251v3.6c0,0.3,0,0.5,0,0.6c0,0.1,0.1,0.2,0.2,0.2s0.2,0.1,0.4,0.1C251.8,338.1,251.9,338.1,252.1,338.1z
	 M252.8,331.6v-1.2h1.1v1.2H252.8z M252.8,339v-6.2h1.1v6.2H252.8z M259.9,336.7l1,0.1c-0.1,0.7-0.4,1.3-0.9,1.7s-1,0.6-1.7,0.6
	c-0.9,0-1.5-0.3-2.1-0.8c-0.5-0.6-0.8-1.4-0.8-2.4c0-0.7,0.1-1.2,0.3-1.8c0.2-0.5,0.6-0.9,1-1.1c0.5-0.2,1-0.4,1.5-0.4
	c0.7,0,1.2,0.2,1.6,0.5c0.4,0.3,0.7,0.8,0.8,1.5l-1,0.2c-0.1-0.4-0.3-0.7-0.5-0.9c-0.2-0.2-0.6-0.3-0.9-0.3c-0.5,0-1,0.2-1.3,0.6
	c-0.3,0.4-0.5,1-0.5,1.8c0,0.8,0.2,1.5,0.5,1.8s0.7,0.6,1.2,0.6c0.4,0,0.8-0.1,1-0.4C259.6,337.6,259.8,337.2,259.9,336.7z
	 M268.8,339v-0.8c-0.4,0.6-1,0.9-1.7,0.9c-0.5,0-1-0.1-1.4-0.4c-0.4-0.3-0.7-0.7-1-1.2s-0.3-1.1-0.3-1.7c0-0.6,0.1-1.2,0.3-1.7
	s0.5-0.9,0.9-1.2c0.4-0.3,0.9-0.4,1.4-0.4c0.4,0,0.7,0.1,1,0.2s0.5,0.4,0.7,0.6v-3.1h1v8.6H268.8z M265.5,335.9
	c0,0.8,0.2,1.4,0.5,1.8c0.3,0.4,0.7,0.6,1.2,0.6s0.8-0.2,1.2-0.6s0.5-0.9,0.5-1.7c0-0.9-0.2-1.5-0.5-1.9c-0.3-0.4-0.7-0.6-1.2-0.6
	c-0.5,0-0.9,0.2-1.2,0.6C265.7,334.5,265.5,335.1,265.5,335.9z M275.9,338.2c-0.4,0.3-0.8,0.6-1.1,0.7c-0.4,0.1-0.7,0.2-1.2,0.2
	c-0.7,0-1.2-0.2-1.6-0.5s-0.5-0.8-0.5-1.3c0-0.3,0.1-0.6,0.2-0.8c0.1-0.3,0.3-0.5,0.5-0.6c0.2-0.2,0.5-0.3,0.8-0.3
	c0.2-0.1,0.5-0.1,0.9-0.2c0.8-0.1,1.5-0.2,1.9-0.4c0-0.1,0-0.2,0-0.3c0-0.4-0.1-0.7-0.3-0.9c-0.3-0.2-0.7-0.3-1.2-0.3
	c-0.5,0-0.9,0.1-1.1,0.3c-0.2,0.2-0.4,0.5-0.5,0.9l-1-0.1c0.1-0.4,0.2-0.8,0.5-1.1s0.5-0.5,0.9-0.6s0.9-0.2,1.4-0.2s1,0.1,1.3,0.2
	s0.6,0.3,0.7,0.5s0.3,0.4,0.3,0.7c0,0.2,0,0.5,0,1v1.4c0,1,0,1.6,0.1,1.9c0.1,0.3,0.1,0.5,0.3,0.8h-1.1
	C276,338.8,275.9,338.5,275.9,338.2z M275.8,335.9c-0.4,0.2-1,0.3-1.7,0.4c-0.4,0.1-0.7,0.1-0.9,0.2c-0.2,0.1-0.3,0.2-0.4,0.3
	c-0.1,0.1-0.1,0.3-0.1,0.5c0,0.3,0.1,0.5,0.3,0.7c0.2,0.2,0.5,0.3,0.9,0.3s0.8-0.1,1.1-0.3c0.3-0.2,0.6-0.4,0.7-0.7
	c0.1-0.2,0.2-0.6,0.2-1V335.9z M281.1,338.1l0.2,0.9c-0.3,0.1-0.6,0.1-0.8,0.1c-0.4,0-0.7-0.1-0.9-0.2c-0.2-0.1-0.4-0.3-0.5-0.5
	c-0.1-0.2-0.1-0.6-0.1-1.2v-3.6h-0.8v-0.8h0.8v-1.5l1-0.6v2.2h1.1v0.8H280v3.6c0,0.3,0,0.5,0,0.6c0,0.1,0.1,0.2,0.2,0.2
	s0.2,0.1,0.4,0.1C280.8,338.1,280.9,338.1,281.1,338.1z M285.9,338.2c-0.4,0.3-0.8,0.6-1.1,0.7c-0.4,0.1-0.7,0.2-1.2,0.2
	c-0.7,0-1.2-0.2-1.6-0.5s-0.5-0.8-0.5-1.3c0-0.3,0.1-0.6,0.2-0.8c0.1-0.3,0.3-0.5,0.5-0.6c0.2-0.2,0.5-0.3,0.8-0.3
	c0.2-0.1,0.5-0.1,0.9-0.2c0.8-0.1,1.5-0.2,1.9-0.4c0-0.1,0-0.2,0-0.3c0-0.4-0.1-0.7-0.3-0.9c-0.3-0.2-0.7-0.3-1.2-0.3
	c-0.5,0-0.9,0.1-1.1,0.3c-0.2,0.2-0.4,0.5-0.5,0.9l-1-0.1c0.1-0.4,0.2-0.8,0.5-1.1s0.5-0.5,0.9-0.6s0.9-0.2,1.4-0.2s1,0.1,1.3,0.2
	s0.6,0.3,0.7,0.5s0.3,0.4,0.3,0.7c0,0.2,0,0.5,0,1v1.4c0,1,0,1.6,0.1,1.9c0.1,0.3,0.1,0.5,0.3,0.8h-1.1
	C286,338.8,285.9,338.5,285.9,338.2z M285.8,335.9c-0.4,0.2-1,0.3-1.7,0.4c-0.4,0.1-0.7,0.1-0.9,0.2c-0.2,0.1-0.3,0.2-0.4,0.3
	c-0.1,0.1-0.1,0.3-0.1,0.5c0,0.3,0.1,0.5,0.3,0.7c0.2,0.2,0.5,0.3,0.9,0.3s0.8-0.1,1.1-0.3c0.3-0.2,0.6-0.4,0.7-0.7
	c0.1-0.2,0.2-0.6,0.2-1V335.9z"/>
<path class="st33" d="M304,330c0-0.6,0.4-1,1-1h10c0.6,0,1,0.4,1,1v10c0,0.6-0.4,1-1,1h-10c-0.6,0-1-0.4-1-1V330z"/>
<path class="st31" d="M325.1,339v-8.6h1.1v8.6H325.1z M327.8,339v-6.2h0.9v0.9c0.5-0.7,1.1-1,2-1c0.4,0,0.7,0.1,1,0.2
	c0.3,0.1,0.6,0.3,0.7,0.5s0.3,0.5,0.3,0.8c0,0.2,0,0.5,0,1v3.8h-1v-3.8c0-0.4,0-0.8-0.1-1s-0.2-0.4-0.4-0.5
	c-0.2-0.1-0.5-0.2-0.7-0.2c-0.4,0-0.8,0.1-1.2,0.4c-0.3,0.3-0.5,0.8-0.5,1.6v3.4H327.8z M337.1,338.1l0.2,0.9
	c-0.3,0.1-0.6,0.1-0.8,0.1c-0.4,0-0.7-0.1-0.9-0.2c-0.2-0.1-0.4-0.3-0.5-0.5c-0.1-0.2-0.1-0.6-0.1-1.2v-3.6h-0.8v-0.8h0.8v-1.5
	l1-0.6v2.2h1.1v0.8H336v3.6c0,0.3,0,0.5,0,0.6c0,0.1,0.1,0.2,0.2,0.2s0.2,0.1,0.4,0.1C336.8,338.1,336.9,338.1,337.1,338.1z
	 M342,337l1.1,0.1c-0.2,0.6-0.5,1.1-1,1.5s-1.1,0.5-1.8,0.5c-0.9,0-1.6-0.3-2.2-0.8c-0.5-0.6-0.8-1.3-0.8-2.4c0-1,0.3-1.8,0.8-2.4
	c0.5-0.6,1.2-0.9,2.1-0.9c0.8,0,1.5,0.3,2,0.8c0.5,0.6,0.8,1.4,0.8,2.4c0,0.1,0,0.2,0,0.3h-4.6c0,0.7,0.2,1.2,0.6,1.6
	c0.3,0.4,0.8,0.5,1.3,0.5c0.4,0,0.7-0.1,1-0.3C341.7,337.8,341.9,337.4,342,337z M338.6,335.3h3.5c0-0.5-0.2-0.9-0.4-1.2
	c-0.3-0.4-0.8-0.6-1.3-0.6c-0.5,0-0.9,0.2-1.2,0.5C338.8,334.3,338.6,334.7,338.6,335.3z M344.8,339v-6.2h1v0.9
	c0.2-0.4,0.5-0.7,0.7-0.9c0.2-0.1,0.4-0.2,0.7-0.2c0.4,0,0.7,0.1,1.1,0.3l-0.4,1c-0.3-0.2-0.5-0.2-0.8-0.2c-0.2,0-0.5,0.1-0.6,0.2
	c-0.2,0.1-0.3,0.3-0.4,0.6c-0.1,0.4-0.2,0.8-0.2,1.2v3.3H344.8z M352.9,338.2c-0.4,0.3-0.8,0.6-1.1,0.7c-0.4,0.1-0.7,0.2-1.2,0.2
	c-0.7,0-1.2-0.2-1.6-0.5s-0.5-0.8-0.5-1.3c0-0.3,0.1-0.6,0.2-0.8c0.1-0.3,0.3-0.5,0.5-0.6c0.2-0.2,0.5-0.3,0.8-0.3
	c0.2-0.1,0.5-0.1,0.9-0.2c0.8-0.1,1.5-0.2,1.9-0.4c0-0.1,0-0.2,0-0.3c0-0.4-0.1-0.7-0.3-0.9c-0.3-0.2-0.7-0.3-1.2-0.3
	c-0.5,0-0.9,0.1-1.1,0.3c-0.2,0.2-0.4,0.5-0.5,0.9l-1-0.1c0.1-0.4,0.2-0.8,0.5-1.1s0.5-0.5,0.9-0.6s0.9-0.2,1.4-0.2s1,0.1,1.3,0.2
	s0.6,0.3,0.7,0.5s0.3,0.4,0.3,0.7c0,0.2,0,0.5,0,1v1.4c0,1,0,1.6,0.1,1.9c0.1,0.3,0.1,0.5,0.3,0.8h-1.1
	C353,338.8,352.9,338.5,352.9,338.2z M352.8,335.9c-0.4,0.2-1,0.3-1.7,0.4c-0.4,0.1-0.7,0.1-0.9,0.2c-0.2,0.1-0.3,0.2-0.4,0.3
	c-0.1,0.1-0.1,0.3-0.1,0.5c0,0.3,0.1,0.5,0.3,0.7c0.2,0.2,0.5,0.3,0.9,0.3s0.8-0.1,1.1-0.3c0.3-0.2,0.6-0.4,0.7-0.7
	c0.1-0.2,0.2-0.6,0.2-1V335.9z M358.1,338.1l0.2,0.9c-0.3,0.1-0.6,0.1-0.8,0.1c-0.4,0-0.7-0.1-0.9-0.2c-0.2-0.1-0.4-0.3-0.5-0.5
	c-0.1-0.2-0.1-0.6-0.1-1.2v-3.6h-0.8v-0.8h0.8v-1.5l1-0.6v2.2h1.1v0.8H357v3.6c0,0.3,0,0.5,0,0.6c0,0.1,0.1,0.2,0.2,0.2
	s0.2,0.1,0.4,0.1C357.8,338.1,357.9,338.1,358.1,338.1z M358.8,331.6v-1.2h1.1v1.2H358.8z M358.8,339v-6.2h1.1v6.2H358.8z
	 M361.4,335.9c0-1.2,0.3-2,1-2.6c0.5-0.5,1.2-0.7,2-0.7c0.9,0,1.6,0.3,2.1,0.8c0.6,0.6,0.8,1.3,0.8,2.3c0,0.8-0.1,1.4-0.4,1.9
	s-0.6,0.8-1.1,1.1c-0.5,0.2-1,0.4-1.5,0.4c-0.9,0-1.6-0.3-2.1-0.8C361.7,337.8,361.4,336.9,361.4,335.9z M362.5,335.9
	c0,0.8,0.2,1.4,0.5,1.8c0.4,0.4,0.8,0.6,1.3,0.6c0.5,0,1-0.2,1.3-0.6s0.5-1,0.5-1.8c0-0.8-0.2-1.4-0.5-1.8c-0.3-0.4-0.8-0.6-1.3-0.6
	s-1,0.2-1.3,0.6C362.7,334.5,362.5,335.1,362.5,335.9z M368.8,339v-6.2h0.9v0.9c0.5-0.7,1.1-1,2-1c0.4,0,0.7,0.1,1,0.2
	c0.3,0.1,0.6,0.3,0.7,0.5s0.3,0.5,0.3,0.8c0,0.2,0,0.5,0,1v3.8h-1v-3.8c0-0.4,0-0.8-0.1-1s-0.2-0.4-0.4-0.5
	c-0.2-0.1-0.5-0.2-0.7-0.2c-0.4,0-0.8,0.1-1.2,0.4c-0.3,0.3-0.5,0.8-0.5,1.6v3.4H368.8z M379.9,338.2c-0.4,0.3-0.8,0.6-1.1,0.7
	c-0.4,0.1-0.7,0.2-1.2,0.2c-0.7,0-1.2-0.2-1.6-0.5s-0.5-0.8-0.5-1.3c0-0.3,0.1-0.6,0.2-0.8c0.1-0.3,0.3-0.5,0.5-0.6
	c0.2-0.2,0.5-0.3,0.8-0.3c0.2-0.1,0.5-0.1,0.9-0.2c0.8-0.1,1.5-0.2,1.9-0.4c0-0.1,0-0.2,0-0.3c0-0.4-0.1-0.7-0.3-0.9
	c-0.3-0.2-0.7-0.3-1.2-0.3c-0.5,0-0.9,0.1-1.1,0.3c-0.2,0.2-0.4,0.5-0.5,0.9l-1-0.1c0.1-0.4,0.2-0.8,0.5-1.1s0.5-0.5,0.9-0.6
	s0.9-0.2,1.4-0.2s1,0.1,1.3,0.2s0.6,0.3,0.7,0.5s0.3,0.4,0.3,0.7c0,0.2,0,0.5,0,1v1.4c0,1,0,1.6,0.1,1.9c0.1,0.3,0.1,0.5,0.3,0.8
	h-1.1C380,338.8,379.9,338.5,379.9,338.2z M379.8,335.9c-0.4,0.2-1,0.3-1.7,0.4c-0.4,0.1-0.7,0.1-0.9,0.2c-0.2,0.1-0.3,0.2-0.4,0.3
	c-0.1,0.1-0.1,0.3-0.1,0.5c0,0.3,0.1,0.5,0.3,0.7c0.2,0.2,0.5,0.3,0.9,0.3s0.8-0.1,1.1-0.3c0.3-0.2,0.6-0.4,0.7-0.7
	c0.1-0.2,0.2-0.6,0.2-1V335.9z M382.8,339v-8.6h1.1v8.6H382.8z M392.8,339v-0.8c-0.4,0.6-1,0.9-1.7,0.9c-0.5,0-1-0.1-1.4-0.4
	c-0.4-0.3-0.7-0.7-1-1.2s-0.3-1.1-0.3-1.7c0-0.6,0.1-1.2,0.3-1.7s0.5-0.9,0.9-1.2c0.4-0.3,0.9-0.4,1.4-0.4c0.4,0,0.7,0.1,1,0.2
	s0.5,0.4,0.7,0.6v-3.1h1v8.6H392.8z M389.5,335.9c0,0.8,0.2,1.4,0.5,1.8c0.3,0.4,0.7,0.6,1.2,0.6s0.8-0.2,1.2-0.6s0.5-0.9,0.5-1.7
	c0-0.9-0.2-1.5-0.5-1.9c-0.3-0.4-0.7-0.6-1.2-0.6c-0.5,0-0.9,0.2-1.2,0.6C389.7,334.5,389.5,335.1,389.5,335.9z M399.9,338.2
	c-0.4,0.3-0.8,0.6-1.1,0.7c-0.4,0.1-0.7,0.2-1.2,0.2c-0.7,0-1.2-0.2-1.6-0.5s-0.5-0.8-0.5-1.3c0-0.3,0.1-0.6,0.2-0.8
	c0.1-0.3,0.3-0.5,0.5-0.6c0.2-0.2,0.5-0.3,0.8-0.3c0.2-0.1,0.5-0.1,0.9-0.2c0.8-0.1,1.5-0.2,1.9-0.4c0-0.1,0-0.2,0-0.3
	c0-0.4-0.1-0.7-0.3-0.9c-0.3-0.2-0.7-0.3-1.2-0.3c-0.5,0-0.9,0.1-1.1,0.3c-0.2,0.2-0.4,0.5-0.5,0.9l-1-0.1c0.1-0.4,0.2-0.8,0.5-1.1
	s0.5-0.5,0.9-0.6s0.9-0.2,1.4-0.2s1,0.1,1.3,0.2s0.6,0.3,0.7,0.5s0.3,0.4,0.3,0.7c0,0.2,0,0.5,0,1v1.4c0,1,0,1.6,0.1,1.9
	c0.1,0.3,0.1,0.5,0.3,0.8h-1.1C400,338.8,399.9,338.5,399.9,338.2z M399.8,335.9c-0.4,0.2-1,0.3-1.7,0.4c-0.4,0.1-0.7,0.1-0.9,0.2
	c-0.2,0.1-0.3,0.2-0.4,0.3c-0.1,0.1-0.1,0.3-0.1,0.5c0,0.3,0.1,0.5,0.3,0.7c0.2,0.2,0.5,0.3,0.9,0.3s0.8-0.1,1.1-0.3
	c0.3-0.2,0.6-0.4,0.7-0.7c0.1-0.2,0.2-0.6,0.2-1V335.9z M405.1,338.1l0.2,0.9c-0.3,0.1-0.6,0.1-0.8,0.1c-0.4,0-0.7-0.1-0.9-0.2
	c-0.2-0.1-0.4-0.3-0.5-0.5c-0.1-0.2-0.1-0.6-0.1-1.2v-3.6h-0.8v-0.8h0.8v-1.5l1-0.6v2.2h1.1v0.8H404v3.6c0,0.3,0,0.5,0,0.6
	c0,0.1,0.1,0.2,0.2,0.2s0.2,0.1,0.4,0.1C404.8,338.1,404.9,338.1,405.1,338.1z M409.9,338.2c-0.4,0.3-0.8,0.6-1.1,0.7
	c-0.4,0.1-0.7,0.2-1.2,0.2c-0.7,0-1.2-0.2-1.6-0.5s-0.5-0.8-0.5-1.3c0-0.3,0.1-0.6,0.2-0.8c0.1-0.3,0.3-0.5,0.5-0.6
	c0.2-0.2,0.5-0.3,0.8-0.3c0.2-0.1,0.5-0.1,0.9-0.2c0.8-0.1,1.5-0.2,1.9-0.4c0-0.1,0-0.2,0-0.3c0-0.4-0.1-0.7-0.3-0.9
	c-0.3-0.2-0.7-0.3-1.2-0.3c-0.5,0-0.9,0.1-1.1,0.3c-0.2,0.2-0.4,0.5-0.5,0.9l-1-0.1c0.1-0.4,0.2-0.8,0.5-1.1s0.5-0.5,0.9-0.6
	s0.9-0.2,1.4-0.2s1,0.1,1.3,0.2s0.6,0.3,0.7,0.5s0.3,0.4,0.3,0.7c0,0.2,0,0.5,0,1v1.4c0,1,0,1.6,0.1,1.9c0.1,0.3,0.1,0.5,0.3,0.8
	h-1.1C410,338.8,409.9,338.5,409.9,338.2z M409.8,335.9c-0.4,0.2-1,0.3-1.7,0.4c-0.4,0.1-0.7,0.1-0.9,0.2c-0.2,0.1-0.3,0.2-0.4,0.3
	c-0.1,0.1-0.1,0.3-0.1,0.5c0,0.3,0.1,0.5,0.3,0.7c0.2,0.2,0.5,0.3,0.9,0.3s0.8-0.1,1.1-0.3c0.3-0.2,0.6-0.4,0.7-0.7
	c0.1-0.2,0.2-0.6,0.2-1V335.9z"/>
<path class="st31" d="M19.9,37V22.7h1.9V37H19.9z M25.3,37V26.6h1.6v1.5c0.8-1.1,1.9-1.7,3.3-1.7c0.6,0,1.2,0.1,1.7,0.3
	c0.5,0.2,0.9,0.5,1.2,0.9s0.4,0.8,0.5,1.3c0.1,0.3,0.1,0.9,0.1,1.7V37H32v-6.3c0-0.7-0.1-1.3-0.2-1.6s-0.4-0.6-0.7-0.8
	c-0.3-0.2-0.8-0.3-1.2-0.3c-0.8,0-1.4,0.2-1.9,0.7c-0.5,0.5-0.8,1.4-0.8,2.7V37H25.3z M39.2,35.4l0.2,1.6c-0.5,0.1-0.9,0.2-1.3,0.2
	c-0.6,0-1.1-0.1-1.5-0.3c-0.3-0.2-0.6-0.5-0.7-0.8c-0.1-0.3-0.2-1-0.2-2.1v-6h-1.3v-1.4h1.3v-2.6l1.8-1.1v3.6h1.8V28h-1.8v6.1
	c0,0.5,0,0.8,0.1,1c0.1,0.1,0.2,0.2,0.3,0.3c0.1,0.1,0.3,0.1,0.6,0.1C38.6,35.5,38.8,35.5,39.2,35.4z M48.4,33.7l1.8,0.2
	c-0.3,1.1-0.8,1.9-1.6,2.5c-0.8,0.6-1.8,0.9-3,0.9c-1.5,0-2.7-0.5-3.6-1.4c-0.9-0.9-1.3-2.2-1.3-3.9c0-1.8,0.4-3.1,1.3-4.1
	c0.9-1,2.1-1.5,3.5-1.5c1.4,0,2.5,0.5,3.4,1.4c0.9,0.9,1.3,2.3,1.3,4c0,0.1,0,0.3,0,0.5h-7.7c0.1,1.1,0.4,2,1,2.6s1.3,0.9,2.2,0.9
	c0.6,0,1.2-0.2,1.6-0.5C47.8,34.9,48.2,34.4,48.4,33.7z M42.6,30.8h5.8c-0.1-0.9-0.3-1.5-0.7-2c-0.6-0.7-1.3-1-2.2-1
	c-0.8,0-1.5,0.3-2,0.8C43,29.2,42.7,29.9,42.6,30.8z M52.3,37V26.6h1.6v1.6c0.4-0.7,0.8-1.2,1.1-1.5c0.3-0.2,0.7-0.4,1.1-0.4
	c0.6,0,1.2,0.2,1.8,0.6l-0.6,1.6c-0.4-0.3-0.9-0.4-1.3-0.4c-0.4,0-0.7,0.1-1,0.4c-0.3,0.2-0.5,0.5-0.7,1c-0.2,0.6-0.3,1.3-0.3,2V37
	H52.3z M59.3,37V26.6h1.6v1.5c0.8-1.1,1.9-1.7,3.3-1.7c0.6,0,1.2,0.1,1.7,0.3c0.5,0.2,0.9,0.5,1.2,0.9s0.4,0.8,0.5,1.3
	c0.1,0.3,0.1,0.9,0.1,1.7V37H66v-6.3c0-0.7-0.1-1.3-0.2-1.6s-0.4-0.6-0.7-0.8c-0.3-0.2-0.8-0.3-1.2-0.3c-0.8,0-1.4,0.2-1.9,0.7
	c-0.5,0.5-0.8,1.4-0.8,2.7V37H59.3z M76.1,35.7c-0.7,0.6-1.3,0.9-1.9,1.2s-1.2,0.3-1.9,0.3c-1.1,0-2-0.3-2.6-0.8
	c-0.6-0.6-0.9-1.3-0.9-2.1c0-0.5,0.1-1,0.3-1.4c0.2-0.4,0.5-0.8,0.9-1c0.4-0.3,0.8-0.5,1.3-0.6c0.3-0.1,0.9-0.2,1.6-0.3
	c1.4-0.2,2.5-0.4,3.1-0.6c0-0.2,0-0.4,0-0.5c0-0.7-0.2-1.2-0.5-1.5c-0.4-0.4-1.1-0.6-2-0.6c-0.8,0-1.4,0.1-1.8,0.4
	c-0.4,0.3-0.7,0.8-0.9,1.5L69,29.6c0.2-0.7,0.4-1.3,0.8-1.8c0.4-0.5,0.9-0.8,1.5-1c0.7-0.2,1.5-0.4,2.4-0.4c0.9,0,1.6,0.1,2.2,0.3
	s1,0.5,1.2,0.8c0.3,0.3,0.4,0.7,0.5,1.2c0.1,0.3,0.1,0.8,0.1,1.6v2.3c0,1.6,0,2.7,0.1,3.1c0.1,0.4,0.2,0.8,0.5,1.2h-1.8
	C76.3,36.6,76.1,36.2,76.1,35.7z M75.9,31.8c-0.6,0.3-1.6,0.5-2.9,0.7c-0.7,0.1-1.2,0.2-1.5,0.4c-0.3,0.1-0.5,0.3-0.7,0.6
	s-0.2,0.5-0.2,0.8c0,0.5,0.2,0.9,0.5,1.2s0.9,0.5,1.6,0.5c0.7,0,1.3-0.1,1.8-0.4c0.5-0.3,0.9-0.7,1.2-1.2c0.2-0.4,0.3-1,0.3-1.8
	V31.8z M84.2,35.4l0.2,1.6c-0.5,0.1-0.9,0.2-1.3,0.2c-0.6,0-1.1-0.1-1.5-0.3c-0.3-0.2-0.6-0.5-0.7-0.8c-0.1-0.3-0.2-1-0.2-2.1v-6
	h-1.3v-1.4h1.3v-2.6l1.8-1.1v3.6h1.8V28h-1.8v6.1c0,0.5,0,0.8,0.1,1c0.1,0.1,0.2,0.2,0.3,0.3c0.1,0.1,0.3,0.1,0.6,0.1
	C83.6,35.5,83.8,35.5,84.2,35.4z M86.3,24.7v-2h1.8v2H86.3z M86.3,37V26.6h1.8V37H86.3z M89.7,31.8c0-1.9,0.5-3.3,1.6-4.3
	c0.9-0.8,2-1.2,3.3-1.2c1.4,0,2.6,0.5,3.5,1.4c0.9,0.9,1.4,2.2,1.4,3.9c0,1.3-0.2,2.4-0.6,3.2c-0.4,0.8-1,1.4-1.8,1.8
	c-0.8,0.4-1.6,0.6-2.5,0.6c-1.5,0-2.6-0.5-3.5-1.4C90.1,34.9,89.7,33.6,89.7,31.8z M91.5,31.8c0,1.3,0.3,2.3,0.9,3
	c0.6,0.7,1.3,1,2.2,1c0.9,0,1.6-0.3,2.2-1c0.6-0.7,0.9-1.7,0.9-3c0-1.3-0.3-2.2-0.9-2.9c-0.6-0.7-1.3-1-2.2-1c-0.9,0-1.6,0.3-2.2,1
	C91.8,29.5,91.5,30.5,91.5,31.8z M101.3,37V26.6h1.6v1.5c0.8-1.1,1.9-1.7,3.3-1.7c0.6,0,1.2,0.1,1.7,0.3c0.5,0.2,0.9,0.5,1.2,0.9
	s0.4,0.8,0.5,1.3c0.1,0.3,0.1,0.9,0.1,1.7V37H108v-6.3c0-0.7-0.1-1.3-0.2-1.6s-0.4-0.6-0.7-0.8c-0.3-0.2-0.8-0.3-1.2-0.3
	c-0.8,0-1.4,0.2-1.9,0.7c-0.5,0.5-0.8,1.4-0.8,2.7V37H101.3z M118.1,35.7c-0.7,0.6-1.3,0.9-1.9,1.2s-1.2,0.3-1.9,0.3
	c-1.1,0-2-0.3-2.6-0.8c-0.6-0.6-0.9-1.3-0.9-2.1c0-0.5,0.1-1,0.3-1.4c0.2-0.4,0.5-0.8,0.9-1c0.4-0.3,0.8-0.5,1.3-0.6
	c0.3-0.1,0.9-0.2,1.6-0.3c1.4-0.2,2.5-0.4,3.1-0.6c0-0.2,0-0.4,0-0.5c0-0.7-0.2-1.2-0.5-1.5c-0.4-0.4-1.1-0.6-2-0.6
	c-0.8,0-1.4,0.1-1.8,0.4c-0.4,0.3-0.7,0.8-0.9,1.5l-1.7-0.2c0.2-0.7,0.4-1.3,0.8-1.8c0.4-0.5,0.9-0.8,1.5-1c0.7-0.2,1.5-0.4,2.4-0.4
	c0.9,0,1.6,0.1,2.2,0.3s1,0.5,1.2,0.8c0.3,0.3,0.4,0.7,0.5,1.2c0.1,0.3,0.1,0.8,0.1,1.6v2.3c0,1.6,0,2.7,0.1,3.1
	c0.1,0.4,0.2,0.8,0.5,1.2h-1.8C118.3,36.6,118.1,36.2,118.1,35.7z M117.9,31.8c-0.6,0.3-1.6,0.5-2.9,0.7c-0.7,0.1-1.2,0.2-1.5,0.4
	c-0.3,0.1-0.5,0.3-0.7,0.6s-0.2,0.5-0.2,0.8c0,0.5,0.2,0.9,0.5,1.2s0.9,0.5,1.6,0.5c0.7,0,1.3-0.1,1.8-0.4c0.5-0.3,0.9-0.7,1.2-1.2
	c0.2-0.4,0.3-1,0.3-1.8V31.8z M122.3,37V22.7h1.8V37H122.3z M139.1,35.7c-0.7,0.6-1.3,0.9-1.9,1.2s-1.2,0.3-1.9,0.3
	c-1.1,0-2-0.3-2.6-0.8c-0.6-0.6-0.9-1.3-0.9-2.1c0-0.5,0.1-1,0.3-1.4c0.2-0.4,0.5-0.8,0.9-1c0.4-0.3,0.8-0.5,1.3-0.6
	c0.3-0.1,0.9-0.2,1.6-0.3c1.4-0.2,2.5-0.4,3.1-0.6c0-0.2,0-0.4,0-0.5c0-0.7-0.2-1.2-0.5-1.5c-0.4-0.4-1.1-0.6-2-0.6
	c-0.8,0-1.4,0.1-1.8,0.4c-0.4,0.3-0.7,0.8-0.9,1.5l-1.7-0.2c0.2-0.7,0.4-1.3,0.8-1.8c0.4-0.5,0.9-0.8,1.5-1c0.7-0.2,1.5-0.4,2.4-0.4
	c0.9,0,1.6,0.1,2.2,0.3s1,0.5,1.2,0.8c0.3,0.3,0.4,0.7,0.5,1.2c0.1,0.3,0.1,0.8,0.1,1.6v2.3c0,1.6,0,2.7,0.1,3.1
	c0.1,0.4,0.2,0.8,0.5,1.2h-1.8C139.3,36.6,139.1,36.2,139.1,35.7z M138.9,31.8c-0.6,0.3-1.6,0.5-2.9,0.7c-0.7,0.1-1.2,0.2-1.5,0.4
	c-0.3,0.1-0.5,0.3-0.7,0.6s-0.2,0.5-0.2,0.8c0,0.5,0.2,0.9,0.5,1.2s0.9,0.5,1.6,0.5c0.7,0,1.3-0.1,1.8-0.4c0.5-0.3,0.9-0.7,1.2-1.2
	c0.2-0.4,0.3-1,0.3-1.8V31.8z M143.3,37V26.6h1.6v1.5c0.8-1.1,1.9-1.7,3.3-1.7c0.6,0,1.2,0.1,1.7,0.3c0.5,0.2,0.9,0.5,1.2,0.9
	s0.4,0.8,0.5,1.3c0.1,0.3,0.1,0.9,0.1,1.7V37H150v-6.3c0-0.7-0.1-1.3-0.2-1.6s-0.4-0.6-0.7-0.8c-0.3-0.2-0.8-0.3-1.2-0.3
	c-0.8,0-1.4,0.2-1.9,0.7c-0.5,0.5-0.8,1.4-0.8,2.7V37H143.3z M160,37v-1.3c-0.7,1-1.6,1.5-2.9,1.5c-0.8,0-1.6-0.2-2.3-0.7
	c-0.7-0.5-1.2-1.1-1.6-1.9c-0.4-0.8-0.6-1.8-0.6-2.8c0-1,0.2-2,0.5-2.8s0.9-1.5,1.5-1.9c0.7-0.4,1.5-0.7,2.3-0.7
	c0.6,0,1.2,0.1,1.7,0.4c0.5,0.3,0.9,0.6,1.2,1v-5.1h1.7V37H160z M154.5,31.8c0,1.3,0.3,2.3,0.8,3s1.2,1,2,1c0.8,0,1.4-0.3,2-0.9
	c0.5-0.6,0.8-1.6,0.8-2.9c0-1.4-0.3-2.5-0.8-3.1c-0.5-0.7-1.2-1-2-1c-0.8,0-1.4,0.3-2,1C154.7,29.4,154.5,30.5,154.5,31.8z
	 M170.5,37V22.7h4.9c1.1,0,2,0.1,2.6,0.2c0.8,0.2,1.5,0.5,2.1,1c0.8,0.6,1.3,1.5,1.7,2.5s0.6,2.1,0.6,3.4c0,1.1-0.1,2-0.4,2.9
	c-0.2,0.8-0.6,1.5-1,2.1c-0.4,0.6-0.8,1-1.3,1.3c-0.5,0.3-1,0.6-1.7,0.7c-0.7,0.2-1.4,0.2-2.3,0.2H170.5z M172.4,35.3h3.1
	c0.9,0,1.7-0.1,2.2-0.3c0.5-0.2,1-0.4,1.3-0.8c0.4-0.4,0.8-1,1-1.8c0.2-0.8,0.4-1.7,0.4-2.8c0-1.5-0.2-2.7-0.7-3.5s-1.1-1.3-1.8-1.6
	c-0.5-0.2-1.3-0.3-2.4-0.3h-3V35.3z M183.7,31.8c0-1.9,0.5-3.3,1.6-4.3c0.9-0.8,2-1.2,3.3-1.2c1.4,0,2.6,0.5,3.5,1.4
	c0.9,0.9,1.4,2.2,1.4,3.9c0,1.3-0.2,2.4-0.6,3.2c-0.4,0.8-1,1.4-1.8,1.8c-0.8,0.4-1.6,0.6-2.5,0.6c-1.5,0-2.6-0.5-3.5-1.4
	C184.1,34.9,183.7,33.6,183.7,31.8z M185.5,31.8c0,1.3,0.3,2.3,0.9,3c0.6,0.7,1.3,1,2.2,1c0.9,0,1.6-0.3,2.2-1
	c0.6-0.7,0.9-1.7,0.9-3c0-1.3-0.3-2.2-0.9-2.9c-0.6-0.7-1.3-1-2.2-1c-0.9,0-1.6,0.3-2.2,1C185.8,29.5,185.5,30.5,185.5,31.8z
	 M195.3,37V26.6h1.6v1.5c0.3-0.5,0.8-0.9,1.3-1.2s1.2-0.5,1.8-0.5c0.8,0,1.4,0.2,1.9,0.5c0.5,0.3,0.8,0.8,1,1.3
	c0.8-1.2,1.9-1.8,3.2-1.8c1,0,1.8,0.3,2.4,0.9s0.8,1.4,0.8,2.6V37h-1.8v-6.5c0-0.7-0.1-1.2-0.2-1.5c-0.1-0.3-0.3-0.6-0.6-0.8
	c-0.3-0.2-0.6-0.3-1-0.3c-0.7,0-1.3,0.2-1.8,0.7c-0.5,0.5-0.7,1.2-0.7,2.3v6h-1.8v-6.7c0-0.8-0.1-1.4-0.4-1.8
	c-0.3-0.4-0.8-0.6-1.4-0.6c-0.5,0-0.9,0.1-1.4,0.4c-0.4,0.3-0.7,0.6-0.9,1.1s-0.3,1.2-0.3,2.2V37H195.3z M218.4,33.7l1.8,0.2
	c-0.3,1.1-0.8,1.9-1.6,2.5c-0.8,0.6-1.8,0.9-3,0.9c-1.5,0-2.7-0.5-3.6-1.4c-0.9-0.9-1.3-2.2-1.3-3.9c0-1.8,0.4-3.1,1.3-4.1
	c0.9-1,2.1-1.5,3.5-1.5c1.4,0,2.5,0.5,3.4,1.4c0.9,0.9,1.3,2.3,1.3,4c0,0.1,0,0.3,0,0.5h-7.7c0.1,1.1,0.4,2,1,2.6s1.3,0.9,2.2,0.9
	c0.6,0,1.2-0.2,1.6-0.5C217.8,34.9,218.2,34.4,218.4,33.7z M212.6,30.8h5.8c-0.1-0.9-0.3-1.5-0.7-2c-0.6-0.7-1.3-1-2.2-1
	c-0.8,0-1.5,0.3-2,0.8C213,29.2,212.7,29.9,212.6,30.8z M221.6,33.9l1.8-0.3c0.1,0.7,0.4,1.2,0.8,1.6c0.4,0.4,1.1,0.5,1.9,0.5
	s1.4-0.2,1.8-0.5c0.4-0.3,0.6-0.7,0.6-1.2c0-0.4-0.2-0.7-0.5-0.9c-0.2-0.2-0.8-0.4-1.8-0.6c-1.3-0.3-2.2-0.6-2.7-0.8
	c-0.5-0.2-0.9-0.6-1.1-1c-0.3-0.4-0.4-0.9-0.4-1.4c0-0.5,0.1-0.9,0.3-1.3c0.2-0.4,0.5-0.7,0.9-1c0.3-0.2,0.6-0.4,1.1-0.5
	c0.5-0.1,1-0.2,1.5-0.2c0.8,0,1.5,0.1,2.1,0.4c0.6,0.2,1.1,0.5,1.4,1c0.3,0.4,0.5,0.9,0.6,1.6l-1.7,0.2c-0.1-0.5-0.3-0.9-0.7-1.2
	c-0.4-0.3-0.9-0.5-1.6-0.5c-0.8,0-1.4,0.1-1.7,0.4c-0.3,0.3-0.5,0.6-0.5,0.9c0,0.2,0.1,0.4,0.2,0.6c0.1,0.2,0.4,0.3,0.7,0.5
	c0.2,0.1,0.7,0.2,1.5,0.4c1.2,0.3,2.1,0.6,2.6,0.8c0.5,0.2,0.9,0.5,1.2,0.9c0.3,0.4,0.4,0.9,0.4,1.5c0,0.6-0.2,1.1-0.5,1.7
	s-0.8,0.9-1.5,1.2s-1.4,0.4-2.2,0.4c-1.3,0-2.4-0.3-3.1-0.8S221.8,35,221.6,33.9z M236.2,35.4l0.2,1.6c-0.5,0.1-0.9,0.2-1.3,0.2
	c-0.6,0-1.1-0.1-1.5-0.3c-0.3-0.2-0.6-0.5-0.7-0.8c-0.1-0.3-0.2-1-0.2-2.1v-6h-1.3v-1.4h1.3v-2.6l1.8-1.1v3.6h1.8V28h-1.8v6.1
	c0,0.5,0,0.8,0.1,1c0.1,0.1,0.2,0.2,0.3,0.3c0.1,0.1,0.3,0.1,0.6,0.1C235.6,35.5,235.8,35.5,236.2,35.4z M238.3,24.7v-2h1.8v2H238.3
	z M238.3,37V26.6h1.8V37H238.3z M249.1,33.2l1.7,0.2c-0.2,1.2-0.7,2.1-1.5,2.8c-0.8,0.7-1.7,1-2.9,1c-1.4,0-2.6-0.5-3.4-1.4
	s-1.3-2.3-1.3-4c0-1.1,0.2-2.1,0.5-2.9c0.4-0.8,0.9-1.5,1.7-1.9c0.8-0.4,1.6-0.6,2.5-0.6c1.1,0,2,0.3,2.8,0.9
	c0.7,0.6,1.2,1.4,1.4,2.4l-1.7,0.3c-0.2-0.7-0.4-1.2-0.9-1.6c-0.4-0.4-0.9-0.5-1.5-0.5c-0.9,0-1.6,0.3-2.2,1s-0.8,1.6-0.8,3
	c0,1.4,0.3,2.4,0.8,3c0.5,0.6,1.2,0.9,2.1,0.9c0.7,0,1.3-0.2,1.7-0.6C248.7,34.7,249,34.1,249.1,33.2z M258.5,37V22.7h2.9l3.4,10.1
	c0.3,0.9,0.5,1.7,0.7,2.1c0.2-0.5,0.4-1.3,0.8-2.3l3.4-10h2.5V37h-1.8V25l-4.2,12h-1.7l-4.1-12.2V37H258.5z M274.7,31.8
	c0-1.9,0.5-3.3,1.6-4.3c0.9-0.8,2-1.2,3.3-1.2c1.4,0,2.6,0.5,3.5,1.4c0.9,0.9,1.4,2.2,1.4,3.9c0,1.3-0.2,2.4-0.6,3.2
	c-0.4,0.8-1,1.4-1.8,1.8c-0.8,0.4-1.6,0.6-2.5,0.6c-1.5,0-2.6-0.5-3.5-1.4C275.1,34.9,274.7,33.6,274.7,31.8z M276.5,31.8
	c0,1.3,0.3,2.3,0.9,3c0.6,0.7,1.3,1,2.2,1c0.9,0,1.6-0.3,2.2-1c0.6-0.7,0.9-1.7,0.9-3c0-1.3-0.3-2.2-0.9-2.9c-0.6-0.7-1.3-1-2.2-1
	c-0.9,0-1.6,0.3-2.2,1C276.8,29.5,276.5,30.5,276.5,31.8z M289.2,37l-4-10.4h1.9l2.2,6.2c0.2,0.7,0.5,1.4,0.7,2.1
	c0.2-0.5,0.4-1.2,0.7-2l2.3-6.3h1.8L290.8,37H289.2z M295.3,24.7v-2h1.8v2H295.3z M295.3,37V26.6h1.8V37H295.3z M306.4,33.7l1.8,0.2
	c-0.3,1.1-0.8,1.9-1.6,2.5c-0.8,0.6-1.8,0.9-3,0.9c-1.5,0-2.7-0.5-3.6-1.4c-0.9-0.9-1.3-2.2-1.3-3.9c0-1.8,0.4-3.1,1.3-4.1
	c0.9-1,2.1-1.5,3.5-1.5c1.4,0,2.5,0.5,3.4,1.4c0.9,0.9,1.3,2.3,1.3,4c0,0.1,0,0.3,0,0.5h-7.7c0.1,1.1,0.4,2,1,2.6s1.3,0.9,2.2,0.9
	c0.6,0,1.2-0.2,1.6-0.5C305.8,34.9,306.2,34.4,306.4,33.7z M300.6,30.8h5.8c-0.1-0.9-0.3-1.5-0.7-2c-0.6-0.7-1.3-1-2.2-1
	c-0.8,0-1.5,0.3-2,0.8C301,29.2,300.7,29.9,300.6,30.8z M315.9,32.4l1.8-0.2c0.1,0.7,0.3,1.3,0.6,1.8c0.3,0.5,0.8,0.8,1.4,1.1
	c0.7,0.3,1.4,0.4,2.2,0.4c0.7,0,1.4-0.1,1.9-0.3c0.6-0.2,1-0.5,1.2-0.9s0.4-0.8,0.4-1.2s-0.1-0.8-0.4-1.2c-0.3-0.3-0.7-0.6-1.3-0.8
	c-0.4-0.2-1.2-0.4-2.6-0.7c-1.3-0.3-2.2-0.6-2.8-0.9c-0.7-0.4-1.2-0.8-1.5-1.3s-0.5-1.1-0.5-1.8c0-0.7,0.2-1.4,0.6-2s1-1.1,1.8-1.4
	c0.8-0.3,1.7-0.5,2.6-0.5c1.1,0,2,0.2,2.8,0.5s1.4,0.8,1.9,1.5c0.4,0.7,0.7,1.4,0.7,2.2l-1.8,0.1c-0.1-0.9-0.4-1.6-1-2
	c-0.6-0.5-1.4-0.7-2.5-0.7c-1.1,0-2,0.2-2.5,0.6c-0.5,0.4-0.8,0.9-0.8,1.5c0,0.5,0.2,0.9,0.6,1.3c0.4,0.3,1.3,0.7,2.9,1
	s2.6,0.6,3.2,0.9c0.8,0.4,1.4,0.9,1.8,1.5c0.4,0.6,0.6,1.3,0.6,2c0,0.8-0.2,1.5-0.7,2.2s-1.1,1.2-1.9,1.6c-0.8,0.4-1.7,0.6-2.8,0.6
	c-1.3,0-2.4-0.2-3.2-0.6c-0.9-0.4-1.6-1-2.1-1.7S315.9,33.4,315.9,32.4z M336.1,35.7c-0.7,0.6-1.3,0.9-1.9,1.2s-1.2,0.3-1.9,0.3
	c-1.1,0-2-0.3-2.6-0.8c-0.6-0.6-0.9-1.3-0.9-2.1c0-0.5,0.1-1,0.3-1.4c0.2-0.4,0.5-0.8,0.9-1c0.4-0.3,0.8-0.5,1.3-0.6
	c0.3-0.1,0.9-0.2,1.6-0.3c1.4-0.2,2.5-0.4,3.1-0.6c0-0.2,0-0.4,0-0.5c0-0.7-0.2-1.2-0.5-1.5c-0.4-0.4-1.1-0.6-2-0.6
	c-0.8,0-1.4,0.1-1.8,0.4c-0.4,0.3-0.7,0.8-0.9,1.5l-1.7-0.2c0.2-0.7,0.4-1.3,0.8-1.8c0.4-0.5,0.9-0.8,1.5-1c0.7-0.2,1.5-0.4,2.4-0.4
	c0.9,0,1.6,0.1,2.2,0.3s1,0.5,1.2,0.8c0.3,0.3,0.4,0.7,0.5,1.2c0.1,0.3,0.1,0.8,0.1,1.6v2.3c0,1.6,0,2.7,0.1,3.1
	c0.1,0.4,0.2,0.8,0.5,1.2h-1.8C336.3,36.6,336.1,36.2,336.1,35.7z M335.9,31.8c-0.6,0.3-1.6,0.5-2.9,0.7c-0.7,0.1-1.2,0.2-1.5,0.4
	c-0.3,0.1-0.5,0.3-0.7,0.6s-0.2,0.5-0.2,0.8c0,0.5,0.2,0.9,0.5,1.2s0.9,0.5,1.6,0.5c0.7,0,1.3-0.1,1.8-0.4c0.5-0.3,0.9-0.7,1.2-1.2
	c0.2-0.4,0.3-1,0.3-1.8V31.8z M340.3,37V22.7h1.8V37H340.3z M351.4,33.7l1.8,0.2c-0.3,1.1-0.8,1.9-1.6,2.5c-0.8,0.6-1.8,0.9-3,0.9
	c-1.5,0-2.7-0.5-3.6-1.4c-0.9-0.9-1.3-2.2-1.3-3.9c0-1.8,0.4-3.1,1.3-4.1c0.9-1,2.1-1.5,3.5-1.5c1.4,0,2.5,0.5,3.4,1.4
	c0.9,0.9,1.3,2.3,1.3,4c0,0.1,0,0.3,0,0.5h-7.7c0.1,1.1,0.4,2,1,2.6s1.3,0.9,2.2,0.9c0.6,0,1.2-0.2,1.6-0.5
	C350.8,34.9,351.2,34.4,351.4,33.7z M345.6,30.8h5.8c-0.1-0.9-0.3-1.5-0.7-2c-0.6-0.7-1.3-1-2.2-1c-0.8,0-1.5,0.3-2,0.8
	C346,29.2,345.7,29.9,345.6,30.8z M354.6,33.9l1.8-0.3c0.1,0.7,0.4,1.2,0.8,1.6c0.4,0.4,1.1,0.5,1.9,0.5s1.4-0.2,1.8-0.5
	c0.4-0.3,0.6-0.7,0.6-1.2c0-0.4-0.2-0.7-0.5-0.9c-0.2-0.2-0.8-0.4-1.8-0.6c-1.3-0.3-2.2-0.6-2.7-0.8c-0.5-0.2-0.9-0.6-1.1-1
	c-0.3-0.4-0.4-0.9-0.4-1.4c0-0.5,0.1-0.9,0.3-1.3c0.2-0.4,0.5-0.7,0.9-1c0.3-0.2,0.6-0.4,1.1-0.5c0.5-0.1,1-0.2,1.5-0.2
	c0.8,0,1.5,0.1,2.1,0.4c0.6,0.2,1.1,0.5,1.4,1c0.3,0.4,0.5,0.9,0.6,1.6l-1.7,0.2c-0.1-0.5-0.3-0.9-0.7-1.2c-0.4-0.3-0.9-0.5-1.6-0.5
	c-0.8,0-1.4,0.1-1.7,0.4c-0.3,0.3-0.5,0.6-0.5,0.9c0,0.2,0.1,0.4,0.2,0.6c0.1,0.2,0.4,0.3,0.7,0.5c0.2,0.1,0.7,0.2,1.5,0.4
	c1.2,0.3,2.1,0.6,2.6,0.8c0.5,0.2,0.9,0.5,1.2,0.9c0.3,0.4,0.4,0.9,0.4,1.5c0,0.6-0.2,1.1-0.5,1.7s-0.8,0.9-1.5,1.2
	s-1.4,0.4-2.2,0.4c-1.3,0-2.4-0.3-3.1-0.8S354.8,35,354.6,33.9z"/>
<path class="st34" d="M314.6,343h-10.4c-1.1,0-2-0.9-2-2v-10.4c0-1.1,0.9-2,2-2h10.4c1.1,0,2,0.9,2,2V341
	C316.6,342.1,315.7,343,314.6,343z"/>
<rect x="290" y="61.1" class="st35" width="282" height="235"/>
<text transform="matrix(0.9798 0 0 1 410.043 55.625)" class="st31 st36 st37">Covid</text>
</svg>
